<svg width="28" height="28" viewBox="0 0 28 28" fill="none" xmlns="http://www.w3.org/2000/svg">
<path d="M26.25 12.0014H5.495L11.8475 3.28221C12.1445 2.87381 12.2875 2.3473 12.2448 1.81849C12.2021 1.28969 11.9774 0.80191 11.62 0.462463C11.2626 0.123016 10.8019 -0.0402928 10.3391 0.00846224C9.87639 0.0572173 9.44954 0.314043 9.1525 0.72244L0.4025 12.7214C0.343631 12.8168 0.290989 12.9171 0.245 13.0213C0.245 13.1213 0.245 13.1813 0.1225 13.2813C0.0431789 13.5106 0.00164696 13.7547 0 14.0013C0.00164696 14.2478 0.0431789 14.4919 0.1225 14.7212C0.1225 14.8212 0.1225 14.8812 0.245 14.9812C0.290989 15.0854 0.343631 15.1857 0.4025 15.2811L9.1525 27.2801C9.31704 27.5058 9.52308 27.6873 9.75598 27.8118C9.98888 27.9362 10.2429 28.0005 10.5 28C10.9089 28.0009 11.3052 27.8382 11.62 27.54C11.7972 27.3722 11.9437 27.166 12.051 26.9333C12.1584 26.7006 12.2246 26.446 12.2457 26.1841C12.2668 25.9222 12.2425 25.6581 12.1742 25.4069C12.1059 25.1557 11.9949 24.9224 11.8475 24.7203L5.495 16.0011H26.25C26.7141 16.0011 27.1593 15.7904 27.4874 15.4153C27.8156 15.0403 28 14.5316 28 14.0013C28 13.4709 27.8156 12.9622 27.4874 12.5872C27.1593 12.2121 26.7141 12.0014 26.25 12.0014Z" fill="#FF3333"/>
</svg>
