<svg width="315" height="309" viewBox="0 0 315 309" fill="none" xmlns="http://www.w3.org/2000/svg">
<g clip-path="url(#clip0_21_370)">
<path d="M157.5 308.346C244.485 308.346 315 239.32 315 154.173C315 69.0256 244.485 0 157.5 0C70.5152 0 0 69.0256 0 154.173C0 239.32 70.5152 308.346 157.5 308.346Z" fill="#FC5F6C"/>
<g opacity="0.75">
<path opacity="0.75" d="M213.604 206.989C230.988 230.108 243.72 256.384 251.093 284.358C251.093 284.358 156.934 346.725 66.043 273.063C66.043 273.063 84.9621 207.904 104.23 206.16C123.498 204.415 213.604 206.989 213.604 206.989Z" fill="#C64259"/>
<path opacity="0.75" d="M97.9966 207.294C97.9966 207.294 54.9707 238.39 77.3337 258.67C99.6967 278.95 106.323 244.452 95.4682 241.574C84.6137 238.695 97.9966 207.294 97.9966 207.294Z" fill="#C64259"/>
<path opacity="0.75" d="M101.789 204.982C97.4964 202.22 93.7805 198.65 90.8471 194.472C82.8697 225.001 180.343 242.054 219.663 211.306C182.479 225.219 118.834 215.755 101.789 204.982Z" fill="#C64259"/>
<path opacity="0.75" d="M83.5237 197.437C86.4216 201.646 90.1442 205.222 94.4654 207.948C111.467 218.895 175.112 228.359 212.165 214.272C216.26 212.772 220.178 210.827 223.848 208.471C227.466 206.141 230.543 203.063 232.872 199.443C248.914 174.409 219.14 132.279 219.14 132.279C219.14 132.279 278.077 62.9339 231.041 38.2488C212.994 28.872 200.526 36.5479 191.808 49.6755L190.892 52.7284C190.892 37.4638 184.702 24.3362 163.734 22.1991C110.943 16.2677 128.032 110.472 128.032 110.472C128.032 110.472 97.5169 118.846 97.5169 145.101C91.0319 148.445 85.6673 153.615 82.0851 159.973C78.8018 165.729 77.1962 172.289 77.4504 178.911C77.7047 185.533 79.8087 191.951 83.5237 197.437V197.437ZM156.149 171.008L154.667 173.537C154.281 174.188 153.732 174.727 153.075 175.102C152.418 175.476 151.674 175.673 150.918 175.673C150.161 175.673 149.418 175.476 148.761 175.102C148.103 174.727 147.555 174.188 147.169 173.537L145.687 171.008C145.544 170.752 145.47 170.464 145.471 170.172C145.472 169.879 145.549 169.592 145.693 169.337C145.838 169.083 146.046 168.87 146.297 168.72C146.547 168.569 146.833 168.486 147.125 168.478H154.71C155.008 168.473 155.302 168.548 155.56 168.695C155.819 168.842 156.033 169.057 156.18 169.315C156.328 169.574 156.402 169.868 156.397 170.166C156.391 170.464 156.306 170.754 156.149 171.008V171.008ZM177.073 148.678C178.904 148.327 180.798 148.551 182.495 149.32C184.193 150.09 185.611 151.366 186.554 152.974C187.498 154.582 187.92 156.443 187.764 158.301C187.608 160.159 186.88 161.923 185.682 163.351C184.483 164.779 182.872 165.8 181.07 166.275C179.267 166.749 177.362 166.654 175.616 166.002C173.87 165.35 172.369 164.173 171.319 162.633C170.268 161.092 169.72 159.265 169.75 157.4C169.603 155.28 170.284 153.186 171.65 151.559C173.016 149.932 174.961 148.899 177.073 148.678V148.678ZM129.645 148.678C131.716 149.064 133.586 150.162 134.933 151.783C136.279 153.404 137.016 155.445 137.016 157.553C137.016 159.66 136.279 161.702 134.933 163.323C133.586 164.944 131.716 166.042 129.645 166.428C127.574 166.042 125.703 164.944 124.357 163.323C123.01 161.702 122.273 159.66 122.273 157.553C122.273 155.445 123.01 153.404 124.357 151.783C125.703 150.162 127.574 149.064 129.645 148.678V148.678Z" fill="#C64259"/>
<path opacity="0.75" d="M120.403 213.705C120.227 212.133 119.436 210.694 118.202 209.705C116.968 208.716 115.392 208.256 113.82 208.428L90.2368 211.088L88.1007 211.35C87.3102 211.436 86.5448 211.679 85.8494 212.065C85.1541 212.451 84.5429 212.973 84.0515 213.598C83.5602 214.224 83.1987 214.941 82.9883 215.709C82.7778 216.476 82.7227 217.277 82.826 218.066L84.6133 233.767C87.0925 235.612 89.7679 237.177 92.5908 238.434C100.35 242.01 98.7373 261.68 87.752 262.072V262.988C87.9273 264.549 88.7141 265.976 89.94 266.957C91.1658 267.938 92.7305 268.393 94.2909 268.222L102.007 267.393L120.054 265.343C121.626 265.168 123.063 264.376 124.052 263.141C125.041 261.907 125.5 260.33 125.329 258.758L120.403 213.705Z" fill="#C64259"/>
<path opacity="0.75" d="M154.71 168.478H147.125C146.833 168.486 146.547 168.569 146.296 168.72C146.046 168.87 145.838 169.083 145.693 169.337C145.549 169.592 145.472 169.879 145.471 170.172C145.47 170.464 145.544 170.752 145.686 171.008L147.169 173.537C147.555 174.188 148.103 174.727 148.76 175.102C149.418 175.476 150.161 175.673 150.918 175.673C151.674 175.673 152.417 175.476 153.075 175.102C153.732 174.727 154.281 174.188 154.667 173.537L156.149 171.008C156.305 170.754 156.391 170.464 156.397 170.166C156.402 169.868 156.327 169.574 156.18 169.316C156.033 169.057 155.819 168.842 155.56 168.695C155.301 168.548 155.008 168.473 154.71 168.478V168.478Z" fill="#C64259"/>
<path opacity="0.75" d="M177.073 166.428C178.904 166.779 180.798 166.555 182.495 165.785C184.193 165.016 185.611 163.74 186.554 162.132C187.498 160.524 187.92 158.663 187.764 156.805C187.608 154.947 186.88 153.183 185.682 151.755C184.483 150.327 182.872 149.306 181.069 148.831C179.267 148.357 177.362 148.452 175.616 149.104C173.87 149.756 172.369 150.933 171.318 152.473C170.268 154.013 169.72 155.841 169.75 157.706C169.603 159.826 170.284 161.92 171.65 163.547C173.016 165.174 174.961 166.207 177.073 166.428V166.428Z" fill="#C64259"/>
<path opacity="0.75" d="M129.645 166.428C131.716 166.042 133.586 164.944 134.933 163.323C136.279 161.702 137.016 159.66 137.016 157.553C137.016 155.445 136.279 153.404 134.933 151.783C133.586 150.162 131.716 149.064 129.645 148.678C127.574 149.064 125.703 150.162 124.357 151.783C123.01 153.404 122.273 155.445 122.273 157.553C122.273 159.66 123.01 161.702 124.357 163.323C125.703 164.944 127.574 166.042 129.645 166.428V166.428Z" fill="#C64259"/>
<path opacity="0.75" d="M158.503 183.176C157.054 183.014 155.657 182.54 154.408 181.787C153.159 181.034 152.087 180.02 151.267 178.814C150.273 180.044 148.997 181.016 147.547 181.646C146.098 182.276 144.517 182.547 142.941 182.434C137.273 181.606 134.222 174.366 133.96 174.061C133.889 173.897 133.85 173.722 133.846 173.543C133.843 173.365 133.874 173.188 133.939 173.022C134.004 172.856 134.101 172.704 134.224 172.576C134.347 172.447 134.495 172.344 134.658 172.272C134.821 172.201 134.997 172.162 135.175 172.158C135.353 172.155 135.53 172.186 135.696 172.251C135.862 172.316 136.014 172.413 136.142 172.536C136.271 172.659 136.374 172.807 136.445 172.97C136.445 172.97 139.192 179.163 143.333 179.73C145.512 180.036 147.692 178.727 150.308 175.805L151.528 174.366L152.531 175.936C153.316 177.201 156.062 180.297 158.765 180.297C161.467 180.297 163.385 177.637 165.434 173.014C165.5 172.846 165.6 172.694 165.728 172.567C165.855 172.439 166.008 172.34 166.176 172.274C166.343 172.209 166.523 172.179 166.703 172.186C166.883 172.193 167.059 172.237 167.222 172.316C167.537 172.476 167.779 172.749 167.901 173.081C168.022 173.413 168.013 173.779 167.875 174.104C165.391 179.774 162.339 182.827 159.157 182.827L158.503 183.176Z" fill="#C64259"/>
</g>
<path d="M204.623 206.989C221.946 230.121 234.619 256.397 241.939 284.358C241.939 284.358 147.953 346.725 56.8882 273.063C56.8882 273.063 75.8074 207.904 95.0317 206.16C114.256 204.415 204.623 206.989 204.623 206.989Z" fill="white"/>
<path d="M88.8416 207.294C88.8416 207.294 45.8158 238.39 68.1352 258.67C90.4545 278.95 97.1678 244.452 86.3132 241.574C75.4587 238.695 88.8416 207.294 88.8416 207.294Z" fill="white"/>
<path d="M92.6341 204.982C88.3416 202.22 84.6257 198.65 81.6924 194.472C73.7149 225.001 171.188 242.054 210.508 211.306C173.324 225.219 109.679 215.755 92.6341 204.982Z" fill="#85ACE5"/>
<path d="M74.3253 197.437C77.2514 201.637 80.9862 205.211 85.3106 207.948C102.312 218.895 165.957 228.359 203.011 214.272C207.105 212.772 211.023 210.827 214.693 208.471C218.311 206.141 221.388 203.063 223.717 199.443C239.759 174.453 210.073 132.279 210.073 132.279C210.073 132.279 268.923 62.9339 221.625 38.2488C203.621 28.872 191.11 36.5479 182.391 49.6755L181.476 52.7284C181.476 37.4638 175.286 24.3362 154.318 22.1991C101.527 16.2677 118.615 110.472 118.615 110.472C118.615 110.472 88.1005 118.846 88.1005 145.101C81.6065 148.432 76.2386 153.605 72.6688 159.973C69.4172 165.749 67.8488 172.32 68.1416 178.942C68.4344 185.564 70.5766 191.972 74.3253 197.437ZM146.994 171.008L145.512 173.537C145.126 174.188 144.577 174.727 143.92 175.102C143.263 175.476 142.519 175.673 141.763 175.673C141.007 175.673 140.263 175.476 139.606 175.102C138.949 174.727 138.4 174.188 138.014 173.537L136.532 171.008C136.389 170.752 136.315 170.464 136.316 170.172C136.317 169.879 136.394 169.592 136.539 169.337C136.683 169.083 136.891 168.87 137.142 168.72C137.393 168.569 137.678 168.486 137.97 168.478H145.556C145.848 168.486 146.133 168.569 146.384 168.72C146.635 168.87 146.843 169.083 146.987 169.337C147.132 169.592 147.209 169.879 147.21 170.172C147.211 170.464 147.137 170.752 146.994 171.008V171.008ZM167.919 148.678C169.99 149.064 171.86 150.162 173.207 151.783C174.553 153.404 175.29 155.445 175.29 157.553C175.29 159.66 174.553 161.702 173.207 163.323C171.86 164.944 169.99 166.042 167.919 166.428C165.848 166.042 163.977 164.944 162.631 163.323C161.284 161.702 160.547 159.66 160.547 157.553C160.547 155.445 161.284 153.404 162.631 151.783C163.977 150.162 165.848 149.064 167.919 148.678V148.678ZM120.49 148.678C122.561 149.064 124.432 150.162 125.778 151.783C127.124 153.404 127.861 155.445 127.861 157.553C127.861 159.66 127.124 161.702 125.778 163.323C124.432 164.944 122.561 166.042 120.49 166.428C118.419 166.042 116.548 164.944 115.202 163.323C113.856 161.702 113.119 159.66 113.119 157.553C113.119 155.445 113.856 153.404 115.202 151.783C116.548 150.162 118.419 149.064 120.49 148.678V148.678Z" fill="white"/>
<path d="M111.248 213.705C111.031 212.156 110.215 210.754 108.977 209.8C107.738 208.846 106.174 208.416 104.622 208.602L81.0384 211.263L78.9024 211.524C77.3472 211.711 75.9273 212.501 74.9489 213.724C73.9704 214.948 73.5116 216.507 73.6713 218.066L75.415 233.767C77.9164 235.602 80.6051 237.166 83.436 238.434C91.1955 242.01 89.5826 261.68 78.5973 262.072V262.988C78.7726 264.549 79.5594 265.976 80.7852 266.957C82.011 267.938 83.5757 268.393 85.1361 268.222L92.852 267.393L110.899 265.343C111.676 265.257 112.428 265.017 113.111 264.639C113.795 264.26 114.398 263.751 114.884 263.139C115.37 262.527 115.73 261.824 115.944 261.073C116.158 260.321 116.221 259.534 116.13 258.758L111.248 213.705Z" fill="#33292D"/>
<path d="M145.556 168.478H137.971C137.678 168.486 137.393 168.569 137.142 168.72C136.891 168.87 136.683 169.083 136.539 169.337C136.394 169.592 136.318 169.879 136.316 170.172C136.315 170.464 136.39 170.752 136.532 171.008L138.014 173.537C138.4 174.188 138.949 174.727 139.606 175.102C140.263 175.476 141.007 175.673 141.763 175.673C142.52 175.673 143.263 175.476 143.92 175.102C144.578 174.727 145.126 174.188 145.512 173.537L146.994 171.008C147.137 170.752 147.211 170.464 147.21 170.172C147.209 169.879 147.132 169.592 146.988 169.337C146.843 169.083 146.635 168.87 146.384 168.72C146.134 168.569 145.848 168.486 145.556 168.478V168.478Z" fill="black"/>
<path d="M167.919 166.428C169.99 166.042 171.86 164.944 173.207 163.323C174.553 161.702 175.29 159.66 175.29 157.553C175.29 155.445 174.553 153.404 173.207 151.783C171.86 150.162 169.99 149.064 167.919 148.678C165.848 149.064 163.977 150.162 162.631 151.783C161.284 153.404 160.547 155.445 160.547 157.553C160.547 159.66 161.284 161.702 162.631 163.323C163.977 164.944 165.848 166.042 167.919 166.428V166.428Z" fill="black"/>
<path d="M120.49 166.428C122.561 166.042 124.432 164.944 125.778 163.323C127.124 161.702 127.861 159.66 127.861 157.553C127.861 155.445 127.124 153.404 125.778 151.783C124.432 150.162 122.561 149.064 120.49 148.678C118.419 149.064 116.548 150.162 115.202 151.783C113.856 153.404 113.119 155.445 113.119 157.553C113.119 159.66 113.856 161.702 115.202 163.323C116.548 164.944 118.419 166.042 120.49 166.428V166.428Z" fill="black"/>
<path d="M148 182.827C146.551 182.665 146.502 182.54 145.253 181.787C144.004 181.034 142.933 180.02 142.112 178.814C141.118 180.044 139.842 181.016 138.393 181.646C136.943 182.276 135.362 182.547 133.786 182.434C128.119 181.606 125.067 174.366 124.806 174.061C124.734 173.897 124.695 173.722 124.692 173.543C124.688 173.365 124.719 173.188 124.784 173.022C124.849 172.856 124.946 172.704 125.069 172.576C125.193 172.447 125.34 172.344 125.503 172.272C125.666 172.201 125.842 172.162 126.02 172.158C126.198 172.155 126.375 172.186 126.541 172.251C126.707 172.316 126.859 172.413 126.987 172.536C127.116 172.659 127.219 172.807 127.29 172.97C127.29 172.97 129.993 179.163 134.178 179.73C136.358 180.036 138.537 178.727 141.153 175.805L142.373 174.366L143.332 175.936C144.161 177.201 146.907 180.297 149.61 180.297C152.313 180.297 153.969 177.637 156.236 173.014C156.38 172.684 156.65 172.425 156.985 172.295C157.32 172.164 157.694 172.171 158.023 172.316C158.353 172.461 158.611 172.73 158.742 173.066C158.873 173.401 158.865 173.774 158.721 174.104C156.192 179.774 153.184 182.827 150.002 182.827H148Z" fill="black"/>
<path d="M133.742 181.649C133.742 181.649 141.763 191.942 149.741 181.649C147.471 179.648 144.933 177.974 142.199 176.677L133.742 181.649Z" fill="black"/>
<path d="M232.174 152.341C232.174 152.341 248.216 148.59 246.734 145.101C245.252 141.612 233.656 130.796 237.231 121.114C247.693 92.3293 286.054 95.2078 294.642 118.584C307.851 154.653 232.174 152.341 232.174 152.341Z" fill="white"/>
<path d="M68.135 223.126C68.135 223.126 56.9753 220.421 58.0216 217.979C59.0678 215.537 65.8682 208.21 64.6476 201.014C60.2884 175.805 30.6454 182.74 24.6732 199.269C15.4752 224.739 68.135 223.126 68.135 223.126Z" fill="white"/>
<path d="M117.22 264.733C117.22 264.733 148.476 300.103 191.764 264.733H117.22Z" fill="#85ACE5"/>
<path d="M185.704 229.624C144.248 241.181 105.581 229.624 106.976 248.508C108.371 267.393 147.779 284.577 178.032 271.275C233.482 246.938 185.704 229.624 185.704 229.624Z" fill="white"/>
<path d="M95.9036 242.577C87.7082 230.278 79.5564 225.132 81.2129 211.263L79.0769 211.524C78.2913 211.595 77.5275 211.821 76.8297 212.189C76.1319 212.557 75.5138 213.06 75.0113 213.668C74.5087 214.276 74.1315 214.978 73.9015 215.733C73.6716 216.488 73.5933 217.281 73.6714 218.066L75.4151 233.767C77.9165 235.602 80.6052 237.166 83.4361 238.434C91.1956 242.01 89.5827 261.68 78.5974 262.072V262.988C78.7727 264.549 79.5595 265.976 80.7853 266.957C82.0111 267.938 83.5758 268.393 85.1363 268.222L92.8521 267.393C96.4267 257.754 101.571 248.334 95.9036 242.577Z" fill="#0F0D0E"/>
<path d="M84.5837 214.355L79.4703 214.914C77.6753 215.11 76.3793 216.725 76.5756 218.521L76.6087 218.825C76.805 220.62 78.4192 221.917 80.2142 221.721L85.3276 221.161C87.1226 220.965 88.4186 219.35 88.2223 217.554L88.1892 217.251C87.9929 215.455 86.3787 214.158 84.5837 214.355Z" fill="#AAA9A9"/>
<path d="M91.1519 218.633C91.8501 218.633 92.4161 218.067 92.4161 217.369C92.4161 216.67 91.8501 216.104 91.1519 216.104C90.4537 216.104 89.8877 216.67 89.8877 217.369C89.8877 218.067 90.4537 218.633 91.1519 218.633Z" fill="#AAA9A9"/>
</g>
<defs>
<clipPath id="clip0_21_370">
<rect width="315" height="309" fill="white"/>
</clipPath>
</defs>
</svg>
