<svg width="209" height="205" viewBox="0 0 209 205" fill="none" xmlns="http://www.w3.org/2000/svg">
<g clip-path="url(#clip0_342_1645)">
<path d="M104.5 204.566C162.214 204.566 209 158.772 209 102.283C209 45.7937 162.214 0 104.5 0C46.7862 0 0 45.7937 0 102.283C0 158.772 46.7862 204.566 104.5 204.566Z" fill="#FC5F6C"/>
<g opacity="0.75">
<path opacity="0.75" d="M141.724 137.323C153.259 152.66 161.706 170.093 166.598 188.652C166.598 188.652 104.124 230.028 43.8188 181.158C43.8188 181.158 56.3716 137.93 69.1557 136.773C81.9398 135.615 141.724 137.323 141.724 137.323Z" fill="#C64259"/>
<path opacity="0.75" d="M65.0196 137.525C65.0196 137.525 36.4723 158.155 51.31 171.61C66.1476 185.064 70.544 162.177 63.3421 160.267C56.1402 158.358 65.0196 137.525 65.0196 137.525Z" fill="#C64259"/>
<path opacity="0.75" d="M67.536 135.992C64.688 134.159 62.2225 131.791 60.2763 129.018C54.9833 149.272 119.656 160.586 145.745 140.187C121.073 149.417 78.845 143.138 67.536 135.992Z" fill="#C64259"/>
<path opacity="0.75" d="M55.4171 130.986C57.3399 133.778 59.8098 136.151 62.6769 137.959C73.957 145.222 116.185 151.5 140.77 142.155C143.487 141.159 146.086 139.869 148.521 138.306C150.922 136.76 152.963 134.718 154.508 132.317C165.152 115.709 145.398 87.7579 145.398 87.7579C145.398 87.7579 184.502 41.7523 153.294 25.3754C141.319 19.1545 133.047 24.247 127.263 32.9562L126.655 34.9816C126.655 24.8546 122.548 16.1454 108.636 14.7276C73.6099 10.7925 84.9478 73.2907 84.9478 73.2907C84.9478 73.2907 64.7015 78.8461 64.7015 96.2646C60.3987 98.4828 56.8394 101.913 54.4626 106.131C52.2842 109.949 51.2189 114.302 51.3876 118.695C51.5563 123.088 52.9522 127.346 55.4171 130.986ZM103.603 113.452L102.62 115.13C102.364 115.562 102 115.919 101.564 116.168C101.128 116.416 100.634 116.547 100.133 116.547C99.6307 116.547 99.1375 116.416 98.7014 116.168C98.2653 115.919 97.9013 115.562 97.6452 115.13L96.6618 113.452C96.5672 113.282 96.5179 113.091 96.5186 112.897C96.5194 112.703 96.5703 112.512 96.6662 112.343C96.7622 112.175 96.9 112.034 97.0665 111.934C97.2329 111.834 97.4223 111.779 97.6162 111.773H102.649C102.846 111.77 103.041 111.82 103.213 111.917C103.384 112.015 103.527 112.157 103.624 112.329C103.722 112.501 103.772 112.696 103.768 112.893C103.764 113.091 103.707 113.284 103.603 113.452ZM117.487 98.6373C118.701 98.4044 119.958 98.5533 121.084 99.0637C122.211 99.5741 123.151 100.421 123.777 101.488C124.403 102.555 124.684 103.789 124.58 105.022C124.476 106.254 123.994 107.425 123.198 108.372C122.403 109.319 121.334 109.997 120.138 110.312C118.942 110.627 117.678 110.563 116.52 110.131C115.361 109.698 114.365 108.917 113.668 107.895C112.971 106.874 112.608 105.661 112.627 104.424C112.53 103.018 112.982 101.628 113.888 100.549C114.795 99.4691 116.085 98.7839 117.487 98.6373ZM86.018 98.6373C87.3921 98.8933 88.6333 99.6222 89.5265 100.698C90.4198 101.773 90.9088 103.127 90.9088 104.525C90.9088 105.924 90.4198 107.278 89.5265 108.353C88.6333 109.429 87.3921 110.158 86.018 110.414C84.6439 110.158 83.4027 109.429 82.5095 108.353C81.6162 107.278 81.1272 105.924 81.1272 104.525C81.1272 103.127 81.6162 101.773 82.5095 100.698C83.4027 99.6222 84.6439 98.8933 86.018 98.6373Z" fill="#C64259"/>
<path opacity="0.75" d="M79.8862 141.778C79.7699 140.735 79.2448 139.781 78.426 139.125C77.6073 138.468 76.5618 138.164 75.5188 138.277L59.8713 140.042L58.454 140.216C57.9295 140.273 57.4217 140.435 56.9603 140.691C56.499 140.947 56.0934 141.293 55.7674 141.708C55.4414 142.123 55.2016 142.599 55.062 143.108C54.9223 143.617 54.8857 144.148 54.9543 144.672L56.1402 155.088C57.7851 156.312 59.5602 157.35 61.4332 158.184C66.5815 160.557 65.5113 173.606 58.2227 173.867V174.474C58.339 175.51 58.861 176.457 59.6743 177.108C60.4877 177.759 61.5258 178.06 62.5612 177.946L67.6806 177.397L79.6549 176.037C80.6975 175.92 81.6515 175.395 82.3076 174.576C82.9637 173.757 83.2683 172.711 83.1546 171.668L79.8862 141.778Z" fill="#C64259"/>
<path opacity="0.75" d="M102.649 111.773H97.6162C97.4222 111.779 97.2329 111.834 97.0665 111.934C96.9 112.034 96.7622 112.175 96.6662 112.343C96.5702 112.512 96.5194 112.703 96.5186 112.897C96.5178 113.091 96.5671 113.282 96.6618 113.452L97.6452 115.13C97.9013 115.562 98.2653 115.919 98.7014 116.168C99.1375 116.416 99.6307 116.547 100.133 116.547C100.634 116.547 101.128 116.416 101.564 116.168C102 115.919 102.364 115.562 102.62 115.13L103.603 113.452C103.707 113.284 103.764 113.091 103.768 112.893C103.772 112.696 103.722 112.501 103.624 112.329C103.527 112.157 103.384 112.015 103.213 111.917C103.041 111.82 102.846 111.77 102.649 111.773Z" fill="#C64259"/>
<path opacity="0.75" d="M117.487 110.414C118.701 110.646 119.958 110.497 121.084 109.987C122.21 109.477 123.151 108.63 123.777 107.563C124.403 106.496 124.684 105.262 124.58 104.029C124.476 102.796 123.994 101.626 123.198 100.679C122.403 99.7317 121.334 99.0541 120.138 98.7392C118.942 98.4243 117.678 98.4874 116.52 98.9201C115.361 99.3527 114.365 100.134 113.668 101.155C112.971 102.177 112.608 103.39 112.627 104.627C112.53 106.033 112.982 107.423 113.888 108.502C114.795 109.582 116.085 110.267 117.487 110.414Z" fill="#C64259"/>
<path opacity="0.75" d="M86.018 110.414C87.3921 110.158 88.6333 109.429 89.5266 108.353C90.4198 107.278 90.9088 105.924 90.9088 104.525C90.9088 103.127 90.4198 101.773 89.5266 100.698C88.6333 99.6222 87.3921 98.8933 86.018 98.6373C84.6439 98.8933 83.4027 99.6222 82.5095 100.698C81.6162 101.773 81.1272 103.127 81.1272 104.525C81.1272 105.924 81.6162 107.278 82.5095 108.353C83.4027 109.429 84.6439 110.158 86.018 110.414Z" fill="#C64259"/>
<path opacity="0.75" d="M105.165 121.524C104.204 121.417 103.277 121.103 102.448 120.603C101.619 120.104 100.908 119.431 100.364 118.631C99.7047 119.447 98.8581 120.091 97.8962 120.51C96.9344 120.928 95.8857 121.107 94.8396 121.032C91.0796 120.483 89.0549 115.68 88.8814 115.477C88.8339 115.369 88.8082 115.252 88.8058 115.134C88.8034 115.016 88.8242 114.898 88.8672 114.788C88.9102 114.678 88.9744 114.577 89.0562 114.492C89.1381 114.407 89.2359 114.338 89.3442 114.291C89.4524 114.243 89.569 114.218 89.6871 114.215C89.8053 114.213 89.9228 114.234 90.0329 114.277C90.1431 114.32 90.2436 114.384 90.3289 114.466C90.4142 114.548 90.4826 114.645 90.53 114.754C90.53 114.754 92.3522 118.862 95.0999 119.239C96.5461 119.441 97.9922 118.573 99.7276 116.634L100.537 115.68L101.203 116.721C101.723 117.56 103.546 119.615 105.339 119.615C107.132 119.615 108.405 117.85 109.764 114.783C109.808 114.671 109.874 114.57 109.959 114.486C110.043 114.402 110.145 114.336 110.256 114.292C110.367 114.249 110.486 114.229 110.606 114.233C110.725 114.238 110.842 114.268 110.95 114.32C111.159 114.426 111.32 114.607 111.4 114.827C111.481 115.048 111.475 115.29 111.384 115.506C109.735 119.267 107.71 121.293 105.599 121.293L105.165 121.524Z" fill="#C64259"/>
</g>
<path d="M135.766 137.323C147.26 152.67 155.668 170.101 160.524 188.652C160.524 188.652 98.1658 230.028 37.7449 181.158C37.7449 181.158 50.2977 137.93 63.0528 136.773C75.808 135.615 135.766 137.323 135.766 137.323Z" fill="white"/>
<path d="M58.9457 137.525C58.9457 137.525 30.3984 158.155 45.2071 171.61C60.0159 185.064 64.4701 162.177 57.2682 160.267C50.0663 158.358 58.9457 137.525 58.9457 137.525Z" fill="white"/>
<path d="M61.4621 135.992C58.6141 134.159 56.1486 131.791 54.2023 129.018C48.9094 149.272 113.582 160.586 139.671 140.187C114.999 149.417 72.7711 143.138 61.4621 135.992Z" fill="#85ACE5"/>
<path d="M49.3143 130.986C51.2558 133.772 53.7338 136.143 56.603 137.959C67.8831 145.222 110.111 151.5 134.696 142.155C137.413 141.159 140.012 139.869 142.447 138.306C144.848 136.76 146.889 134.718 148.435 132.317C159.078 115.737 139.382 87.7579 139.382 87.7579C139.382 87.7579 178.428 41.7523 147.046 25.3754C135.101 19.1545 126.8 24.247 121.015 32.9562L120.408 34.9816C120.408 24.8546 116.301 16.1454 102.389 14.7276C67.3625 10.7925 78.7004 73.2907 78.7004 73.2907C78.7004 73.2907 58.4541 78.8461 58.4541 96.2646C54.1453 98.4744 50.5838 101.906 48.2152 106.131C46.0578 109.963 45.0172 114.323 45.2115 118.716C45.4057 123.109 46.8271 127.36 49.3143 130.986ZM97.5295 113.452L96.5461 115.13C96.29 115.562 95.926 115.919 95.4899 116.168C95.0538 116.416 94.5606 116.547 94.0587 116.547C93.5568 116.547 93.0636 116.416 92.6275 116.168C92.1914 115.919 91.8274 115.562 91.5713 115.13L90.5879 113.452C90.4933 113.282 90.444 113.091 90.4448 112.897C90.4455 112.703 90.4964 112.512 90.5923 112.343C90.6883 112.175 90.8262 112.034 90.9926 111.934C91.159 111.834 91.3484 111.779 91.5424 111.773H96.575C96.769 111.779 96.9584 111.834 97.1248 111.934C97.2912 112.034 97.4291 112.175 97.5251 112.343C97.621 112.512 97.6719 112.703 97.6726 112.897C97.6734 113.091 97.6241 113.282 97.5295 113.452ZM111.413 98.6373C112.787 98.8933 114.028 99.6222 114.921 100.698C115.814 101.773 116.304 103.127 116.304 104.525C116.304 105.924 115.814 107.278 114.921 108.353C114.028 109.429 112.787 110.158 111.413 110.414C110.039 110.158 108.797 109.429 107.904 108.353C107.011 107.278 106.522 105.924 106.522 104.525C106.522 103.127 107.011 101.773 107.904 100.698C108.797 99.6222 110.039 98.8933 111.413 98.6373ZM79.9441 98.6373C81.3182 98.8933 82.5594 99.6222 83.4526 100.698C84.3459 101.773 84.8349 103.127 84.8349 104.525C84.8349 105.924 84.3459 107.278 83.4526 108.353C82.5594 109.429 81.3182 110.158 79.9441 110.414C78.57 110.158 77.3288 109.429 76.4356 108.353C75.5423 107.278 75.0533 105.924 75.0533 104.525C75.0533 103.127 75.5423 101.773 76.4356 100.698C77.3288 99.6222 78.57 98.8933 79.9441 98.6373Z" fill="white"/>
<path d="M73.8123 141.778C73.6683 140.751 73.1272 139.821 72.3052 139.188C71.4832 138.555 70.4459 138.269 69.416 138.393L53.7685 140.158L52.3512 140.332C51.3193 140.455 50.3773 140.979 49.7281 141.791C49.0788 142.603 48.7744 143.638 48.8804 144.672L50.0373 155.088C51.697 156.305 53.4809 157.343 55.3592 158.184C60.5076 160.557 59.4374 173.606 52.1488 173.867V174.474C52.2651 175.51 52.7871 176.457 53.6004 177.108C54.4138 177.759 55.4519 178.06 56.4873 177.946L61.6067 177.397L73.5809 176.037C74.0962 175.979 74.595 175.82 75.0486 175.569C75.5023 175.318 75.9019 174.98 76.2245 174.574C76.547 174.168 76.7862 173.702 76.9281 173.203C77.0701 172.705 77.1121 172.183 77.0517 171.668L73.8123 141.778Z" fill="#33292D"/>
<path d="M96.575 111.773H91.5424C91.3484 111.779 91.159 111.834 90.9926 111.934C90.8262 112.034 90.6883 112.175 90.5923 112.343C90.4964 112.512 90.4455 112.703 90.4448 112.897C90.444 113.091 90.4933 113.282 90.5879 113.452L91.5713 115.13C91.8274 115.562 92.1914 115.919 92.6275 116.168C93.0636 116.416 93.5568 116.547 94.0587 116.547C94.5606 116.547 95.0538 116.416 95.4899 116.168C95.926 115.919 96.29 115.562 96.5461 115.13L97.5295 113.452C97.6241 113.282 97.6734 113.091 97.6726 112.897C97.6719 112.703 97.621 112.512 97.5251 112.343C97.4291 112.175 97.2912 112.034 97.1248 111.934C96.9584 111.834 96.769 111.779 96.575 111.773Z" fill="black"/>
<path d="M111.413 110.414C112.787 110.158 114.028 109.429 114.921 108.353C115.814 107.278 116.303 105.924 116.303 104.525C116.303 103.127 115.814 101.773 114.921 100.698C114.028 99.6222 112.787 98.8933 111.413 98.6373C110.039 98.8933 108.797 99.6222 107.904 100.698C107.011 101.773 106.522 103.127 106.522 104.525C106.522 105.924 107.011 107.278 107.904 108.353C108.797 109.429 110.039 110.158 111.413 110.414Z" fill="black"/>
<path d="M79.9441 110.414C81.3181 110.158 82.5594 109.429 83.4526 108.353C84.3459 107.278 84.8349 105.924 84.8349 104.525C84.8349 103.127 84.3459 101.773 83.4526 100.698C82.5594 99.6222 81.3181 98.8933 79.9441 98.6373C78.57 98.8933 77.3288 99.6222 76.4356 100.698C75.5423 101.773 75.0533 103.127 75.0533 104.525C75.0533 105.924 75.5423 107.278 76.4356 108.353C77.3288 109.429 78.57 110.158 79.9441 110.414Z" fill="black"/>
<path d="M98.1968 121.293C97.2353 121.185 97.2029 121.103 96.3742 120.603C95.5455 120.104 94.8345 119.431 94.29 118.631C93.6308 119.447 92.7842 120.091 91.8223 120.51C90.8605 120.928 89.8118 121.107 88.7657 121.032C85.0057 120.483 82.981 115.68 82.8075 115.477C82.76 115.369 82.7343 115.252 82.7319 115.134C82.7294 115.016 82.7503 114.898 82.7933 114.788C82.8362 114.678 82.9005 114.577 82.9823 114.492C83.0642 114.407 83.162 114.338 83.2703 114.291C83.3785 114.243 83.4951 114.218 83.6132 114.215C83.7314 114.213 83.8489 114.234 83.959 114.277C84.0692 114.32 84.1697 114.384 84.255 114.466C84.3403 114.548 84.4086 114.645 84.4561 114.754C84.4561 114.754 86.2494 118.862 89.026 119.239C90.4722 119.441 91.9183 118.573 93.6537 116.634L94.4636 115.68L95.0999 116.721C95.6494 117.56 97.4716 119.615 99.2649 119.615C101.058 119.615 102.157 117.85 103.661 114.783C103.757 114.564 103.936 114.392 104.158 114.305C104.381 114.219 104.628 114.224 104.847 114.32C105.066 114.416 105.237 114.594 105.324 114.817C105.411 115.039 105.406 115.287 105.31 115.506C103.632 119.267 101.637 121.293 99.5252 121.293H98.1968Z" fill="black"/>
<path d="M88.7368 120.512C88.7368 120.512 94.0586 127.34 99.3516 120.512C97.8459 119.184 96.1616 118.073 94.3479 117.213L88.7368 120.512Z" fill="black"/>
<path d="M154.046 101.068C154.046 101.068 164.689 98.5794 163.706 96.2647C162.723 93.9499 155.029 86.7742 157.401 80.3508C164.342 61.2541 189.795 63.1637 195.493 78.6726C204.257 102.601 154.046 101.068 154.046 101.068Z" fill="white"/>
<path d="M45.2072 148.028C45.2072 148.028 37.8028 146.234 38.497 144.614C39.1911 142.994 43.7032 138.133 42.8933 133.359C40.001 116.634 20.3331 121.235 16.3706 132.201C10.2678 149.099 45.2072 148.028 45.2072 148.028Z" fill="white"/>
<path d="M77.7748 175.632C77.7748 175.632 98.5129 199.097 127.234 175.632H77.7748Z" fill="#85ACE5"/>
<path d="M123.213 152.339C95.7073 160.007 70.0523 152.339 70.9779 164.868C71.9034 177.397 98.0501 188.797 118.123 179.972C154.913 163.826 123.213 152.339 123.213 152.339Z" fill="white"/>
<path d="M63.6313 160.933C58.1937 152.773 52.7851 149.359 53.8841 140.158L52.4669 140.332C51.9457 140.379 51.4389 140.529 50.9759 140.773C50.5129 141.017 50.1029 141.35 49.7694 141.754C49.4359 142.157 49.1857 142.623 49.0331 143.124C48.8805 143.625 48.8286 144.151 48.8804 144.672L50.0373 155.088C51.697 156.305 53.4809 157.343 55.3592 158.184C60.5076 160.557 59.4374 173.606 52.1487 173.867V174.474C52.2651 175.51 52.7871 176.457 53.6004 177.108C54.4137 177.759 55.4519 178.06 56.4872 177.946L61.6067 177.397C63.9784 171.002 67.3913 164.752 63.6313 160.933Z" fill="#0F0D0E"/>
<path d="M56.1207 142.209L52.728 142.58C51.537 142.711 50.6772 143.782 50.8074 144.974L50.8294 145.175C50.9596 146.366 52.0306 147.226 53.2216 147.096L56.6143 146.725C57.8052 146.595 58.6651 145.523 58.5349 144.332L58.5129 144.131C58.3827 142.939 57.3117 142.079 56.1207 142.209Z" fill="#AAA9A9"/>
<path d="M60.4787 145.048C60.9419 145.048 61.3174 144.672 61.3174 144.209C61.3174 143.745 60.9419 143.37 60.4787 143.37C60.0154 143.37 59.6399 143.745 59.6399 144.209C59.6399 144.672 60.0154 145.048 60.4787 145.048Z" fill="#AAA9A9"/>
</g>
<defs>
<clipPath id="clip0_342_1645">
<rect width="209" height="205" fill="white"/>
</clipPath>
</defs>
</svg>
