<svg width="70" height="50" viewBox="0 0 70 50" fill="none" xmlns="http://www.w3.org/2000/svg">
<path d="M0 4.81173C12.6846 -3.21441 32.9082 4.0421 53.6105 0.193952C55.8842 -0.245837 58.2775 0.0840054 60.3118 0.963583C62.3461 1.84316 64.1411 3.38242 65.0985 5.36147C71.3211 18.6651 70.1245 32.1886 69.4065 39.9948C68.2098 41.754 67.0131 48.021 38.8916 45.822C10.77 43.6231 7.29965 50 7.29965 50L0 4.81173Z" fill="#FF6969"/>
<path d="M32.0706 12.1777L36.0196 17.0153C36.1392 17.2352 36.3786 17.3452 36.6179 17.5651C36.8572 17.785 37.2162 17.785 37.4555 17.675H44.5159C44.8749 17.675 45.1142 17.675 45.4732 17.8949C45.7125 18.0049 45.9519 18.2248 46.1912 18.5546C46.3109 18.7745 46.4306 19.1043 46.3109 19.4342C46.3109 19.764 46.1912 19.9839 45.9519 20.2038L41.6439 25.0415C41.4045 25.2614 41.2849 25.4813 41.2849 25.7012C41.2849 25.9211 41.2849 26.2509 41.2849 26.4708L43.3192 32.0781C43.4389 32.4079 43.4389 32.7378 43.3192 32.9577C43.1996 33.2875 43.0799 33.5074 42.8405 33.7273C42.6012 33.9472 42.2422 34.0571 42.0029 34.1671C41.6439 34.1671 41.2849 34.1671 41.0455 34.0571L34.4639 32.0781C34.2246 31.9682 33.8656 31.9681 33.5066 31.9681C33.1476 31.9681 32.9082 32.0781 32.6689 32.298L27.0446 35.7063C26.8053 35.9262 26.4462 36.0362 26.0872 36.0362C25.7283 36.0362 25.3693 36.0362 25.1299 35.9262C24.7709 35.8163 24.5316 35.5964 24.4119 35.3765C24.2923 35.1566 24.1726 34.8268 24.1726 34.4969L24.4119 28.5598C24.4119 28.3399 24.4119 28.0101 24.2923 27.7902C24.1726 27.5703 23.9333 27.3504 23.6939 27.2404L18.0696 23.8321C17.8303 23.6122 17.591 23.3923 17.4713 23.1724C17.3516 22.9525 17.3516 22.6226 17.3516 22.2928C17.4713 21.963 17.5909 21.7431 17.8303 21.5232C18.0696 21.3033 18.309 21.1933 18.668 21.0834L25.3693 19.3242C25.6086 19.2143 25.8479 19.1043 26.0872 18.9944C26.3266 18.7745 26.4463 18.5546 26.5659 18.3347L28.8396 12.6175C28.9593 12.2876 29.1986 12.0677 29.4379 11.9578C29.6773 11.7379 30.0362 11.6279 30.2756 11.6279C30.6346 11.6279 30.8739 11.6279 31.2329 11.7379C31.5919 11.8478 31.9509 11.9578 32.0706 12.1777Z" fill="#FFCE71"/>
<path d="M51.3369 4.81169L52.4139 6.13106L52.5335 6.241H52.6532H54.5679C54.6875 6.241 54.6875 6.241 54.8072 6.241C54.9268 6.241 54.9269 6.35095 54.9269 6.35095C54.9269 6.4609 54.9269 6.4609 54.9269 6.57084C54.9269 6.68079 54.9268 6.68079 54.8072 6.68079L53.6105 8.00016V8.11011V8.22005L54.2088 9.86926C54.2088 9.97921 54.2088 9.97921 54.2088 10.0892C54.2088 10.1991 54.2089 10.1991 54.0892 10.1991C54.0892 10.1991 53.9695 10.309 53.8499 10.309C53.7302 10.309 53.7302 10.309 53.6105 10.309L51.8155 9.75931H51.6959C51.5762 9.75931 51.5762 9.75931 51.5762 9.75931L50.0205 10.7488C50.0205 10.7488 49.9009 10.8588 49.7812 10.8588C49.6615 10.8588 49.6615 10.8588 49.5419 10.8588C49.4222 10.8588 49.4222 10.7488 49.4222 10.7488C49.4222 10.7488 49.4222 10.6389 49.4222 10.5289V8.87974V8.76979L49.3026 8.65984L47.7469 7.67032L47.6272 7.56037C47.6272 7.56037 47.6272 7.45042 47.6272 7.34048C47.6272 7.23053 47.6272 7.23053 47.7469 7.23053C47.7469 7.23053 47.8666 7.12058 47.9862 7.12058L49.9009 6.68079C49.9009 6.68079 50.0205 6.68079 50.0205 6.57084L50.1402 6.4609L50.7385 4.81169L50.8582 4.70175L50.9779 4.5918H51.0975C51.2172 4.70174 51.2172 4.70174 51.3369 4.81169Z" fill="#FFCE71"/>
<path d="M59.3545 13.7168L60.4315 15.0362L60.5512 15.1462H60.6708H62.5855C62.7051 15.1462 62.7051 15.1462 62.8248 15.1462C62.9445 15.1462 62.9445 15.2561 62.9445 15.2561C62.9445 15.366 62.9445 15.366 62.9445 15.476C62.9445 15.5859 62.9445 15.5859 62.8248 15.6959L61.6281 17.0152V17.1252V17.2351L62.2265 18.8844C62.2265 18.9943 62.2265 18.9943 62.2265 19.1042C62.2265 19.2142 62.2265 19.2142 62.1068 19.2142C62.1068 19.2142 61.9872 19.3241 61.8675 19.3241C61.7478 19.3241 61.7478 19.3241 61.6281 19.3241L59.8332 18.7744H59.7135C59.5938 18.7744 59.5938 18.7744 59.5938 18.7744L58.0382 19.7639C58.0382 19.7639 57.9185 19.8739 57.7988 19.8739C57.6791 19.8739 57.6792 19.8739 57.5595 19.8739C57.4398 19.8739 57.4398 19.7639 57.4398 19.7639C57.4398 19.7639 57.4398 19.654 57.4398 19.544V18.0048V17.8948C57.4398 17.8948 57.4398 17.7849 57.3202 17.7849L55.7645 16.7954C55.6448 16.7954 55.6448 16.7954 55.5252 16.6854C55.5252 16.5755 55.4055 16.5755 55.4055 16.4655C55.4055 16.3556 55.4055 16.3556 55.5252 16.2456C55.6448 16.2456 55.6448 16.1357 55.7645 16.1357L57.6792 15.6959C57.6792 15.6959 57.7988 15.6959 57.7988 15.5859L57.9185 15.476L58.5168 13.8268L58.6365 13.7168C58.6365 13.7168 58.7562 13.7168 58.8758 13.7168C58.9955 13.7168 58.9955 13.7168 59.1152 13.7168C59.2348 13.6069 59.3545 13.7168 59.3545 13.7168Z" fill="#FFCE71"/>
<path d="M60.5512 25.8111L61.6282 27.1305L61.7478 27.2404H61.8675H63.7821C63.9018 27.2404 63.9018 27.2404 64.0215 27.2404L64.1412 27.3504C64.1412 27.3504 64.1412 27.4603 64.1412 27.5703C64.1412 27.6802 64.1412 27.6802 64.0215 27.7902L62.8248 29.1095V29.2195V29.3294L63.4232 30.9786C63.4232 31.0886 63.4232 31.0886 63.4232 31.1985C63.4232 31.3085 63.4231 31.3085 63.3035 31.3085L63.1838 31.4184C63.0641 31.4184 63.0642 31.4184 62.9445 31.4184L61.1495 30.8687H61.0298C60.9102 30.8687 60.9102 30.8687 60.9102 30.8687L59.3545 31.8582C59.3545 31.8582 59.2348 31.9682 59.1152 31.9682C58.9955 31.9682 58.9955 31.9682 58.8759 31.9682C58.7562 31.9682 58.7562 31.8582 58.7562 31.8582C58.7562 31.8582 58.7562 31.7483 58.7562 31.6383V29.9891V29.8792L58.6365 29.7692L57.0809 28.7797L56.9612 28.6697C56.9612 28.5598 56.9612 28.5598 56.9612 28.4499C56.9612 28.3399 56.9612 28.3399 57.0809 28.3399C57.0809 28.3399 57.2005 28.23 57.3202 28.23L59.2348 27.7902C59.2348 27.7902 59.3545 27.7902 59.3545 27.6802L59.4742 27.5703L60.0725 25.9211L60.1922 25.8111L60.3118 25.7012C60.4315 25.7012 60.4315 25.7012 60.5512 25.7012C60.5512 25.7012 60.5512 25.7012 60.5512 25.8111Z" fill="#FFCE71"/>
<path d="M56.1235 35.4869L57.2005 36.8063L57.3202 36.9162H57.4398H59.4742C59.5938 36.9162 59.5938 36.9162 59.7135 36.9162C59.8332 36.9162 59.8332 37.0262 59.8332 37.0262C59.8332 37.1361 59.8332 37.1361 59.8332 37.2461C59.8332 37.356 59.8332 37.356 59.7135 37.4659L58.5168 38.7853V38.8953V39.0052L59.1152 40.6544C59.1152 40.7644 59.1152 40.7644 59.1152 40.8743C59.1152 40.9843 59.1151 40.9843 58.9955 40.9843C58.9955 40.9843 58.8758 41.0942 58.7562 41.0942C58.6365 41.0942 58.6365 41.0942 58.5168 41.0942L56.7218 40.5445H56.6022C56.4825 40.5445 56.4825 40.5445 56.4825 40.5445L54.9268 41.534C54.9268 41.534 54.8072 41.6439 54.6875 41.6439C54.5679 41.6439 54.5678 41.6439 54.4482 41.6439C54.3285 41.6439 54.3285 41.534 54.3285 41.534C54.3285 41.534 54.3285 41.424 54.3285 41.3141V39.6649V39.5549L54.2088 39.445L52.6532 38.4555L52.5335 38.3455C52.5335 38.3455 52.5335 38.2356 52.5335 38.1256C52.5335 38.0157 52.5335 38.0157 52.6532 38.0157C52.6532 38.0157 52.7729 37.9057 52.8925 37.9057L54.8072 37.4659C54.8072 37.4659 54.9268 37.4659 54.9268 37.356L55.0465 37.2461L55.6448 35.5968L55.7645 35.4869C55.7645 35.4869 55.8842 35.4869 55.8842 35.377H56.0038C56.0038 35.377 56.0038 35.377 56.1235 35.4869Z" fill="#FFCE71"/>
<path d="M32.5493 25.7017C31.592 25.8116 30.6346 25.7017 29.7969 25.1519C29.4379 24.9321 29.1986 24.7122 29.438 24.2724C29.5576 24.0525 29.797 23.9425 30.0363 23.8326C30.2756 23.7226 30.515 23.8326 30.7543 23.9425C30.9936 24.0525 31.1133 24.1624 31.3526 24.1624C31.7116 24.2724 32.0706 24.2724 32.5493 24.1624C32.9083 24.0525 33.2673 23.8326 33.5066 23.6127C33.6263 23.5027 33.7459 23.3928 33.8656 23.3928C34.1049 23.2828 34.3443 23.1729 34.5836 23.2828C34.8229 23.2828 35.0623 23.3928 35.1819 23.6127C35.3016 23.8326 35.3016 23.9425 35.3016 24.1624C35.3016 24.3823 35.1819 24.4923 34.9426 24.6022C34.2246 25.1519 33.5066 25.4818 32.5493 25.7017Z" fill="black"/>
<path d="M24.771 24.6028C24.771 24.273 24.5316 23.8332 25.13 23.5034C25.7283 23.1735 26.4463 23.2835 26.6856 23.9431C26.8053 24.273 26.8053 24.7128 26.8053 25.0426C26.8053 25.4824 26.4463 25.8122 25.9676 25.8122C25.7283 25.8122 25.489 25.8122 25.3693 25.7023C25.13 25.5923 25.0103 25.4824 25.0103 25.2625C24.771 25.0426 24.771 24.8227 24.771 24.6028Z" fill="black"/>
<path d="M39.7293 22.7333C39.7293 22.9532 39.7292 23.0631 39.8489 23.283C39.8489 23.3929 39.8489 23.5029 39.8489 23.6128C39.8489 23.7228 39.7293 23.8327 39.7293 23.8327C39.6096 23.9427 39.6096 23.9427 39.4899 24.0526C39.3702 24.0526 39.2506 24.1626 39.1309 24.1626C38.8916 24.1626 38.6523 24.1626 38.5326 24.0526C38.2933 23.9427 38.1736 23.7228 38.1736 23.5029C38.0539 23.173 38.0539 22.8432 38.0539 22.5134C38.0539 21.9636 38.2932 21.7437 38.8916 21.6338C39.0112 21.6338 39.1309 21.6338 39.2506 21.6338C39.3702 21.6338 39.4899 21.7437 39.6096 21.7437C39.7292 21.8537 39.8489 21.8537 39.8489 21.9636C39.9686 22.0736 39.9686 22.1835 39.9686 22.2935C39.7292 22.4034 39.7293 22.6233 39.7293 22.7333Z" fill="black"/>
</svg>
