<?xml version="1.0" encoding="UTF-8"?><svg xmlns="http://www.w3.org/2000/svg" viewBox="0 0 70 50"><defs><style>.d{fill:#ffce71;}.e{fill:#ff6969;}</style></defs><g id="a"/><g id="b"><g id="c"><g><path class="e" d="M0,4.81C12.68-3.21,32.91,4.04,53.61,.19c2.27-.44,4.67-.11,6.7,.77,2.03,.88,3.83,2.42,4.79,4.4,6.22,13.3,5.03,26.83,4.31,34.63-1.2,1.76-2.39,8.03-30.51,5.83-28.12-2.2-31.59,4.18-31.59,4.18L0,4.81Z"/><path class="d" d="M32.07,12.18l3.95,4.84c.12,.22,.36,.33,.6,.55s.6,.22,.84,.11h7.06c.36,0,.6,0,.96,.22,.24,.11,.48,.33,.72,.66,.12,.22,.24,.55,.12,.88,0,.33-.12,.55-.36,.77l-4.31,4.84c-.24,.22-.36,.44-.36,.66v.77l2.03,5.61c.12,.33,.12,.66,0,.88-.12,.33-.24,.55-.48,.77-.24,.22-.6,.33-.84,.44-.36,0-.72,0-.96-.11l-6.58-1.98c-.24-.11-.6-.11-.96-.11s-.6,.11-.84,.33l-5.62,3.41c-.24,.22-.6,.33-.96,.33s-.72,0-.96-.11c-.36-.11-.6-.33-.72-.55-.12-.22-.24-.55-.24-.88l.24-5.94c0-.22,0-.55-.12-.77-.12-.22-.36-.44-.6-.55l-5.62-3.41c-.24-.22-.48-.44-.6-.66s-.12-.55-.12-.88c.12-.33,.24-.55,.48-.77,.24-.22,.48-.33,.84-.44l6.7-1.76c.24-.11,.48-.22,.72-.33,.24-.22,.36-.44,.48-.66l2.27-5.72c.12-.33,.36-.55,.6-.66,.24-.22,.6-.33,.84-.33,.36,0,.6,0,.96,.11,.36,.11,.72,.22,.84,.44Z"/><path class="d" d="M51.34,4.81l1.08,1.32,.12,.11h2.27c.12,0,.12,.11,.12,.11v.22q0,.11-.12,.11l-1.2,1.32v.22l.6,1.65v.22q0,.11-.12,.11s-.12,.11-.24,.11h-.24l-1.8-.55h-.24l-1.56,.99s-.12,.11-.24,.11h-.24c-.12,0-.12-.11-.12-.11v-1.98l-.12-.11-1.56-.99-.12-.11v-.22q0-.11,.12-.11s.12-.11,.24-.11l1.91-.44s.12,0,.12-.11l.12-.11,.6-1.65,.12-.11,.12-.11h.12l.24,.22Z"/><path class="d" d="M59.35,13.72l1.08,1.32,.12,.11h2.27c.12,0,.12,.11,.12,.11v.22q0,.11-.12,.22l-1.2,1.32v.22l.6,1.65v.22q0,.11-.12,.11s-.12,.11-.24,.11h-.24l-1.79-.55h-.24l-1.56,.99s-.12,.11-.24,.11h-.24c-.12,0-.12-.11-.12-.11v-1.87s0-.11-.12-.11l-1.56-.99q-.12,0-.24-.11c0-.11-.12-.11-.12-.22s0-.11,.12-.22c.12,0,.12-.11,.24-.11l1.91-.44s.12,0,.12-.11l.12-.11,.6-1.65,.12-.11h.48c.12-.11,.24,0,.24,0Z"/><path class="d" d="M60.55,25.81l1.08,1.32,.12,.11h2.27l.12,.11v.22q0,.11-.12,.22l-1.2,1.32v.22l.6,1.65v.22q0,.11-.12,.11l-.12,.11h-.24l-1.79-.55h-.24l-1.56,.99s-.12,.11-.24,.11h-.24c-.12,0-.12-.11-.12-.11v-1.98l-.12-.11-1.56-.99-.12-.11v-.22q0-.11,.12-.11s.12-.11,.24-.11l1.91-.44s.12,0,.12-.11l.12-.11,.6-1.65,.12-.11,.12-.11h.24v.11Z"/><path class="d" d="M56.12,35.49l1.08,1.32,.12,.11h2.39c.12,0,.12,.11,.12,.11v.22q0,.11-.12,.22l-1.2,1.32v.22l.6,1.65v.22q0,.11-.12,.11s-.12,.11-.24,.11h-.24l-1.79-.55h-.24l-1.56,.99s-.12,.11-.24,.11h-.24c-.12,0-.12-.11-.12-.11v-1.98l-.12-.11-1.56-.99-.12-.11v-.22q0-.11,.12-.11s.12-.11,.24-.11l1.91-.44s.12,0,.12-.11l.12-.11,.6-1.65,.12-.11s.12,0,.12-.11h.12l.12,.11Z"/><path d="M32.55,25.7c-.96,.11-1.91,0-2.75-.55-.36-.22-.6-.44-.36-.88,.12-.22,.36-.33,.6-.44,.24-.11,.48,0,.72,.11,.24,.11,.36,.22,.6,.22,.36,.11,.72,.11,1.2,0,.36-.11,.72-.33,.96-.55,.12-.11,.24-.22,.36-.22,.24-.11,.48-.22,.72-.11,.24,0,.48,.11,.6,.33,.12,.22,.12,.33,.12,.55s-.12,.33-.36,.44c-.72,.55-1.44,.88-2.39,1.1Z"/><path d="M24.77,24.6c0-.33-.24-.77,.36-1.1,.6-.33,1.32-.22,1.56,.44,.12,.33,.12,.77,.12,1.1,0,.44-.36,.77-.84,.77-.24,0-.48,0-.6-.11-.24-.11-.36-.22-.36-.44-.24-.22-.24-.44-.24-.66Z"/><path d="M39.73,22.73c0,.22,0,.33,.12,.55v.33c0,.11-.12,.22-.12,.22l-.24,.22c-.12,0-.24,.11-.36,.11-.24,0-.48,0-.6-.11-.24-.11-.36-.33-.36-.55-.12-.33-.12-.66-.12-.99,0-.55,.24-.77,.84-.88h.36c.12,0,.24,.11,.36,.11,.12,.11,.24,.11,.24,.22,.12,.11,.12,.22,.12,.33-.24,.11-.24,.33-.24,.44Z"/></g></g></g></svg>