<svg xmlns="http://www.w3.org/2000/svg" viewBox="0 0 72.26 76.76"><defs><style>.cls-1{fill:#fc5f6c;}.cls-2{opacity:0.75;}.cls-3{fill:#c64259;}.cls-4{fill:#fff;}.cls-5{fill:#85ace5;}.cls-6{fill:#e05353;}.cls-7{fill:#f4b571;}.cls-8{fill:#ff6969;}.cls-9{fill:#ffce71;}</style></defs><g id="Layer_2" data-name="Layer 2"><g id="Layer_1-2" data-name="Layer 1"><g id="china_flag" data-name="china flag"><ellipse class="cls-1" cx="36.13" cy="41.26" rx="36.13" ry="35.35"/><g class="cls-2"><path class="cls-3" d="M49,53.36A51.35,51.35,0,0,1,57.6,71.11S36,85.4,15.15,68.51c0,0,4.34-14.93,8.76-15.34S49,53.36,49,53.36Z"/><path class="cls-3" d="M12.25,58.06c-.58-5.12,4.3-7.32,7.87-1.79,1.21,1.88,6,3.26,5.3,3.6s.09,3.65,1.45,2,1.73,1.3,1.5,1.65a44.75,44.75,0,0,1-4.22,5c-1.4,1.26-3.83,0-3.83,0A12.23,12.23,0,0,1,12.25,58.06Z"/><path class="cls-3" d="M23.35,52.86a9,9,0,0,1-2.51-2.4c-1.83,7,20.53,10.91,29.55,3.85C41.86,57.54,27.26,55.37,23.35,52.86Z"/><path class="cls-3" d="M19.16,51.18a8.79,8.79,0,0,0,2.51,2.41c3.9,2.51,18.5,4.68,27,1.45a13.67,13.67,0,0,0,2.68-1.33,6.91,6.91,0,0,0,2.07-2.07c3.68-5.75-3.15-15.4-3.15-15.4S63.79,20.34,53,14.68c-4.14-2.16-7-.39-9,2.61l-.21.7c0-3.49-1.42-6.5-6.23-7-12.11-1.37-8.19,20.23-8.19,20.23s-7,1.93-7,8a8.61,8.61,0,0,0-3.54,3.4A8.15,8.15,0,0,0,19.16,51.18Zm16.66-6.07-.34.59a1,1,0,0,1-1.72,0l-.34-.59a.38.38,0,0,1,.33-.57h1.74A.38.38,0,0,1,35.82,45.11ZM40.62,40a2.07,2.07,0,1,1-1.68,2A1.89,1.89,0,0,1,40.62,40ZM29.74,40a2.07,2.07,0,0,1,0,4.07,2.07,2.07,0,0,1,0-4.07Z"/><path class="cls-3" d="M35.49,44.54H33.75a.38.38,0,0,0-.33.57l.34.59a1,1,0,0,0,1.72,0l.34-.59A.38.38,0,0,0,35.49,44.54Z"/><path class="cls-3" d="M40.62,44.06a2.07,2.07,0,1,0-1.68-2A1.88,1.88,0,0,0,40.62,44.06Z"/><path class="cls-3" d="M29.74,44.06a2.07,2.07,0,0,0,0-4.07,2.07,2.07,0,0,0,0,4.07Z"/><path class="cls-3" d="M36.36,47.86a2.31,2.31,0,0,1-1.66-1,2.28,2.28,0,0,1-1.91.83c-1.3-.19-2-1.85-2.06-1.92a.31.31,0,0,1,.57-.25s.63,1.42,1.58,1.55c.5.07,1-.23,1.6-.9l.28-.33.23.36c.18.29.81,1,1.43,1s1.06-.62,1.53-1.67a.3.3,0,0,1,.41-.16.31.31,0,0,1,.15.41c-.57,1.3-1.27,2-2,2Z"/></g><path class="cls-4" d="M46.94,53.36A51.35,51.35,0,0,1,55.5,71.11S33.94,85.4,13.05,68.51c0,0,4.34-14.93,8.75-15.34S46.94,53.36,46.94,53.36Z"/><path class="cls-4" d="M10.15,58.06c-.58-5.12,4.3-7.32,7.87-1.79,1.21,1.88,6,3.26,5.3,3.6s.09,3.65,1.45,2,1.73,1.3,1.5,1.65a44.75,44.75,0,0,1-4.22,5c-1.4,1.26-3.84,0-3.84,0A12.22,12.22,0,0,1,10.15,58.06Z"/><path class="cls-5" d="M21.25,52.86a9,9,0,0,1-2.51-2.4c-1.83,7,20.53,10.91,29.55,3.85C39.76,57.54,25.16,55.37,21.25,52.86Z"/><path class="cls-4" d="M17.05,51.18a9,9,0,0,0,2.52,2.41c3.9,2.51,18.5,4.68,27,1.45a13.67,13.67,0,0,0,2.68-1.33,6.91,6.91,0,0,0,2.07-2.07c3.68-5.75-3.16-15.4-3.16-15.4s13.5-15.9,2.65-21.56c-4.13-2.16-7-.39-9,2.61l-.21.7c0-3.49-1.42-6.5-6.23-7-12.11-1.37-8.19,20.23-8.19,20.23s-7,1.93-7,8a8.55,8.55,0,0,0-3.54,3.4A8.15,8.15,0,0,0,17.05,51.18Zm16.67-6.07-.34.59a1,1,0,0,1-1.72,0l-.34-.59a.38.38,0,0,1,.33-.57h1.74A.38.38,0,0,1,33.72,45.11ZM38.52,40a2.07,2.07,0,0,1,0,4.07,2.07,2.07,0,0,1,0-4.07ZM27.64,40a2.07,2.07,0,0,1,0,4.07,2.07,2.07,0,0,1,0-4.07Z"/><path d="M33.39,44.54H31.65a.38.38,0,0,0-.33.57l.34.59a1,1,0,0,0,1.72,0l.34-.59A.38.38,0,0,0,33.39,44.54Z"/><path d="M38.52,44.06a2.07,2.07,0,0,0,0-4.07,2.07,2.07,0,0,0,0,4.07Z"/><path d="M27.64,44.06a2.07,2.07,0,0,0,0-4.07,2.07,2.07,0,0,0,0,4.07Z"/><path d="M34.26,47.86a2.31,2.31,0,0,1-1.66-1,2.28,2.28,0,0,1-1.91.83c-1.3-.19-2-1.85-2.06-1.92a.31.31,0,0,1,.57-.25s.62,1.42,1.58,1.55c.5.07,1-.23,1.6-.9l.28-.33.22.36c.19.29.82,1,1.44,1s1-.62,1.52-1.67a.31.31,0,0,1,.41-.16.31.31,0,0,1,.16.41c-.58,1.3-1.27,2-2,2Z"/><path d="M30.68,47.55s1.84,2.36,3.67,0a7.81,7.81,0,0,0-1.73-1.14Z"/><path class="cls-5" d="M18.22,63.14a8.72,8.72,0,0,0,5.86,6c6.23,1.86,5.62-1,5.62-1Z"/><g class="cls-2"><rect class="cls-6" x="11.46" y="2.77" width="2.29" height="68.82" transform="matrix(0.99, -0.15, 0.15, 0.99, -5.39, 2.29)"/></g><rect class="cls-7" x="10.96" y="2.77" width="2.29" height="68.82" transform="matrix(0.99, -0.15, 0.15, 0.99, -5.39, 2.21)"/><g class="cls-2"><path class="cls-6" d="M8.62,5c7.24-5,18.74-.5,30.54-2.87a6,6,0,0,1,6.56,3.17c3.55,8.23,2.89,16.61,2.47,21.45-.67,1.08-1.33,4.94-17.38,3.58s-18,2.57-18,2.57Z"/></g><path class="cls-8" d="M8.12,3c7.24-5,18.74-.5,30.54-2.87a6,6,0,0,1,6.56,3.17c3.55,8.23,2.89,16.61,2.47,21.45-.67,1.08-1.33,4.94-17.38,3.58s-18,2.57-18,2.57Z"/><path class="cls-9" d="M26.41,7.61l2.22,3a1,1,0,0,0,.84.41l4,0a.93.93,0,0,1,.8,1.52l-2.47,3a.9.9,0,0,0-.18.87l1.19,3.5a1,1,0,0,1-1.35,1.21l-3.74-1.2a1.13,1.13,0,0,0-1,.14L23.5,22.2a1,1,0,0,1-1.63-.78L22,17.73a.9.9,0,0,0-.41-.79L18.41,14.8a.94.94,0,0,1,.34-1.69L22.6,12a1,1,0,0,0,.69-.62l1.29-3.53A1.07,1.07,0,0,1,26.41,7.61Z"/><path class="cls-9" d="M37.35,3l.61.84a.24.24,0,0,0,.18.09h1.11a.18.18,0,0,1,.16.31l-.68.82a.2.2,0,0,0,0,.18l.33,1a.21.21,0,0,1-.28.25l-1-.33a.21.21,0,0,0-.2,0l-.9.61a.21.21,0,0,1-.34-.16l0-1a.19.19,0,0,0-.08-.17l-.89-.59a.19.19,0,0,1,.07-.35l1.06-.3a.22.22,0,0,0,.15-.13l.36-1A.22.22,0,0,1,37.35,3Z"/><path class="cls-9" d="M41.94,8.55l.61.84a.23.23,0,0,0,.18.08h1.11a.19.19,0,0,1,.16.32l-.68.82a.17.17,0,0,0,0,.18l.33,1a.21.21,0,0,1-.28.25l-1-.33a.24.24,0,0,0-.2,0l-.9.61a.21.21,0,0,1-.34-.16l0-1a.21.21,0,0,0-.08-.16l-.89-.6A.19.19,0,0,1,40,10l1.06-.3a.22.22,0,0,0,.15-.13l.36-1A.22.22,0,0,1,41.94,8.55Z"/><path class="cls-9" d="M42.65,16l.62.84a.22.22,0,0,0,.17.09h1.11a.19.19,0,0,1,.17.31l-.69.82a.19.19,0,0,0,0,.18l.33,1a.22.22,0,0,1-.28.25l-1-.34a.24.24,0,0,0-.2,0l-.91.61a.21.21,0,0,1-.34-.16l0-1a.2.2,0,0,0-.09-.17l-.89-.59a.19.19,0,0,1,.07-.35l1.07-.3a.2.2,0,0,0,.14-.13l.36-1A.22.22,0,0,1,42.65,16Z"/><path class="cls-9" d="M40.07,22l.61.83a.21.21,0,0,0,.18.09H42a.19.19,0,0,1,.16.32l-.68.82a.17.17,0,0,0,0,.18l.33,1a.21.21,0,0,1-.28.25l-1-.33a.24.24,0,0,0-.2,0l-.9.61a.21.21,0,0,1-.34-.16l0-1a.18.18,0,0,0-.09-.16l-.88-.6a.19.19,0,0,1,.07-.35l1.06-.3a.24.24,0,0,0,.15-.13l.35-1A.23.23,0,0,1,40.07,22Z"/><path d="M26.68,15.93a2.25,2.25,0,0,1-1.59-.33c-.18-.14-.36-.27-.18-.53a.58.58,0,0,1,.77-.22A2.83,2.83,0,0,0,26,15a1.15,1.15,0,0,0,1.21-.31,1,1,0,0,1,.2-.16.57.57,0,0,1,.73.09.48.48,0,0,1-.12.65,2.59,2.59,0,0,1-1.33.64Z"/><path d="M22.21,15.27c0-.2-.16-.48.18-.69s.78-.11.86.3a4.18,4.18,0,0,1,.09.71c0,.28-.19.45-.49.48a.54.54,0,0,1-.58-.37A3.17,3.17,0,0,1,22.21,15.27Z"/><path d="M30.77,14.13c0,.12,0,.23.05.34a.47.47,0,0,1-.48.51.5.5,0,0,1-.58-.39,6,6,0,0,1-.09-.61c0-.31.13-.51.47-.56a.46.46,0,0,1,.59.39c0,.11,0,.21,0,.32Z"/><path class="cls-4" d="M26,59c-.58,0-10.35-7.91-10.33.45,0,5.27,12.17,10.79,14.61,9.76s1.09-9.7,1.09-9.7Z"/></g></g></g></svg>