<svg width="421" height="388" viewBox="0 0 421 388" fill="none" xmlns="http://www.w3.org/2000/svg">
<g opacity="0.75">
<path opacity="0.75" d="M206.679 271.686H197.648C197.296 271.689 196.952 271.783 196.648 271.959C196.344 272.135 196.092 272.388 195.915 272.69C195.739 272.993 195.644 273.336 195.64 273.688C195.638 274.038 195.726 274.384 195.897 274.69L197.648 277.748C198.152 278.469 198.823 279.059 199.606 279.465C200.387 279.872 201.254 280.084 202.137 280.084C203.018 280.084 203.885 279.872 204.668 279.465C205.449 279.059 206.12 278.469 206.625 277.748L208.43 274.69C208.602 274.384 208.69 274.038 208.686 273.688C208.684 273.336 208.588 272.993 208.411 272.69C208.235 272.388 207.982 272.135 207.678 271.959C207.375 271.783 207.03 271.689 206.679 271.686Z" fill="#C64259"/>
<path opacity="0.75" d="M233.39 269.229C235.607 269.691 237.913 269.457 239.993 268.557C242.07 267.656 243.817 266.135 244.992 264.202C246.167 262.269 246.713 260.02 246.553 257.765C246.394 255.51 245.536 253.359 244.1 251.611C242.663 249.863 240.719 248.601 238.535 248.002C236.35 247.403 234.034 247.494 231.904 248.265C229.773 249.036 227.935 250.447 226.643 252.303C225.351 254.16 224.666 256.371 224.687 258.632C224.457 261.183 225.24 263.724 226.867 265.705C228.494 267.687 230.837 268.952 233.39 269.229Z" fill="#C64259"/>
<path opacity="0.75" d="M176.739 269.228C179.082 268.617 181.155 267.248 182.635 265.336C184.115 263.422 184.918 261.074 184.918 258.658C184.918 256.243 184.115 253.894 182.635 251.982C181.155 250.07 179.082 248.701 176.739 248.089C174.396 248.701 172.323 250.07 170.843 251.982C169.363 253.894 168.56 256.243 168.56 258.658C168.56 261.074 169.363 263.422 170.843 265.336C172.323 267.248 174.396 268.617 176.739 269.228Z" fill="#C64259"/>
<path opacity="0.75" d="M211.223 289.001C209.502 288.834 207.836 288.305 206.336 287.448C204.835 286.592 203.535 285.426 202.52 284.03C201.335 285.502 199.808 286.664 198.072 287.415C196.337 288.168 194.445 288.487 192.558 288.345C186.099 287.362 182.048 278.568 181.885 278.568C181.794 278.375 181.744 278.166 181.736 277.953C181.729 277.74 181.764 277.528 181.841 277.329C181.918 277.129 182.034 276.949 182.182 276.796C182.33 276.642 182.509 276.52 182.705 276.438C182.899 276.348 183.109 276.297 183.322 276.29C183.536 276.283 183.748 276.318 183.948 276.395C184.147 276.471 184.329 276.586 184.482 276.734C184.635 276.884 184.758 277.061 184.84 277.257C184.84 277.257 188.124 284.63 193.05 285.341C195.678 285.724 198.524 284.139 201.425 280.644L202.848 278.95L204.052 280.808C204.982 282.337 208.157 286.269 211.497 285.942C214.835 285.614 216.97 282.774 219.488 277.257C219.571 277.061 219.692 276.884 219.846 276.734C219.999 276.586 220.181 276.471 220.381 276.395C220.58 276.318 220.792 276.283 221.005 276.29C221.22 276.297 221.429 276.348 221.622 276.438C222.01 276.616 222.312 276.939 222.466 277.336C222.619 277.735 222.61 278.176 222.443 278.568C219.432 285.341 215.82 288.892 211.497 289.165L211.223 289.001Z" fill="#C64259"/>
</g>
<path d="M110.619 306.207C114.11 311.212 118.555 315.481 123.701 318.769C144.062 331.824 220.144 343.076 264.588 326.252C269.468 324.49 274.132 322.182 278.491 319.37C282.885 316.557 286.619 312.83 289.438 308.447C308.595 278.568 273.018 228.426 273.018 228.426C273.018 228.426 343.297 145.73 286.811 116.288C265.3 105.091 250.357 114.267 240.067 129.89L238.973 133.549C238.973 115.36 231.583 99.6836 206.515 96.8979C143.296 89.9611 163.657 202.098 163.657 202.098C163.657 202.098 127.259 212.094 127.259 243.446C119.509 247.375 113.107 253.517 108.868 261.089C104.863 268.008 102.902 275.917 103.212 283.901C103.522 291.884 106.09 299.617 110.619 306.207ZM197.484 274.69L195.677 277.748C195.173 278.469 194.501 279.059 193.72 279.465C192.939 279.872 192.07 280.084 191.189 280.084C190.308 280.084 189.44 279.872 188.658 279.465C187.877 279.059 187.205 278.469 186.7 277.748L184.949 274.69C184.778 274.384 184.69 274.039 184.693 273.688C184.697 273.337 184.791 272.994 184.968 272.69C185.144 272.388 185.397 272.135 185.701 271.959C186.005 271.783 186.349 271.69 186.7 271.686H195.731C196.083 271.69 196.428 271.783 196.732 271.959C197.035 272.135 197.287 272.388 197.464 272.69C197.642 272.994 197.736 273.337 197.739 273.688C197.743 274.039 197.655 274.384 197.484 274.69Z" fill="white"/>
<path d="M195.731 271.687H186.7C186.349 271.69 186.004 271.784 185.701 271.96C185.397 272.136 185.144 272.388 184.968 272.691C184.791 272.994 184.697 273.337 184.693 273.689C184.689 274.039 184.777 274.385 184.949 274.691L186.7 277.749C187.205 278.47 187.876 279.06 188.657 279.466C189.439 279.873 190.307 280.085 191.188 280.085C192.069 280.085 192.938 279.873 193.719 279.466C194.5 279.06 195.173 278.47 195.677 277.749L197.483 274.691C197.653 274.385 197.742 274.039 197.739 273.689C197.735 273.337 197.641 272.994 197.464 272.691C197.287 272.388 197.035 272.136 196.731 271.96C196.427 271.784 196.083 271.69 195.731 271.687Z" fill="black"/>
<path d="M220.538 269.475C222.366 269.934 224.267 269.703 225.98 268.809C227.693 267.916 229.133 266.407 230.102 264.489C231.07 262.572 231.519 260.341 231.388 258.104C231.256 255.867 230.55 253.734 229.366 252C228.182 250.266 226.58 249.014 224.779 248.42C222.979 247.825 221.068 247.916 219.313 248.681C217.557 249.445 216.042 250.844 214.976 252.687C213.911 254.528 213.348 256.721 213.364 258.964C213.174 261.495 213.82 264.015 215.162 265.981C216.503 267.947 218.434 269.201 220.538 269.475Z" fill="black"/>
<path d="M166.301 267.068C168.129 267.527 170.03 267.295 171.743 266.401C173.456 265.509 174.896 263.999 175.865 262.082C176.833 260.164 177.283 257.933 177.151 255.696C177.019 253.459 176.313 251.326 175.129 249.592C173.945 247.858 172.343 246.607 170.542 246.013C168.742 245.418 166.831 245.51 165.076 246.273C163.32 247.037 161.805 248.437 160.739 250.279C159.674 252.12 159.111 254.313 159.127 256.556C158.938 259.088 159.583 261.607 160.925 263.573C162.266 265.539 164.197 266.794 166.301 267.068Z" fill="black"/>
<path d="M200.275 289.001C198.554 288.834 196.889 288.305 195.388 287.448C193.887 286.592 192.587 285.426 191.572 284.03C190.387 285.502 188.86 286.664 187.125 287.415C185.389 288.168 183.497 288.487 181.611 288.345C175.152 287.362 171.101 278.568 170.937 278.568C170.846 278.375 170.796 278.166 170.789 277.953C170.781 277.74 170.816 277.528 170.893 277.329C170.971 277.129 171.086 276.949 171.234 276.796C171.383 276.642 171.561 276.52 171.758 276.438C171.952 276.348 172.161 276.297 172.375 276.29C172.588 276.283 172.8 276.318 173 276.395C173.199 276.471 173.381 276.586 173.534 276.734C173.687 276.884 173.81 277.061 173.892 277.257C173.892 277.257 177.176 284.63 182.102 285.341C184.73 285.724 187.577 284.139 190.478 280.644L191.9 278.95L193.104 280.808C194.034 282.337 197.209 286.269 200.549 285.942C203.888 285.614 206.022 282.774 208.54 277.257C208.623 277.061 208.745 276.884 208.898 276.734C209.051 276.586 209.233 276.471 209.433 276.395C209.632 276.318 209.844 276.283 210.057 276.29C210.272 276.297 210.482 276.348 210.674 276.438C211.062 276.616 211.364 276.939 211.518 277.336C211.671 277.735 211.663 278.176 211.495 278.568C208.484 285.341 204.872 288.892 200.549 289.165L200.275 289.001Z" fill="black"/>
</svg>
