<svg width="508" height="243" viewBox="0 0 508 243" fill="none" xmlns="http://www.w3.org/2000/svg">
<g filter="url(#filter0_d_456_3453)">
<rect x="4" width="500" height="234.848" fill="#5C80BC"/>
</g>
<g clip-path="url(#clip0_456_3453)">
<path d="M275.32 150.878C277.992 150.878 280.158 148.705 280.158 146.026C280.158 143.346 277.992 141.174 275.32 141.174C272.648 141.174 270.482 143.346 270.482 146.026C270.482 148.705 272.648 150.878 275.32 150.878Z" fill="white"/>
<path d="M260.769 162.033C263.441 162.033 265.607 159.861 265.607 157.181C265.607 154.501 263.441 152.329 260.769 152.329C258.097 152.329 255.932 154.501 255.932 157.181C255.932 159.861 258.097 162.033 260.769 162.033Z" fill="white"/>
<path d="M265.683 63.0089C258.827 27.7089 292.956 2.37996 334.018 17.8906C362.891 7.04079 388.183 16.2096 398.43 34.8147C407.516 35.594 416.008 39.6655 422.319 46.2682C428.629 52.8709 432.326 61.5527 432.718 70.6905C433.11 79.8283 430.171 88.7966 424.449 95.9186C418.727 103.041 410.615 107.829 401.629 109.388C394.735 132.998 366.586 146.369 334.018 134.067C320.689 139.581 305.843 140.177 292.118 135.748C291.7 136.751 290.955 137.582 290.006 138.107C289.056 138.631 287.958 138.818 286.889 138.636C285.82 138.455 284.844 137.915 284.12 137.107C283.396 136.298 282.966 135.267 282.9 134.182C274.465 134.195 266.271 131.357 259.642 126.126C253.013 120.895 248.334 113.576 246.362 105.35C244.39 97.1243 245.239 88.4721 248.772 80.7899C252.305 73.1077 258.316 66.8437 265.835 63.0089H265.683Z" fill="white"/>
<path d="M255.322 158.709C253.102 159.986 250.784 161.085 248.39 161.994C220.088 172.768 172.703 166.426 156.4 158.174C147.944 171.851 129.546 205.279 136.136 233.97L169.694 233.473L274.672 234.848C280.995 210.054 265.95 175.671 256.465 161.268C256.137 160.392 255.756 159.537 255.322 158.709V158.709Z" fill="#506F9B"/>
<path d="M160.59 149.388C157.017 146.956 153.973 143.824 151.639 140.181C144.44 169.788 215.822 189.272 256.694 154.927C226.373 167.267 174.455 158.977 160.59 149.388Z" fill="#506F9B"/>
<path d="M263.169 20.8708C248.771 13.2301 238.753 19.4954 231.896 30.0014L231.135 32.4464C231.135 20.2213 226.183 9.52432 209.423 7.80516C167.218 3.02972 180.854 78.5581 180.854 78.5581C180.854 78.5581 156.476 85.3201 156.476 106.37C151.275 109.064 146.982 113.237 144.135 118.366C141.482 123.008 140.189 128.306 140.404 133.652C140.62 138.998 142.335 144.174 145.354 148.585C147.689 151.953 150.667 154.822 154.115 157.028C154.854 157.488 155.617 157.909 156.4 158.289C172.703 166.503 220.088 172.844 248.39 162.109C250.784 161.2 253.102 160.101 255.322 158.824C256.122 158.403 256.96 157.983 257.722 157.487C260.622 155.612 263.09 153.137 264.959 150.228C277.758 130.133 253.951 96.3991 253.951 96.3991C253.951 96.3991 300.993 40.6602 263.169 20.8708Z" fill="#4F6788" fill-opacity="0.85"/>
<path d="M189.044 123.943C189.217 122.291 188.741 120.636 187.717 119.331C186.692 118.025 185.201 117.172 183.559 116.952C181.917 117.172 180.425 118.025 179.401 119.331C178.377 120.636 177.901 122.291 178.074 123.943C177.9 125.6 178.375 127.259 179.398 128.571C180.422 129.883 181.914 130.744 183.559 130.973C185.208 130.753 186.706 129.894 187.731 128.58C188.757 127.266 189.228 125.602 189.044 123.943V123.943ZM217.384 130.973C215.739 130.744 214.247 129.883 213.223 128.571C212.2 127.259 211.725 125.6 211.899 123.943C211.725 122.291 212.201 120.636 213.226 119.331C214.25 118.025 215.742 117.172 217.384 116.952C219.025 117.172 220.517 118.025 221.541 119.331C222.566 120.636 223.042 122.291 222.869 123.943C223.053 125.602 222.581 127.266 221.556 128.58C220.531 129.894 219.033 130.753 217.384 130.973V130.973Z" fill="#506F9B"/>
<path d="M197.653 161.842C197.653 176.512 183.826 200.046 171.37 200.046C158.914 200.046 156.895 192.405 156.895 177.849C156.895 163.294 173.998 138.614 186.454 138.614C198.91 138.614 197.653 147.172 197.653 161.842Z" fill="#506F9B"/>
<path d="M195.977 166.12L188.816 188.354C188.816 188.354 199.938 170.513 199.367 156.302C198.529 135.443 185.806 137.773 185.806 137.773C185.806 137.773 203.328 142.319 195.977 166.12Z" fill="#506F9B"/>
<path d="M185.806 137.85C181.622 138.132 177.706 140.02 174.874 143.122C171.893 146.068 169.33 149.41 167.256 153.055C165.275 156.875 163.447 160.696 161.923 164.516C160.4 168.337 158.724 172.157 156.857 175.977H156.667C157.514 171.804 158.685 167.704 160.171 163.714C161.744 159.722 163.682 155.886 165.961 152.253C168.243 148.629 170.997 145.327 174.15 142.434C177.198 139.422 181.299 137.722 185.578 137.697L185.806 137.85Z" fill="#506F9B"/>
<path d="M202.909 137.239C201.433 136.732 199.916 136.348 198.376 136.093V133.342C198.768 133.261 199.139 133.101 199.466 132.871C199.794 132.641 200.071 132.346 200.281 132.005L201.309 130.171C201.409 129.991 201.459 129.789 201.457 129.583C201.454 129.378 201.398 129.176 201.294 128.999C201.191 128.822 201.043 128.674 200.865 128.572C200.687 128.469 200.486 128.415 200.281 128.414H194.948C194.743 128.415 194.542 128.469 194.364 128.572C194.187 128.674 194.039 128.822 193.935 128.999C193.831 129.176 193.775 129.378 193.772 129.583C193.77 129.789 193.821 129.991 193.92 130.171L194.986 132.005C195.19 132.344 195.461 132.637 195.782 132.867C196.103 133.097 196.467 133.259 196.853 133.342V135.864L193.844 135.52C193.74 135.509 193.636 135.52 193.537 135.551C193.439 135.583 193.347 135.634 193.269 135.702C193.19 135.77 193.126 135.853 193.081 135.947C193.036 136.04 193.01 136.142 193.006 136.246C192.995 136.344 193.005 136.444 193.034 136.538C193.063 136.633 193.111 136.72 193.176 136.795C193.24 136.871 193.319 136.932 193.407 136.975C193.496 137.019 193.593 137.043 193.691 137.048C196.637 137.276 199.55 137.827 202.376 138.691H202.643C202.826 138.698 203.007 138.639 203.15 138.523C203.294 138.408 203.391 138.244 203.423 138.062C203.456 137.881 203.421 137.693 203.327 137.535C203.233 137.377 203.084 137.258 202.909 137.201V137.239Z" fill="#506F9B"/>
<path d="M247.323 158.709C245.103 159.986 242.785 161.085 240.391 161.994C212.089 172.768 164.704 166.426 148.401 158.174C139.945 171.851 121.547 205.279 128.137 233.97L161.695 233.473L266.673 234.848C272.996 210.054 257.951 175.671 248.618 161.268C248.123 160.39 247.704 159.511 247.323 158.709Z" fill="white"/>
<path d="M152.553 149.388C149 146.945 145.97 143.814 143.64 140.181C136.441 169.788 207.823 189.272 248.618 154.927C218.374 167.267 166.456 158.977 152.553 149.388Z" fill="#85ACE5"/>
<path d="M255.17 20.8708C240.772 13.2301 230.754 19.4954 223.897 30.0014L223.136 32.4464C223.136 20.2213 218.184 9.52432 201.424 7.80516C159.181 3.02972 172.856 78.5581 172.856 78.5581C172.856 78.5581 148.477 85.3201 148.477 106.37C143.276 109.064 138.983 113.237 136.136 118.366C133.486 123.007 132.191 128.302 132.4 133.646C132.609 138.989 134.313 144.167 137.317 148.585C139.683 151.918 142.671 154.759 146.116 156.952C146.855 157.412 147.618 157.833 148.401 158.212C164.704 166.426 212.089 172.768 240.391 162.033C242.785 161.123 245.103 160.025 247.323 158.747C248.123 158.327 248.961 157.907 249.723 157.41C252.613 155.535 255.067 153.059 256.922 150.151C269.759 130.056 245.914 96.3227 245.914 96.3227C245.914 96.3227 292.994 40.6602 255.17 20.8708Z" fill="white"/>
<path d="M181.045 123.943C181.218 122.291 180.742 120.636 179.718 119.331C178.693 118.025 177.202 117.172 175.56 116.952C173.918 117.172 172.426 118.025 171.402 119.331C170.378 120.636 169.902 122.291 170.075 123.943C169.901 125.6 170.376 127.259 171.399 128.571C172.423 129.883 173.915 130.744 175.56 130.973C177.209 130.753 178.707 129.894 179.732 128.58C180.758 127.266 181.229 125.602 181.045 123.943V123.943ZM209.385 130.973C207.74 130.744 206.248 129.883 205.224 128.571C204.201 127.259 203.726 125.6 203.899 123.943C203.726 122.291 204.202 120.636 205.227 119.331C206.251 118.025 207.743 117.172 209.385 116.952C211.026 117.172 212.518 118.025 213.542 119.331C214.567 120.636 215.043 122.291 214.87 123.943C215.054 125.602 214.582 127.266 213.557 128.58C212.532 129.894 211.034 130.753 209.385 130.973V130.973Z" fill="black"/>
<path d="M189.654 161.842C189.654 176.512 175.827 200.046 163.333 200.046C150.839 200.046 148.896 192.405 148.896 177.849C148.896 163.294 165.999 138.614 178.455 138.614C190.911 138.614 189.654 147.172 189.654 161.842Z" fill="white"/>
<path d="M187.977 166.12L180.816 188.354C180.816 188.354 191.939 170.513 191.367 156.302C190.529 135.443 177.807 137.773 177.807 137.773C177.807 137.773 195.291 142.319 187.977 166.12Z" fill="#85ACE5"/>
<path d="M177.807 137.85C173.623 138.132 169.707 140.02 166.875 143.122C163.894 146.068 161.331 149.41 159.257 153.055C157.276 156.875 155.448 160.696 153.924 164.516C152.401 168.337 150.687 172.157 148.858 175.977C149.687 171.8 150.859 167.698 152.363 163.714C153.935 159.722 155.873 155.886 158.152 152.253C160.422 148.62 163.178 145.317 166.342 142.434C169.39 139.422 173.49 137.722 177.769 137.697L177.807 137.85Z" fill="#85ACE5"/>
<path d="M194.948 137.239C193.471 136.732 191.955 136.348 190.415 136.093V133.342C190.807 133.261 191.178 133.101 191.505 132.871C191.833 132.641 192.11 132.346 192.32 132.005L193.348 130.171C193.447 129.991 193.498 129.789 193.496 129.583C193.493 129.378 193.437 129.176 193.333 128.999C193.229 128.822 193.081 128.674 192.904 128.572C192.726 128.469 192.525 128.415 192.32 128.414H186.987C186.782 128.415 186.581 128.469 186.403 128.572C186.225 128.674 186.077 128.822 185.974 128.999C185.87 129.176 185.814 129.378 185.811 129.583C185.809 129.789 185.859 129.991 185.959 130.171L186.987 132.005C187.421 132.686 188.105 133.167 188.892 133.342V135.864C187.216 135.635 185.959 135.52 185.844 135.52C185.743 135.509 185.641 135.52 185.544 135.552C185.447 135.583 185.358 135.635 185.283 135.703C185.207 135.772 185.147 135.856 185.106 135.949C185.065 136.043 185.044 136.144 185.044 136.246C185.034 136.344 185.044 136.444 185.073 136.538C185.102 136.633 185.15 136.72 185.215 136.795C185.279 136.871 185.358 136.932 185.446 136.975C185.535 137.019 185.631 137.043 185.73 137.048C188.676 137.276 191.588 137.827 194.415 138.691H194.681C194.865 138.698 195.046 138.639 195.189 138.523C195.332 138.408 195.429 138.244 195.462 138.062C195.494 137.881 195.46 137.693 195.366 137.535C195.271 137.377 195.123 137.258 194.948 137.201V137.239Z" fill="black"/>
<path d="M282.519 87.0007V64.8809H285.148L296.575 81.614V64.8809H299.47V86.8479H296.88L285.452 70.1529V86.8479L282.519 87.0007Z" fill="black"/>
<path d="M311.468 93.2664C310.365 93.2952 309.266 93.1137 308.231 92.7316C307.465 92.507 306.753 92.1302 306.136 91.6237C305.659 91.1697 305.26 90.6406 304.955 90.0573C304.672 89.489 304.467 88.885 304.345 88.2617H307.164C307.319 88.7493 307.564 89.203 307.888 89.5989C308.222 90.032 308.671 90.3628 309.183 90.5539C309.9 90.8753 310.684 91.0194 311.468 90.9742C312.413 91.0191 313.351 90.7939 314.173 90.3247C314.808 89.8945 315.299 89.2821 315.582 88.5674C315.856 87.8476 315.998 87.0839 316.001 86.3134V84.5178C315.73 84.9257 315.424 85.3092 315.087 85.6639C314.597 86.1191 314.029 86.4816 313.411 86.7336C312.601 87.0605 311.732 87.2166 310.859 87.192C309.783 87.2062 308.717 86.9846 307.735 86.5426C306.868 86.0925 306.113 85.4528 305.526 84.6706C304.953 83.897 304.515 83.0315 304.231 82.111C303.928 81.16 303.774 80.1677 303.774 79.1693C303.774 78.1834 303.928 77.2036 304.231 76.2658C304.523 75.3366 304.96 74.4598 305.526 73.668C306.15 72.8521 306.96 72.1976 307.888 71.759C308.815 71.3204 309.834 71.1104 310.859 71.1466C311.732 71.122 312.601 71.2781 313.411 71.605C314.032 71.8693 314.6 72.2447 315.087 72.7129C315.442 73.0516 315.75 73.4372 316.001 73.859V73.859V71.4522H318.82V86.2752C318.87 87.2313 318.728 88.1877 318.4 89.0871C318.073 89.9865 317.568 90.8103 316.915 91.509C316.173 92.156 315.308 92.6453 314.371 92.9473C313.435 93.2494 312.448 93.3579 311.468 93.2664V93.2664ZM311.24 84.5942C312.18 84.6277 313.105 84.3453 313.868 83.7919C314.563 83.2406 315.101 82.5161 315.43 81.6907C315.782 80.83 315.963 79.9086 315.963 78.9783C315.959 78.0483 315.778 77.1276 315.43 76.2658C315.101 75.4405 314.563 74.716 313.868 74.1646C313.09 73.6423 312.176 73.3635 311.24 73.3635C310.304 73.3635 309.389 73.6423 308.611 74.1646C307.895 74.703 307.341 75.4304 307.012 76.2658C306.675 77.1299 306.507 78.0507 306.516 78.9783C306.504 79.9061 306.673 80.8274 307.012 81.6907C307.341 82.5262 307.895 83.2536 308.611 83.7919C309.374 84.3453 310.299 84.6277 311.24 84.5942Z" fill="black"/>
<path d="M328.114 87.3062C327.413 87.3491 326.71 87.2418 326.054 86.9915C325.397 86.7412 324.801 86.3536 324.305 85.8545C323.812 85.3085 323.433 84.6688 323.19 83.9731C322.948 83.2775 322.848 82.5402 322.895 81.8049V71.2607H325.714V81.6521C325.685 82.0892 325.744 82.5278 325.888 82.9414C326.032 83.3551 326.258 83.7352 326.552 84.0589C327.166 84.614 327.974 84.9025 328.8 84.8612C329.625 84.9101 330.438 84.6516 331.085 84.1353C331.664 83.628 332.087 82.9653 332.304 82.2252C332.575 81.4649 332.717 80.6641 332.723 79.8565V71.2607H335.504V87.0006H332.799V84.7466H332.609C332.149 85.6416 331.414 86.3648 330.514 86.8096C329.769 87.1773 328.943 87.3483 328.114 87.3062V87.3062Z" fill="black"/>
<path d="M340.341 92.8084H338.703V90.4016C339.223 90.4336 339.745 90.4336 340.265 90.4016C341.268 90.4443 342.261 90.192 343.122 89.6757C343.951 89.0747 344.597 88.2547 344.988 87.3071L338.932 71.2998H341.865L346.398 83.6013L350.931 71.2998H353.902L347.845 87.0396C347.272 88.8024 346.248 90.3834 344.874 91.6241C343.532 92.504 341.941 92.9199 340.341 92.8084Z" fill="black"/>
<path d="M363.272 87.3065C362.117 87.3352 360.971 87.1 359.92 86.6189C359.021 86.1675 358.239 85.5137 357.635 84.7087C357.023 83.9344 356.558 83.0538 356.263 82.1109C355.988 81.1415 355.847 80.1388 355.844 79.131C355.834 78.1347 355.975 77.1427 356.263 76.1893C356.532 75.232 356.985 74.3365 357.596 73.5533C358.203 72.7602 358.986 72.1194 359.882 71.6813C360.94 71.1501 362.108 70.8735 363.291 70.8735C364.475 70.8735 365.642 71.1501 366.7 71.6813C367.756 72.3482 368.601 73.3021 369.138 74.4319C369.779 75.8583 370.079 77.415 370.014 78.9782V80.1625H358.587C358.639 81.0125 358.859 81.8436 359.234 82.6075C359.594 83.3297 360.131 83.9478 360.796 84.4031C361.641 85.0057 362.681 85.2693 363.71 85.142C364.739 85.0148 365.683 84.5059 366.357 83.7154C366.693 83.3221 366.952 82.8684 367.119 82.3783H369.786C369.589 82.9887 369.36 83.588 369.1 84.1738C368.793 84.7234 368.408 85.2253 367.957 85.6638C367.412 86.2164 366.765 86.6576 366.053 86.9627C365.159 87.2649 364.213 87.3819 363.272 87.3065V87.3065ZM358.358 69.0453L361.939 64.6518H364.339L367.919 69.0453H365.367L363.12 66.2946L360.91 69.0453H358.358ZM365.177 63.5057C364.702 63.5124 364.232 63.4077 363.805 63.2001C363.458 63.0152 363.138 62.7838 362.853 62.5124L362.129 61.863C362.023 61.7612 361.897 61.6818 361.76 61.6293C361.623 61.5768 361.476 61.5524 361.329 61.5574C361.172 61.5553 361.019 61.6019 360.889 61.6908C360.76 61.7797 360.661 61.9065 360.606 62.054C360.436 62.4516 360.357 62.8826 360.377 63.3147H358.511C358.454 62.7175 358.454 62.1163 358.511 61.5192C358.658 60.97 358.947 60.4694 359.349 60.0674C359.57 59.8678 359.829 59.7144 360.11 59.616C360.391 59.5176 360.689 59.4763 360.987 59.4944C361.45 59.4817 361.908 59.5868 362.32 59.8C362.675 59.976 363.007 60.194 363.31 60.4495C363.545 60.6995 363.799 60.9295 364.072 61.1371C364.268 61.3245 364.525 61.4332 364.796 61.4428C364.946 61.4372 365.091 61.387 365.213 61.2986C365.336 61.2102 365.429 61.0876 365.481 60.9461C365.655 60.5361 365.733 60.0919 365.71 59.6472H367.614C367.616 60.2531 367.539 60.8566 367.386 61.4428C367.26 62.0036 366.984 62.519 366.586 62.9327C366.2 63.2879 365.7 63.4914 365.177 63.5057V63.5057ZM358.701 77.7939H367.272C367.273 76.9239 367.05 76.0685 366.624 75.3106C366.262 74.693 365.734 74.1899 365.1 73.8589C364.5 73.5436 363.835 73.3736 363.158 73.3622C362.593 73.3407 362.03 73.4384 361.505 73.649C360.98 73.8595 360.505 74.1784 360.11 74.5848C359.284 75.4583 358.786 76.5927 358.701 77.7939V77.7939Z" fill="black"/>
<path d="M374.014 87.0012V71.2613H376.832V73.5536C377.04 73.2087 377.269 72.8769 377.518 72.5603C377.914 72.1056 378.392 71.7297 378.927 71.4524C379.653 71.1072 380.448 70.9371 381.251 70.9557C382.287 70.9229 383.308 71.2024 384.184 71.758C384.985 72.2808 385.62 73.0233 386.012 73.8974C386.467 74.8231 386.689 75.8459 386.66 76.8773V87.0012H383.841V77.0683C383.889 76.1105 383.577 75.1695 382.965 74.4322C382.652 74.0793 382.263 73.8029 381.827 73.6241C381.392 73.4453 380.921 73.3689 380.451 73.4007C379.668 73.3588 378.897 73.6031 378.28 74.0884C377.715 74.5457 377.292 75.1554 377.061 75.8458C376.783 76.5778 376.641 77.3547 376.642 78.138V87.0012H374.014Z" fill="black"/>
<path d="M395.687 81.3851V80.3536C395.653 79.4969 395.864 78.6481 396.297 77.9086C396.682 77.2489 397.171 76.6556 397.744 76.1513L399.497 74.6231C400.056 74.178 400.544 73.6498 400.944 73.0568C401.24 72.6207 401.436 72.1246 401.52 71.6037C401.603 71.0828 401.57 70.5499 401.425 70.0429C401.28 69.536 401.025 69.0674 400.678 68.6705C400.332 68.2736 399.902 67.9581 399.42 67.7465C398.789 67.4501 398.098 67.3061 397.402 67.3262C396.703 67.3236 396.012 67.4803 395.383 67.7847C394.73 68.0843 394.185 68.5777 393.821 69.1982C393.384 69.9639 393.173 70.8383 393.212 71.7197H390.431C390.395 70.3729 390.753 69.0451 391.459 67.8993C392.104 66.9035 393.015 66.1093 394.088 65.6071C395.15 65.111 396.306 64.8504 397.478 64.843C398.661 64.8145 399.835 65.0631 400.906 65.5689C401.931 66.0424 402.812 66.7808 403.458 67.7083C404.008 68.6067 404.33 69.6266 404.397 70.6789C404.463 71.7311 404.272 72.7836 403.839 73.7444C403.443 74.4645 402.943 75.1212 402.353 75.6928C401.744 76.2277 401.173 76.7625 400.563 77.221C400.031 77.6787 399.534 78.1768 399.078 78.7109C398.704 79.2199 398.503 79.8361 398.506 80.4683V81.4997L395.687 81.3851ZM397.173 87.3067C396.676 87.3097 396.198 87.1177 395.84 86.7718C395.511 86.4209 395.333 85.9543 395.345 85.4729C395.337 85.2343 395.377 84.9965 395.462 84.7734C395.547 84.5504 395.675 84.3466 395.84 84.174C396.012 83.9955 396.219 83.8555 396.449 83.7633C396.679 83.6711 396.926 83.6288 397.173 83.6391C397.415 83.624 397.658 83.6642 397.882 83.7569C398.106 83.8495 398.307 83.9922 398.468 84.174C398.645 84.3391 398.784 84.5407 398.876 84.7649C398.969 84.9891 399.011 85.2306 399.001 85.4729C399.009 85.7149 398.965 85.9557 398.873 86.1795C398.781 86.4033 398.643 86.6052 398.468 86.7718C398.3 86.9455 398.099 87.0827 397.876 87.1747C397.653 87.2667 397.414 87.3117 397.173 87.3067V87.3067Z" fill="black"/>
</g>
<defs>
<filter id="filter0_d_456_3453" x="0" y="0" width="508" height="242.849" filterUnits="userSpaceOnUse" color-interpolation-filters="sRGB">
<feFlood flood-opacity="0" result="BackgroundImageFix"/>
<feColorMatrix in="SourceAlpha" type="matrix" values="0 0 0 0 0 0 0 0 0 0 0 0 0 0 0 0 0 0 127 0" result="hardAlpha"/>
<feOffset dy="4"/>
<feGaussianBlur stdDeviation="2"/>
<feComposite in2="hardAlpha" operator="out"/>
<feColorMatrix type="matrix" values="0 0 0 0 0 0 0 0 0 0 0 0 0 0 0 0 0 0 0.25 0"/>
<feBlend mode="normal" in2="BackgroundImageFix" result="effect1_dropShadow_456_3453"/>
<feBlend mode="normal" in="SourceGraphic" in2="effect1_dropShadow_456_3453" result="shape"/>
</filter>
<clipPath id="clip0_456_3453">
<rect width="306.061" height="227.273" fill="white" transform="translate(126.727 7.57617)"/>
</clipPath>
</defs>
</svg>
