<svg width="203" height="188" viewBox="0 0 203 188" fill="none" xmlns="http://www.w3.org/2000/svg">
<g filter="url(#filter0_d_339_1452)">
<path d="M53.3711 148.487C55.0551 150.914 57.1999 152.984 59.6828 154.579C69.5062 160.91 106.214 166.366 127.657 158.207C130.012 157.353 132.262 156.234 134.365 154.87C136.485 153.506 138.287 151.699 139.647 149.573C148.889 135.085 131.724 110.769 131.724 110.769C131.724 110.769 165.632 70.668 138.379 56.3911C128.001 50.9613 120.791 55.4111 115.826 62.9866L115.298 64.761C115.298 55.9408 111.733 48.339 99.6383 46.9882C69.137 43.6244 78.9604 98.0024 78.9604 98.0024C78.9604 98.0024 61.3994 102.85 61.3994 118.053C57.6605 119.958 54.5716 122.937 52.526 126.608C50.594 129.963 49.648 133.799 49.7976 137.67C49.9471 141.542 51.186 145.292 53.3711 148.487ZM95.2811 133.204L94.4094 134.687C94.1663 135.037 93.8419 135.323 93.465 135.52C93.0882 135.717 92.669 135.82 92.2439 135.82C91.8188 135.82 91.4001 135.717 91.0227 135.52C90.6459 135.323 90.322 135.037 90.0783 134.687L89.2334 133.204C89.1508 133.056 89.1084 132.888 89.1101 132.718C89.1118 132.548 89.1572 132.381 89.2427 132.234C89.3276 132.088 89.4497 131.965 89.5962 131.88C89.7428 131.794 89.9091 131.749 90.0783 131.747H94.4356C94.6054 131.749 94.7717 131.794 94.9182 131.88C95.0648 131.965 95.1863 132.088 95.2718 132.234C95.3573 132.381 95.4026 132.548 95.4044 132.718C95.4061 132.888 95.3637 133.056 95.2811 133.204Z" fill="white"/>
</g>
<path d="M94.4354 131.747H90.0781C89.9089 131.749 89.7426 131.794 89.5961 131.88C89.4495 131.965 89.3274 132.088 89.2425 132.234C89.157 132.381 89.1117 132.548 89.1099 132.718C89.1082 132.888 89.1506 133.056 89.2332 133.204L90.0781 134.687C90.3218 135.037 90.6457 135.323 91.0225 135.52C91.3999 135.717 91.8186 135.82 92.2437 135.82C92.6688 135.82 93.088 135.717 93.4648 135.52C93.8417 135.323 94.1661 135.037 94.4092 134.687L95.2809 133.204C95.3629 133.056 95.4059 132.888 95.4042 132.718C95.4024 132.548 95.3571 132.381 95.2716 132.234C95.1861 132.088 95.0646 131.965 94.918 131.88C94.7715 131.794 94.6052 131.749 94.4354 131.747Z" fill="black"/>
<path d="M106.404 130.675C107.286 130.898 108.203 130.786 109.03 130.352C109.856 129.919 110.551 129.188 111.018 128.257C111.486 127.328 111.702 126.246 111.639 125.161C111.575 124.076 111.235 123.042 110.663 122.201C110.092 121.36 109.319 120.753 108.45 120.465C107.582 120.177 106.66 120.221 105.813 120.591C104.966 120.962 104.235 121.64 103.721 122.534C103.207 123.427 102.935 124.49 102.943 125.578C102.851 126.805 103.163 128.028 103.81 128.981C104.458 129.934 105.389 130.542 106.404 130.675Z" fill="black"/>
<path d="M80.236 129.507C81.118 129.73 82.0354 129.617 82.8617 129.184C83.6881 128.752 84.3831 128.019 84.8504 127.09C85.3178 126.16 85.5344 125.078 85.4712 123.993C85.4074 122.908 85.0666 121.874 84.4953 121.033C83.9244 120.192 83.1513 119.586 82.2822 119.297C81.4137 119.009 80.492 119.053 79.645 119.423C78.7981 119.794 78.0671 120.473 77.5528 121.366C77.0389 122.259 76.7672 123.322 76.7748 124.41C76.6838 125.638 76.9948 126.859 77.6424 127.813C78.2895 128.766 79.2208 129.375 80.236 129.507Z" fill="black"/>
<path d="M96.6277 140.144C95.7973 140.063 94.9937 139.806 94.2697 139.391C93.5457 138.975 92.9183 138.41 92.4287 137.733C91.857 138.447 91.1203 139.01 90.2829 139.375C89.4455 139.74 88.5325 139.894 87.6225 139.826C84.5062 139.349 82.5517 135.084 82.4726 135.084C82.429 134.991 82.4046 134.889 82.4011 134.786C82.3976 134.683 82.4145 134.58 82.4517 134.484C82.4889 134.387 82.5447 134.299 82.6162 134.225C82.6878 134.15 82.7738 134.091 82.8686 134.052C82.9622 134.008 83.0634 133.983 83.1664 133.98C83.2693 133.976 83.3716 133.993 83.4682 134.031C83.5641 134.067 83.6519 134.123 83.7258 134.195C83.7996 134.268 83.8589 134.354 83.8985 134.449C83.8985 134.449 85.4831 138.024 87.8597 138.369C89.1274 138.554 90.5009 137.786 91.9006 136.091L92.5868 135.27L93.1678 136.17C93.6167 136.912 95.1484 138.819 96.7597 138.66C98.3705 138.501 99.4004 137.124 100.615 134.449C100.655 134.354 100.714 134.268 100.788 134.195C100.862 134.123 100.95 134.067 101.046 134.031C101.142 133.993 101.244 133.976 101.347 133.98C101.451 133.983 101.552 134.008 101.645 134.052C101.832 134.138 101.978 134.295 102.052 134.487C102.126 134.68 102.122 134.894 102.041 135.084C100.588 138.369 98.8456 140.091 96.7597 140.223L96.6277 140.144Z" fill="black"/>
<defs>
<filter id="filter0_d_339_1452" x="45.7822" y="46.8383" width="107.196" height="123.481" filterUnits="userSpaceOnUse" color-interpolation-filters="sRGB">
<feFlood flood-opacity="0" result="BackgroundImageFix"/>
<feColorMatrix in="SourceAlpha" type="matrix" values="0 0 0 0 0 0 0 0 0 0 0 0 0 0 0 0 0 0 127 0" result="hardAlpha"/>
<feOffset dy="4"/>
<feGaussianBlur stdDeviation="2"/>
<feComposite in2="hardAlpha" operator="out"/>
<feColorMatrix type="matrix" values="0 0 0 0 0 0 0 0 0 0 0 0 0 0 0 0 0 0 0.35 0"/>
<feBlend mode="normal" in2="BackgroundImageFix" result="effect1_dropShadow_339_1452"/>
<feBlend mode="normal" in="SourceGraphic" in2="effect1_dropShadow_339_1452" result="shape"/>
</filter>
</defs>
</svg>
