<svg width="508" height="243" viewBox="0 0 508 243" fill="none" xmlns="http://www.w3.org/2000/svg">
<g filter="url(#filter0_d_456_3452)">
<rect x="4" width="500" height="234.848" fill="#5C80BC"/>
</g>
<g clip-path="url(#clip0_456_3452)">
<path d="M412.472 32.2139H194.623V176.196H412.472V32.2139Z" fill="#248959"/>
<g style="mix-blend-mode:multiply" opacity="0.77">
<g style="mix-blend-mode:multiply" opacity="0.77">
<path d="M412.472 32.2139H194.623V176.196H412.472V32.2139Z" fill="#156930"/>
</g>
</g>
<path d="M417.636 181.371H189.458V27.0381H417.636V181.371ZM199.787 171.02H407.307V37.3891H199.787V171.02Z" fill="#99684D"/>
<g style="mix-blend-mode:multiply" opacity="0.75">
<g style="mix-blend-mode:multiply" opacity="0.75">
<path d="M252.881 139.346C252.725 139.356 252.569 139.321 252.431 139.246C252.294 139.171 252.18 139.058 252.105 138.92C252.029 138.783 251.994 138.627 252.003 138.47C252.012 138.313 252.066 138.162 252.158 138.035L280.151 95.1819C280.199 95.0644 280.273 94.959 280.367 94.8734C280.461 94.7878 280.572 94.724 280.693 94.6866C280.815 94.6492 280.943 94.6391 281.068 94.6571C281.194 94.6751 281.314 94.7207 281.42 94.7906C281.526 94.8605 281.615 94.9531 281.681 95.0616C281.747 95.1701 281.789 95.292 281.802 95.4184C281.816 95.5448 281.801 95.6727 281.76 95.7928C281.719 95.913 281.651 96.0225 281.562 96.1135L253.604 138.967C253.522 139.083 253.414 139.178 253.288 139.244C253.162 139.31 253.023 139.345 252.881 139.346V139.346Z" fill="#506F9B"/>
</g>
</g>
<path d="M245.65 139.346C245.494 139.356 245.338 139.321 245.2 139.246C245.063 139.17 244.95 139.057 244.874 138.92C244.798 138.783 244.763 138.626 244.772 138.47C244.782 138.313 244.836 138.162 244.927 138.035L272.851 95.1818C272.978 94.9893 273.174 94.8533 273.399 94.8019C273.623 94.7505 273.859 94.7877 274.056 94.9057C274.152 94.9684 274.235 95.0496 274.299 95.1446C274.363 95.2396 274.407 95.3464 274.43 95.4588C274.452 95.5713 274.452 95.6871 274.429 95.7995C274.407 95.9118 274.362 96.0186 274.297 96.1134L246.373 138.966C246.292 139.083 246.183 139.178 246.058 139.243C245.932 139.309 245.792 139.345 245.65 139.346V139.346Z" fill="#2D1C18"/>
<path d="M116.532 154.424C145.902 165.569 196.172 158.082 209.497 149.421C212.903 147.258 215.852 144.444 218.174 141.141" fill="#A7C5EA"/>
<g style="mix-blend-mode:multiply" opacity="0.75">
<g style="mix-blend-mode:multiply" opacity="0.75">
<path d="M233.358 140.105C233.048 140.416 232.601 140.761 232.222 141.071C234.107 136.994 234.991 132.523 234.799 128.033C234.607 123.543 233.346 119.164 231.12 115.263C228.311 110.238 224.082 106.157 218.966 103.532C218.966 82.83 194.864 76.1018 194.864 76.1018C194.864 76.1018 208.361 1.57489 166.699 6.26733C150.137 8.1305 145.144 18.5505 145.248 30.5921L144.525 28.1769C137.638 17.8259 127.825 11.7188 113.536 19.1715C76.2811 38.7003 122.729 93.5605 122.729 93.5605C122.729 93.5605 99.2125 126.822 111.883 146.695C113.715 149.556 116.147 151.982 119.011 153.803C120.647 154.855 122.349 155.8 124.107 156.632C112.004 174.016 103.031 193.389 97.5942 213.873C97.5942 213.873 171.829 263.178 243.757 204.902C243.757 204.902 242.104 199.209 239.349 191.55C248.129 181.276 254.977 169.492 259.561 156.77C268.1 134.274 255.635 117.54 233.358 140.105Z" fill="#506F9B"/>
</g>
</g>
<path d="M226.128 140.105C225.818 140.416 225.37 140.761 224.991 141.071C226.877 136.994 227.76 132.523 227.569 128.033C227.377 123.543 226.115 119.164 223.89 115.263C221.08 110.238 216.852 106.157 211.735 103.532C211.735 82.83 187.633 76.1018 187.633 76.1018C187.633 76.1018 201.13 1.57489 159.468 6.26733C142.906 8.1305 137.914 18.5505 138.017 30.5921L137.26 28.1769C130.373 17.8259 120.595 11.7188 106.271 19.1715C69.0505 38.7003 115.499 93.5605 115.499 93.5605C115.499 93.5605 91.9819 126.822 104.653 146.695C106.484 149.556 108.917 151.982 111.78 153.803C113.412 154.862 115.115 155.808 116.876 156.632C104.773 174.016 95.8002 193.389 90.3636 213.873C90.3636 213.873 164.598 263.178 236.492 204.902C236.492 204.902 234.873 199.209 232.084 191.55C240.839 181.277 247.653 169.491 252.192 156.77C260.869 134.274 248.439 117.54 226.128 140.105Z" fill="white"/>
<path d="M164.598 122.405H170.555C170.789 122.406 171.019 122.467 171.221 122.584C171.424 122.7 171.593 122.868 171.711 123.07C171.83 123.273 171.893 123.502 171.896 123.737C171.898 123.971 171.84 124.202 171.726 124.406L170.555 126.408C170.252 126.931 169.818 127.365 169.295 127.666C168.772 127.968 168.18 128.127 167.577 128.127C166.973 128.127 166.381 127.968 165.858 127.666C165.335 127.365 164.901 126.931 164.598 126.408L163.428 124.406C163.314 124.202 163.255 123.971 163.258 123.737C163.26 123.502 163.324 123.273 163.442 123.07C163.56 122.868 163.729 122.7 163.932 122.584C164.135 122.467 164.364 122.406 164.598 122.405V122.405Z" fill="black"/>
<path d="M146.935 120.784C145.266 120.609 143.73 119.792 142.651 118.504C141.572 117.217 141.034 115.56 141.15 113.883C141.034 112.206 141.572 110.549 142.651 109.262C143.73 107.974 145.266 107.157 146.935 106.982C148.597 107.166 150.124 107.986 151.196 109.273C152.268 110.559 152.802 112.211 152.685 113.883C152.802 115.555 152.268 117.207 151.196 118.493C150.124 119.78 148.597 120.601 146.935 120.784V120.784Z" fill="black"/>
<path d="M184.396 120.784C182.728 120.609 181.192 119.792 180.113 118.504C179.034 117.217 178.496 115.56 178.612 113.883C178.496 112.206 179.034 110.549 180.113 109.262C181.192 107.974 182.728 107.157 184.396 106.982C186.059 107.166 187.586 107.986 188.658 109.273C189.73 110.559 190.263 112.211 190.146 113.883C190.263 115.555 189.73 117.207 188.658 118.493C187.586 119.78 186.059 120.601 184.396 120.784V120.784Z" fill="black"/>
<path d="M154.716 125.407C154.845 125.35 154.984 125.319 155.125 125.316C155.266 125.313 155.406 125.337 155.537 125.389C155.668 125.44 155.788 125.517 155.889 125.615C155.991 125.713 156.072 125.83 156.128 125.959C157.746 129.617 159.571 131.618 161.396 131.721C161.941 131.745 162.484 131.639 162.98 131.411L164.461 130.41C165.182 129.806 165.809 129.096 166.32 128.305L167.112 127.063L168.041 128.202C170.004 130.514 171.863 131.652 173.585 131.342C176.856 130.859 178.991 126.028 179.025 125.959C179.081 125.83 179.162 125.713 179.264 125.615C179.365 125.517 179.485 125.44 179.616 125.389C179.747 125.337 179.888 125.313 180.028 125.316C180.169 125.319 180.308 125.35 180.437 125.407C180.692 125.528 180.891 125.741 180.993 126.005C181.096 126.268 181.094 126.56 180.988 126.822C180.988 127.063 178.336 132.791 173.895 133.446H173.344C172.696 134.31 171.862 135.016 170.905 135.513C169.948 136.01 168.892 136.286 167.814 136.319C166.737 136.352 165.665 136.142 164.68 135.705C163.694 135.267 162.819 134.613 162.119 133.791H161.603H161.258C158.538 133.791 156.162 131.238 154.165 126.891C154.097 126.758 154.057 126.613 154.048 126.464C154.039 126.316 154.062 126.167 154.113 126.027C154.165 125.887 154.246 125.76 154.35 125.653C154.453 125.546 154.578 125.463 154.716 125.407V125.407Z" fill="black"/>
<path d="M198.135 155.632C196.172 134.516 177.2 151.146 171.519 156.598C165.115 150.56 147.417 135.896 145.661 156.356C145.37 159.833 145.673 163.333 146.556 166.707C147.006 168.696 147.955 170.537 149.314 172.056C150.673 173.574 152.397 174.719 154.321 175.382C156.246 176.046 158.307 176.206 160.311 175.847C162.314 175.488 164.193 174.622 165.769 173.332C168.292 171.459 170.431 169.116 172.07 166.431C173.673 168.866 175.675 171.013 177.992 172.78C179.585 174.036 181.47 174.868 183.47 175.195C185.471 175.523 187.521 175.337 189.43 174.655C191.34 173.972 193.045 172.816 194.387 171.293C195.728 169.77 196.662 167.931 197.102 165.948C198.006 162.589 198.355 159.104 198.135 155.632V155.632Z" fill="#FC5F6C"/>
</g>
<defs>
<filter id="filter0_d_456_3452" x="0" y="0" width="508" height="242.849" filterUnits="userSpaceOnUse" color-interpolation-filters="sRGB">
<feFlood flood-opacity="0" result="BackgroundImageFix"/>
<feColorMatrix in="SourceAlpha" type="matrix" values="0 0 0 0 0 0 0 0 0 0 0 0 0 0 0 0 0 0 127 0" result="hardAlpha"/>
<feOffset dy="4"/>
<feGaussianBlur stdDeviation="2"/>
<feComposite in2="hardAlpha" operator="out"/>
<feColorMatrix type="matrix" values="0 0 0 0 0 0 0 0 0 0 0 0 0 0 0 0 0 0 0.25 0"/>
<feBlend mode="normal" in2="BackgroundImageFix" result="effect1_dropShadow_456_3452"/>
<feBlend mode="normal" in="SourceGraphic" in2="effect1_dropShadow_456_3452" result="shape"/>
</filter>
<clipPath id="clip0_456_3452">
<rect width="327.273" height="227.273" fill="white" transform="translate(90.3636 6.06055)"/>
</clipPath>
</defs>
</svg>
