<?xml version="1.0" encoding="utf-8"?>
<!-- Generator: Adobe Illustrator 26.2.1, SVG Export Plug-In . SVG Version: 6.00 Build 0)  -->
<svg version="1.1" id="Layer_1" xmlns="http://www.w3.org/2000/svg" xmlns:xlink="http://www.w3.org/1999/xlink" x="0px" y="0px"
	 viewBox="0 0 41.7 33.6" style="enable-background:new 0 0 41.7 33.6;" xml:space="preserve">
<style type="text/css">
	.st0{fill:#FFFFFF;}
</style>
<path class="st0" d="M35.4,21.4c0,0.2,0,0.3-0.1,0.5l0,0.1c-0.6,1.8-1.6,3.4-2.8,4.8l-0.1,0.1c-0.1,0.2-0.3,0.3-0.6,0.4
	c-0.2,0.1-0.5,0.1-0.7,0l-2.9-1c-1,0.9-2.2,1.5-3.5,2l-0.6,3c0,0.2-0.2,0.4-0.3,0.6c-0.2,0.2-0.4,0.3-0.6,0.3l-0.1,0
	c-0.9,0.2-1.9,0.2-2.8,0.2h0c0.9,0,1.9-0.1,2.8-0.2l0.1,0c0.2,0,0.4-0.1,0.6-0.3c0.2-0.2,0.3-0.4,0.3-0.6l0.6-3
	c1.3-0.5,2.4-1.2,3.5-2l2.9,1c0.2,0.1,0.4,0.1,0.7,0c0.2-0.1,0.4-0.2,0.6-0.4l0.1-0.1c1.2-1.4,2.2-3.1,2.8-4.8l0-0.1
	C35.4,21.7,35.4,21.5,35.4,21.4L35.4,21.4z"/>
<path class="st0" d="M26.7,16.3c0-1.1-0.3-2.1-0.7-2.9c-1-1.9-3.1-3.2-5.4-3.2c-3.4,0-6.2,2.8-6.2,6.2c0,2.4,1.3,4.4,3.2,5.4
	c0.9,0.5,1.9,0.7,2.9,0.7C23.9,22.5,26.7,19.7,26.7,16.3z M16.6,16.3c0-1.1,0.4-2,1.2-2.8c0.7-0.7,1.7-1.2,2.8-1.2s2,0.4,2.8,1.2
	c0.4,0.4,0.7,0.8,0.9,1.3c0.2,0.5,0.3,1,0.3,1.5c0,1.1-0.4,2-1.2,2.8c-0.4,0.4-0.8,0.7-1.3,0.9c-0.5,0.2-1,0.3-1.5,0.3
	c-1.1,0-2-0.4-2.8-1.2c-0.4-0.4-0.7-0.8-0.9-1.3C16.7,17.3,16.6,16.8,16.6,16.3L16.6,16.3z"/>
<path class="st0" d="M23.4,32.1c0.2,0,0.4-0.1,0.6-0.3c0.2-0.2,0.3-0.4,0.3-0.6l0.6-3c1.3-0.5,2.5-1.2,3.5-2l2.9,1
	c0.2,0.1,0.4,0.1,0.7,0c0.2-0.1,0.4-0.2,0.6-0.4l0.1-0.1c1.2-1.4,2.2-3.1,2.8-4.8l0-0.1c0.1-0.2,0.1-0.3,0.1-0.5
	c0-0.3-0.2-0.5-0.4-0.7l-2.3-2l0,0c0.1-0.7,0.2-1.3,0.2-2c0-0.6,0-1.2-0.1-1.8c0-0.1,0-0.2,0-0.2c0,0,0,0,0,0l2.3-2
	c0.2-0.2,0.4-0.5,0.4-0.8c0-0.1,0-0.3-0.1-0.4l0-0.1c-0.6-1.8-1.6-3.4-2.8-4.8l-0.1-0.1c-0.1-0.2-0.3-0.3-0.6-0.4
	C31.6,6,31.4,6,31.2,6l-2.9,1c-1.1-0.9-2.2-1.5-3.5-2h0l-0.6-3c0,0,0,0,0-0.1c-0.1-0.2-0.2-0.4-0.3-0.6c-0.2-0.2-0.4-0.3-0.6-0.3
	l-0.1,0c-1.8-0.3-3.8-0.3-5.6,0l-0.1,0c-0.2,0-0.4,0.1-0.6,0.3S16.7,1.8,16.7,2l-0.6,3c-1.3,0.5-2.4,1.2-3.5,2L9.8,6
	C9.6,6,9.3,6,9.1,6C8.9,6.1,8.7,6.2,8.5,6.4L8.5,6.5c-1.2,1.4-2.2,3.1-2.8,4.8l0,0.1c-0.1,0.2-0.1,0.4,0,0.6c0,0.2,0.2,0.4,0.3,0.6
	c0,0,0,0,0,0l2.3,2v0c-0.1,0.7-0.2,1.3-0.2,2c0,0.7,0.1,1.3,0.2,2l-2.3,2c-0.2,0.1-0.3,0.3-0.4,0.6s0,0.5,0,0.7l0,0.1
	c0.6,1.8,1.6,3.4,2.8,4.8l0.1,0.1c0.2,0.2,0.4,0.3,0.7,0.4c0.2,0,0.4,0,0.6,0l2.9-1c0,0,0,0,0,0c1,0.9,2.2,1.5,3.5,2l0.6,3
	c0,0.2,0.2,0.4,0.3,0.6s0.4,0.3,0.6,0.3l0.1,0c0.9,0.2,1.9,0.2,2.8,0.2h0C21.4,32.4,22.4,32.3,23.4,32.1L23.4,32.1L23.4,32.1z
	 M22,29.8c-1,0.1-2,0.1-3,0l-0.6-3.4L17,25.8c-1-0.4-1.9-0.9-2.8-1.6l-1.1-0.9l-3.3,1.2c-0.6-0.8-1.1-1.7-1.5-2.6l2.7-2.3l-0.2-1.4
	c-0.1-0.5-0.1-1.1-0.1-1.6c0-0.5,0-1.1,0.1-1.6l0.2-1.4l-2.7-2.3c0.4-0.9,0.9-1.8,1.5-2.6l3.3,1.2L14.3,9C15.1,8.3,16,7.8,17,7.4
	l1.3-0.5L19,3.5c1-0.1,2-0.1,3,0l0.6,3.4l1.3,0.5c1,0.4,1.9,0.9,2.8,1.6l1.1,0.9l3.3-1.2c0.6,0.8,1.1,1.7,1.5,2.6L30,13.6l0.2,1.4
	c0.1,0.5,0.1,1.1,0.1,1.6c0,0.5,0,1.1-0.1,1.6L30,19.7l2.6,2.2c-0.4,0.9-0.9,1.8-1.5,2.6l-3.3-1.2l-1.1,0.9
	c-0.8,0.7-1.8,1.2-2.8,1.6l-1.3,0.5L22,29.8L22,29.8z"/>
</svg>
