<?xml version="1.0" encoding="utf-8"?>
<!-- Generator: Adobe Illustrator 26.2.1, SVG Export Plug-In . SVG Version: 6.00 Build 0)  -->
<svg version="1.1" id="Layer_1" xmlns="http://www.w3.org/2000/svg" xmlns:xlink="http://www.w3.org/1999/xlink" x="0px" y="0px"
	 viewBox="0 0 41.7 33.6" style="enable-background:new 0 0 41.7 33.6;" xml:space="preserve">
<style type="text/css">
	.st0{fill:#FFFFFF;}
</style>
<g>
	<path class="st0" d="M33.2,20.6c0,0.2,0,0.3-0.1,0.4v0.1c-0.5,1.5-1.3,2.8-2.3,4l-0.1,0.1c-0.1,0.2-0.3,0.3-0.5,0.3
		c-0.2,0.1-0.4,0.1-0.6,0l-2.4-0.8c-0.8,0.8-1.8,1.3-2.9,1.7l-0.5,2.5c0,0.2-0.2,0.3-0.3,0.5c-0.2,0.2-0.3,0.3-0.5,0.3h-0.1
		c-0.8,0.2-1.6,0.2-2.3,0.2l0,0c0.8,0,1.6-0.1,2.3-0.2H23c0.2,0,0.3-0.1,0.5-0.3c0.2-0.2,0.3-0.3,0.3-0.5l0.5-2.5
		c1.1-0.4,2-1,2.9-1.7l2.4,0.8c0.2,0.1,0.3,0.1,0.6,0c0.2-0.1,0.3-0.2,0.5-0.3l0.1-0.1c1-1.2,1.8-2.6,2.3-4V21
		C33.2,20.8,33.2,20.7,33.2,20.6L33.2,20.6z"/>
	<path class="st0" d="M25.9,16.3c0-0.9-0.3-1.8-0.6-2.4c-0.8-1.6-2.6-2.7-4.5-2.7c-2.8,0-5.2,2.3-5.2,5.2c0,2,1.1,3.7,2.7,4.5
		c0.8,0.4,1.6,0.6,2.4,0.6C23.6,21.5,25.9,19.2,25.9,16.3z M17.5,16.3c0-0.9,0.3-1.7,1-2.3c0.6-0.6,1.4-1,2.3-1s1.7,0.3,2.3,1
		c0.3,0.3,0.6,0.7,0.8,1.1c0.2,0.4,0.3,0.8,0.3,1.3c0,0.9-0.3,1.7-1,2.3c-0.3,0.3-0.7,0.6-1.1,0.8c-0.4,0.2-0.8,0.3-1.3,0.3
		c-0.9,0-1.7-0.3-2.3-1c-0.3-0.3-0.6-0.7-0.8-1.1C17.6,17.2,17.5,16.7,17.5,16.3L17.5,16.3z"/>
	<path class="st0" d="M23.2,29.5c0.2,0,0.3-0.1,0.5-0.3c0.2-0.2,0.3-0.3,0.3-0.5l0.5-2.5c1.1-0.4,2.1-1,2.9-1.7l2.4,0.8
		c0.2,0.1,0.3,0.1,0.6,0c0.2-0.1,0.3-0.2,0.5-0.3l0.1-0.1c1-1.2,1.8-2.6,2.3-4v-0.1c0.1-0.2,0.1-0.3,0.1-0.4c0-0.3-0.2-0.4-0.3-0.6
		l-1.9-1.7l0,0c0.1-0.6,0.2-1.1,0.2-1.7c0-0.5,0-1-0.1-1.5c0-0.1,0-0.2,0-0.2l0,0l1.9-1.7c0.2-0.2,0.3-0.4,0.3-0.7
		c0-0.1,0-0.3-0.1-0.3v-0.1c-0.5-1.5-1.3-2.8-2.3-4L30.9,8c-0.1-0.2-0.3-0.3-0.5-0.3c-0.4,0-0.6,0-0.8,0l-2.4,0.8
		c-0.9-0.8-1.8-1.3-2.9-1.7l0,0l-0.5-2.5c0,0,0,0,0-0.1c-0.1-0.2-0.2-0.3-0.3-0.5c-0.2-0.2-0.3-0.3-0.5-0.3H23
		c-1.5-0.3-3.2-0.3-4.7,0h-0.1c-0.2,0-0.3,0.1-0.5,0.3c-0.2,0.2-0.2,0.4-0.2,0.6l-0.5,2.5c-1.1,0.4-2,1-2.9,1.7l-2.3-0.8
		c-0.2,0-0.4,0-0.6,0c-0.2,0.1-0.3,0.2-0.5,0.3v0.1c-1,1.2-1.8,2.6-2.3,4v0.1c-0.1,0.2-0.1,0.3,0,0.5c0,0.2,0.2,0.3,0.3,0.5l0,0
		l1.9,1.7l0,0c-0.1,0.6-0.2,1.1-0.2,1.7s0.1,1.1,0.2,1.7l-1.9,1.7c-0.2,0.1-0.3,0.3-0.3,0.5s0,0.4,0,0.6v0.1c0.5,1.5,1.3,2.8,2.3,4
		l0.1,0.1c0.2,0.2,0.3,0.3,0.6,0.3c0.2,0,0.3,0,0.5,0l2.4-0.8l0,0c0.8,0.8,1.8,1.3,2.9,1.7l0.5,2.5c0,0.2,0.2,0.3,0.3,0.5
		c0.1,0.2,0.3,0.3,0.5,0.3h0.1c0.8,0.2,1.6,0.2,2.3,0.2l0,0C21.5,29.8,22.3,29.7,23.2,29.5L23.2,29.5L23.2,29.5z M22,27.6
		c-0.8,0.1-1.7,0.1-2.5,0L19,24.8l-1.2-0.5c-0.8-0.3-1.6-0.8-2.3-1.3l-0.9-0.8l-2.8,1c-0.5-0.7-0.9-1.4-1.3-2.2l2.3-1.9l-0.2-1.2
		c-0.1-0.4-0.1-0.9-0.1-1.3c0-0.4,0-0.9,0.1-1.3l0.2-1.2l-2.3-1.9c0.3-0.8,0.8-1.5,1.3-2.2l2.8,1l1-0.8c0.7-0.6,1.4-1,2.3-1.3
		l1.1-0.4l0.6-2.8c0.8-0.1,1.7-0.1,2.5,0l0.5,2.8l1.1,0.4c0.8,0.3,1.6,0.8,2.3,1.3l0.9,0.8l2.8-1c0.5,0.7,0.9,1.4,1.3,2.2l-2.2,1.9
		l0.2,1.2c0.1,0.4,0.1,0.9,0.1,1.3c0,0.4,0,0.9-0.1,1.3l-0.2,1.3l2.2,1.8c-0.3,0.8-0.8,1.5-1.3,2.2l-2.8-1l-0.9,0.8
		c-0.7,0.6-1.5,1-2.3,1.3l-1.1,0.4L22,27.6L22,27.6z"/>
</g>
</svg>
