<svg width="24" height="29" viewBox="0 0 24 29" fill="none" xmlns="http://www.w3.org/2000/svg">
<ellipse cx="21.5693" cy="20.7471" rx="2.39964" ry="2.3718" fill="#5C80BC"/>
<path d="M13.5043 1.9893C15.773 1.9893 15.3222 3.85799 14.8131 4.79233C17.2565 2.89489 18.5944 4.14548 18.9579 5.00795C20.1796 7.94036 14.3768 11.4046 11.3227 12.7702C9.92656 13.8052 11.759 14.6389 12.8498 14.9264C14.3768 15.142 19.8305 15.142 21.1394 20.1012C22.1865 24.0686 20.1214 26.9291 18.9579 27.8635C16.1947 27.9354 10.1447 28.036 8.05047 27.8635C5.95624 27.691 6.74158 26.3542 7.39603 25.7073C8.0941 24.3273 6.81433 21.5387 6.08718 20.3168C2.2478 20.3168 1.28792 17.8732 1.2879 16.6513C1.11339 12.339 4.41471 10.8296 6.08718 10.614C7.61423 5.22357 10.6683 1.9893 13.5043 1.9893Z" fill="#5C80BC" stroke="#5C80BC" stroke-width="2"/>
<path d="M8.26208 10.8296L14.8066 4.79225C15.6791 3.41229 15.1466 2.4413 14.5884 2.20483C10.9235 0.652377 7.82578 5.65474 5.64429 10.6139C6.34236 10.6139 7.68035 10.7577 8.26208 10.8296Z" fill="#5C80BC" stroke="#5C80BC" stroke-width="2"/>
<path d="M14.1521 19.8855C13.2068 19.6699 11.2289 20.0149 10.8798 23.1198V25.7072C10.4435 25.7072 9.52732 25.8797 9.3528 26.5697C9.13465 27.4321 10.0072 27.8634 10.4435 27.8634" stroke="#5C80BC" stroke-width="2" stroke-linecap="round"/>
<path d="M3.02637 18.3252C3.24452 18.4096 3.72444 18.4518 3.89896 17.9456" stroke="#5C80BC" stroke-width="2" stroke-linecap="round"/>
</svg>
