<svg width="28" height="28" viewBox="0 0 28 28" fill="none" xmlns="http://www.w3.org/2000/svg">
<path d="M12.9197 3.07151C13.293 2.08684 14.7058 2.08684 15.0803 3.07151L17.4953 9.76117C17.5796 9.97909 17.7279 10.1663 17.9208 10.2982C18.1137 10.43 18.342 10.5003 18.5757 10.4997H24.5105C25.6072 10.4997 26.0855 11.8647 25.2233 12.5332L21 16.333C20.8108 16.4784 20.6726 16.6801 20.6051 16.9089C20.5376 17.1378 20.5443 17.3822 20.6243 17.607L22.1667 24.1438C22.5423 25.1938 21.3267 26.0957 20.4073 25.4493L14.6708 21.8093C14.4744 21.6713 14.2401 21.5972 14 21.5972C13.7599 21.5972 13.5256 21.6713 13.3292 21.8093L7.59266 25.4493C6.6745 26.0957 5.45766 25.1927 5.83333 24.1438L7.37566 17.607C7.45567 17.3822 7.46241 17.1378 7.39492 16.9089C7.32743 16.6801 7.18918 16.4784 7 16.333L2.77666 12.5332C1.91333 11.8647 2.394 10.4997 3.48833 10.4997H9.42316C9.65684 10.5005 9.88524 10.4303 10.0782 10.2984C10.2711 10.1665 10.4194 9.97919 10.5035 9.76117L12.9185 3.07151H12.9197Z" stroke="#FF3333" stroke-width="2" stroke-linecap="round" stroke-linejoin="round"/>
</svg>
