<svg width="30" height="30" viewBox="0 0 30 30" fill="none" xmlns="http://www.w3.org/2000/svg">
<path d="M13.9484 3.43647C14.3334 2.41925 15.7903 2.41925 16.1765 3.43647L18.667 10.3473C18.7539 10.5724 18.9069 10.7658 19.1058 10.902C19.3047 11.0383 19.5402 11.1108 19.7811 11.1102H25.9014C27.0323 11.1102 27.5256 12.5203 26.6365 13.2109L22.2812 17.1364C22.0861 17.2866 21.9435 17.4949 21.8739 17.7313C21.8043 17.9678 21.8113 18.2202 21.8938 18.4525L23.4843 25.2054C23.8717 26.2901 22.6181 27.2218 21.67 26.5541L15.7542 22.7937C15.5517 22.6511 15.3101 22.5746 15.0624 22.5746C14.8148 22.5746 14.5732 22.6511 14.3707 22.7937L8.45488 26.5541C7.50803 27.2218 6.25317 26.2889 6.64057 25.2054L8.2311 18.4525C8.31361 18.2202 8.32056 17.9678 8.25097 17.7313C8.18137 17.4949 8.03879 17.2866 7.8437 17.1364L3.48838 13.2109C2.59807 12.5203 3.09376 11.1102 4.22229 11.1102H10.3426C10.5836 11.111 10.8191 11.0385 11.018 10.9023C11.217 10.766 11.3699 10.5725 11.4567 10.3473L13.9471 3.43647H13.9484Z" stroke="#FF3333" stroke-width="2" stroke-linecap="round" stroke-linejoin="round"/>
</svg>
