<svg width="209" height="205" viewBox="0 0 209 205" fill="none" xmlns="http://www.w3.org/2000/svg">
<g clip-path="url(#clip0_342_2806)">
<path d="M104.5 204.797C162.214 204.797 209 158.952 209 102.398C209 45.8453 162.214 0 104.5 0C46.7862 0 0 45.8453 0 102.398C0 158.952 46.7862 204.797 104.5 204.797Z" fill="#FC5F6C"/>
<g opacity="0.75">
<path opacity="0.75" d="M141.724 137.895C155.47 151.153 165.29 167.969 170.098 186.482C169.23 189.385 104.789 228.887 44.3973 181.809C44.3973 181.809 56.2559 138.505 69.04 137.344C81.8241 136.183 141.724 137.895 141.724 137.895Z" fill="#C64259"/>
<path opacity="0.75" d="M67.5359 136.415C64.6879 134.577 62.2224 132.201 60.2762 129.42C54.9832 149.737 119.656 161.086 145.745 140.624C121.073 149.882 78.845 143.584 67.5359 136.415Z" fill="#C64259"/>
<path opacity="0.75" d="M55.4171 131.394C57.3399 134.195 59.8098 136.575 62.6769 138.389C73.957 145.674 116.185 151.972 140.77 142.597C143.487 141.599 146.086 140.305 148.521 138.737C150.922 137.186 152.963 135.138 154.508 132.729C165.152 116.069 145.398 88.0313 145.398 88.0313C145.398 88.0313 184.502 41.8823 153.294 25.4545C141.319 19.2142 133.047 24.3225 127.263 33.0589L126.655 35.0906C126.655 24.932 122.548 16.1957 108.636 14.7735C73.6099 10.8261 84.9478 73.519 84.9478 73.519C84.9478 73.519 64.7015 79.0917 64.7015 96.5645C60.3987 98.7896 56.8394 102.23 54.4626 106.462C52.2842 110.292 51.2189 114.658 51.3876 119.065C51.5563 123.472 52.9522 127.743 55.4171 131.394ZM103.603 113.805L102.62 115.488C102.364 115.922 102 116.28 101.564 116.53C101.128 116.779 100.634 116.91 100.133 116.91C99.6307 116.91 99.1375 116.779 98.7014 116.53C98.2653 116.28 97.9013 115.922 97.6452 115.488L96.6618 113.805C96.5672 113.635 96.5179 113.443 96.5187 113.249C96.5194 113.054 96.5703 112.863 96.6662 112.693C96.7622 112.524 96.9001 112.383 97.0665 112.282C97.2329 112.182 97.4223 112.127 97.6163 112.122H102.649C102.846 112.118 103.041 112.168 103.213 112.266C103.384 112.364 103.527 112.507 103.624 112.679C103.722 112.851 103.772 113.047 103.768 113.245C103.764 113.443 103.707 113.637 103.603 113.805ZM117.487 98.9445C118.701 98.7109 119.958 98.8603 121.084 99.3723C122.211 99.8843 123.151 100.734 123.777 101.804C124.403 102.874 124.684 104.112 124.58 105.349C124.476 106.585 123.994 107.759 123.198 108.709C122.403 109.66 121.334 110.339 120.138 110.655C118.942 110.971 117.678 110.908 116.52 110.474C115.361 110.04 114.365 109.256 113.668 108.232C112.971 107.207 112.608 105.99 112.627 104.749C112.53 103.339 112.982 101.945 113.888 100.862C114.795 99.779 116.085 99.0916 117.487 98.9445ZM86.018 98.9445C87.3921 99.2013 88.6333 99.9325 89.5265 101.011C90.4198 102.09 90.9088 103.448 90.9088 104.851C90.9088 106.254 90.4198 107.612 89.5265 108.691C88.6333 109.769 87.3921 110.501 86.018 110.757C84.6439 110.501 83.4027 109.769 82.5095 108.691C81.6162 107.612 81.1272 106.254 81.1272 104.851C81.1272 103.448 81.6162 102.09 82.5095 101.011C83.4027 99.9325 84.6439 99.2013 86.018 98.9445Z" fill="#C64259"/>
<path opacity="0.75" d="M102.649 112.122H97.6163C97.4223 112.127 97.2329 112.182 97.0665 112.282C96.9001 112.383 96.7622 112.524 96.6663 112.693C96.5703 112.863 96.5195 113.054 96.5187 113.249C96.5179 113.443 96.5672 113.635 96.6618 113.805L97.6452 115.488C97.9013 115.922 98.2653 116.28 98.7014 116.53C99.1375 116.779 99.6308 116.91 100.133 116.91C100.634 116.91 101.128 116.779 101.564 116.53C102 116.28 102.364 115.922 102.62 115.488L103.603 113.805C103.707 113.637 103.764 113.443 103.768 113.245C103.772 113.047 103.722 112.851 103.624 112.679C103.527 112.507 103.384 112.364 103.213 112.266C103.041 112.168 102.846 112.118 102.649 112.122Z" fill="#C64259"/>
<path opacity="0.75" d="M117.487 110.757C118.701 110.991 119.958 110.842 121.084 110.33C122.21 109.818 123.151 108.968 123.777 107.898C124.403 106.828 124.684 105.59 124.58 104.353C124.476 103.117 123.994 101.943 123.198 100.993C122.403 100.042 121.334 99.3627 120.138 99.0467C118.942 98.7308 117.678 98.7942 116.52 99.2282C115.361 99.6622 114.365 100.445 113.668 101.47C112.971 102.495 112.608 103.712 112.627 104.953C112.53 106.363 112.982 107.757 113.888 108.84C114.795 109.923 116.085 110.61 117.487 110.757Z" fill="#C64259"/>
<path opacity="0.75" d="M86.018 110.757C87.3921 110.501 88.6333 109.769 89.5266 108.691C90.4198 107.612 90.9088 106.254 90.9088 104.851C90.9088 103.448 90.4198 102.09 89.5266 101.011C88.6333 99.9325 87.3921 99.2013 86.018 98.9445C84.6439 99.2013 83.4027 99.9325 82.5095 101.011C81.6162 102.09 81.1272 103.448 81.1272 104.851C81.1272 106.254 81.6162 107.612 82.5095 108.691C83.4027 109.769 84.6439 110.501 86.018 110.757Z" fill="#C64259"/>
</g>
<path d="M135.766 137.895C149.511 151.153 159.332 167.969 164.14 186.482C163.272 189.385 98.831 228.887 38.4102 181.809C38.4102 181.809 50.2976 138.505 63.0528 137.344C75.808 136.183 135.766 137.895 135.766 137.895Z" fill="white"/>
<path d="M61.4621 136.415C58.6141 134.577 56.1486 132.201 54.2023 129.42C48.9094 149.737 113.582 161.086 139.671 140.624C114.999 149.882 72.7711 143.584 61.4621 136.415Z" fill="#85ACE5"/>
<path d="M49.3143 131.394C51.2558 134.189 53.7338 136.567 56.603 138.389C67.8831 145.674 110.111 151.972 134.696 142.597C137.413 141.599 140.012 140.305 142.447 138.737C144.848 137.186 146.889 135.138 148.435 132.729C159.078 116.098 139.382 88.0313 139.382 88.0313C139.382 88.0313 178.428 41.8823 147.046 25.4545C135.101 19.2142 126.8 24.3225 121.015 33.0589L120.408 35.0906C120.408 24.932 116.301 16.1957 102.389 14.7735C67.3625 10.8261 78.7004 73.519 78.7004 73.519C78.7004 73.519 58.4541 79.0917 58.4541 96.5645C54.1453 98.7812 50.5838 102.224 48.2152 106.462C46.0578 110.305 45.0172 114.679 45.2115 119.086C45.4057 123.493 46.8271 127.757 49.3143 131.394ZM97.5295 113.805L96.5461 115.488C96.29 115.922 95.926 116.28 95.4899 116.53C95.0538 116.779 94.5606 116.91 94.0587 116.91C93.5568 116.91 93.0636 116.779 92.6275 116.53C92.1914 116.28 91.8274 115.922 91.5713 115.488L90.5879 113.805C90.4933 113.635 90.444 113.443 90.4448 113.249C90.4455 113.054 90.4964 112.863 90.5923 112.693C90.6883 112.524 90.8262 112.383 90.9926 112.282C91.159 112.182 91.3484 112.127 91.5424 112.122H96.575C96.769 112.127 96.9584 112.182 97.1248 112.282C97.2912 112.383 97.4291 112.524 97.5251 112.693C97.621 112.863 97.6719 113.054 97.6726 113.249C97.6734 113.443 97.6241 113.635 97.5295 113.805ZM111.413 98.9445C112.787 99.2013 114.028 99.9325 114.921 101.011C115.814 102.09 116.304 103.448 116.304 104.851C116.304 106.254 115.814 107.612 114.921 108.691C114.028 109.769 112.787 110.501 111.413 110.757C110.039 110.501 108.797 109.769 107.904 108.691C107.011 107.612 106.522 106.254 106.522 104.851C106.522 103.448 107.011 102.09 107.904 101.011C108.797 99.9325 110.039 99.2013 111.413 98.9445ZM79.9441 98.9445C81.3182 99.2013 82.5594 99.9325 83.4526 101.011C84.3459 102.09 84.8349 103.448 84.8349 104.851C84.8349 106.254 84.3459 107.612 83.4526 108.691C82.5594 109.769 81.3182 110.501 79.9441 110.757C78.57 110.501 77.3288 109.769 76.4356 108.691C75.5423 107.612 75.0533 106.254 75.0533 104.851C75.0533 103.448 75.5423 102.09 76.4356 101.011C77.3288 99.9325 78.57 99.2013 79.9441 98.9445Z" fill="white"/>
<path d="M96.575 112.122H91.5423C91.3483 112.127 91.159 112.182 90.9925 112.282C90.8261 112.383 90.6883 112.524 90.5923 112.693C90.4963 112.863 90.4455 113.054 90.4447 113.249C90.4439 113.443 90.4932 113.635 90.5878 113.805L91.5712 115.488C91.8273 115.922 92.1913 116.28 92.6274 116.53C93.0636 116.779 93.5568 116.91 94.0587 116.91C94.5605 116.91 95.0537 116.779 95.4899 116.53C95.926 116.28 96.29 115.922 96.5461 115.488L97.5295 113.805C97.6241 113.635 97.6734 113.443 97.6726 113.249C97.6718 113.054 97.621 112.863 97.525 112.693C97.429 112.524 97.2912 112.383 97.1248 112.282C96.9583 112.182 96.769 112.127 96.575 112.122Z" fill="black"/>
<path d="M111.413 110.757C112.787 110.501 114.028 109.769 114.921 108.691C115.814 107.612 116.303 106.254 116.303 104.851C116.303 103.448 115.814 102.09 114.921 101.011C114.028 99.9325 112.787 99.2013 111.413 98.9445C110.039 99.2013 108.797 99.9325 107.904 101.011C107.011 102.09 106.522 103.448 106.522 104.851C106.522 106.254 107.011 107.612 107.904 108.691C108.797 109.769 110.039 110.501 111.413 110.757Z" fill="black"/>
<path d="M79.9441 110.757C81.3182 110.501 82.5594 109.769 83.4527 108.691C84.3459 107.612 84.8349 106.254 84.8349 104.851C84.8349 103.448 84.3459 102.09 83.4527 101.011C82.5594 99.9325 81.3182 99.2013 79.9441 98.9445C78.5701 99.2013 77.3289 99.9325 76.4356 101.011C75.5424 102.09 75.0533 103.448 75.0533 104.851C75.0533 106.254 75.5424 107.612 76.4356 108.691C77.3289 109.769 78.5701 110.501 79.9441 110.757Z" fill="black"/>
<path d="M78.44 116.098H77.5145C74.997 115.91 72.5921 114.974 70.6058 113.411C68.6196 111.847 67.1416 109.726 66.3599 107.317C65.5781 104.908 65.528 102.32 66.2159 99.8829C66.9037 97.4454 68.2984 95.2683 70.2227 93.6284C72.1469 91.9885 74.5137 90.96 77.022 90.6736C79.5304 90.3873 82.0669 90.856 84.3091 92.0202C86.5512 93.1844 88.3977 94.9915 89.6136 97.2117C90.8295 99.4318 91.3599 101.965 91.1374 104.488C90.842 107.663 89.3767 110.612 87.0282 112.76C84.6797 114.907 81.6172 116.097 78.44 116.098ZM78.44 92.0077C75.4853 92.1142 72.6904 93.3805 70.6569 95.5342C68.6233 97.6879 67.5136 100.557 67.5667 103.523C67.6198 106.49 68.8313 109.317 70.9406 111.396C73.05 113.475 75.8884 114.639 78.845 114.639C81.8016 114.639 84.64 113.475 86.7493 111.396C88.8586 109.317 90.0702 106.49 90.1232 103.523C90.1763 100.557 89.0666 97.6879 87.0331 95.5342C84.9995 93.3805 82.2046 92.1142 79.2499 92.0077H78.44Z" fill="black"/>
<path d="M112.223 117.607H111.268C108.758 117.423 106.359 116.496 104.374 114.943C102.389 113.39 100.908 111.282 100.117 108.885C99.3258 106.487 99.2608 103.908 99.9302 101.474C100.6 99.0395 101.973 96.8589 103.877 95.2077C105.781 93.5565 108.131 92.5089 110.628 92.1974C113.125 91.8858 115.659 92.3243 117.908 93.4574C120.157 94.5905 122.021 96.3673 123.264 98.5632C124.507 100.759 125.073 103.275 124.891 105.794C124.651 109.003 123.212 112.002 120.863 114.192C118.515 116.382 115.429 117.602 112.223 117.607ZM112.223 93.5169C110.027 93.5174 107.88 94.1605 106.044 95.3676C104.208 96.5747 102.762 98.2932 101.885 100.312C101.008 102.332 100.736 104.564 101.105 106.736C101.473 108.907 102.465 110.924 103.958 112.538C105.452 114.152 107.382 115.294 109.513 115.824C111.644 116.354 113.882 116.248 115.954 115.52C118.026 114.791 119.841 113.472 121.176 111.724C122.512 109.976 123.311 107.875 123.474 105.678C123.689 102.685 122.714 99.7288 120.763 97.4552C118.812 95.1816 116.043 93.776 113.061 93.5459L112.223 93.5169Z" fill="black"/>
<path d="M94.0587 127.214C96.1992 127.214 97.9344 124.914 97.9344 122.077C97.9344 119.24 96.1992 116.94 94.0587 116.94C91.9182 116.94 90.183 119.24 90.183 122.077C90.183 124.914 91.9182 127.214 94.0587 127.214Z" fill="black"/>
<path d="M100.19 105.997L90.4143 105.562L90.4722 104.111L100.248 104.546L100.19 105.997Z" fill="black"/>
<path d="M31.6421 140.421L33.4064 136.792C33.4064 136.792 60.1605 135.719 60.8257 151.305C61.491 166.891 31.6421 140.421 31.6421 140.421Z" fill="#CED6E0"/>
<path d="M103.141 155.542V146.835C103.141 146.835 70.6019 134.964 60.739 150.405C50.0952 166.775 103.141 155.542 103.141 155.542Z" fill="#CED6E0"/>
<path d="M57.8467 149.041C47.145 139.927 27.9399 140.333 27.9399 140.333L33.0883 177.049C40.3207 184.109 48.6917 189.889 57.8467 194.145V149.041Z" fill="#40608E"/>
<path d="M59.0035 194.464C73.0603 203.171 99.4962 206.074 106.872 204.913L104.5 150.376C88.4764 142.655 60.8257 152.611 60.8257 152.611V195.219L59.0035 194.464Z" fill="#5C80BC"/>
<path d="M56.9501 148.17L57.9045 149.041C57.5864 148.751 57.2972 148.431 56.9501 148.17Z" fill="#5C80BC"/>
<path d="M59.5242 150.753C59.1092 150.235 58.6547 149.75 58.1648 149.302C58.6482 149.756 59.1022 150.241 59.5242 150.753Z" fill="#5C80BC"/>
<path d="M57.8467 149.041L58.107 149.302L57.8467 149.041Z" fill="#85ACE5"/>
<path d="M59.0036 194.464L57.1814 193.564L59.0036 194.464Z" fill="#85ACE5"/>
<path d="M59.5242 150.753C59.9988 151.292 60.4338 151.864 60.8257 152.466C60.4311 151.866 59.9963 151.294 59.5242 150.753Z" fill="#85ACE5"/>
<path d="M63.8049 151.595C62.8077 151.76 61.8356 152.053 60.9126 152.466C60.5206 151.864 60.0856 151.292 59.611 150.753C59.1891 150.241 58.735 149.756 58.2516 149.302L57.8467 149.041L56.8922 148.17L57.1236 193.738C59.1671 194.988 61.3646 195.964 63.6603 196.641L63.8049 151.595Z" fill="#85ACE5"/>
<path d="M63.776 148.518C65.2851 147.029 67.088 145.872 69.069 145.122C71.0462 144.389 73.1054 143.902 75.2007 143.671C77.2652 143.329 79.356 143.174 81.4481 143.207C83.538 143.306 85.6171 143.568 87.6667 143.991C85.5842 143.991 83.5017 143.991 81.4481 143.991C79.3905 143.957 77.3329 144.054 75.2875 144.281C73.2379 144.494 71.2194 144.942 69.2714 145.616C67.3069 146.201 65.4849 147.19 63.9206 148.518H63.776Z" fill="#728293"/>
<path d="M68.3169 148.518C73.4052 146.758 78.7293 145.78 84.109 145.616C89.4812 145.317 94.867 145.855 100.075 147.212C97.4138 146.951 94.7817 146.603 92.1208 146.458C89.4598 146.312 86.7989 146.167 84.138 146.138C78.7999 146.179 73.4939 146.971 68.3747 148.489L68.3169 148.518Z" fill="#728293"/>
<path d="M59.5531 149.099C59.0298 147.281 58.0311 145.638 56.6608 144.339C55.329 143.024 53.7709 141.962 52.062 141.204C50.3871 140.418 48.6446 139.787 46.8558 139.318C45.0625 138.824 43.2114 138.505 41.3604 138.128H44.2527C45.2072 138.128 46.1327 138.418 47.145 138.563C49.006 139 50.804 139.673 52.4958 140.566C54.21 141.413 55.758 142.563 57.0657 143.961C58.3924 145.349 59.313 147.076 59.7267 148.954L59.5531 149.099Z" fill="#728293"/>
<path d="M53.7974 144.513C52.423 143.298 50.8597 142.318 49.1696 141.611C47.4889 140.927 45.7451 140.412 43.9634 140.072C42.1731 139.769 40.3675 139.565 38.5548 139.463C36.7326 139.463 34.9104 139.289 33.0883 139.201C34.9039 138.901 36.7441 138.774 38.5837 138.824C40.4374 138.896 42.2789 139.158 44.0791 139.608C45.8818 140.01 47.6367 140.603 49.3142 141.378C50.9971 142.139 52.5341 143.19 53.8552 144.484L53.7974 144.513Z" fill="#728293"/>
</g>
<defs>
<clipPath id="clip0_342_2806">
<rect width="209" height="205" fill="white"/>
</clipPath>
</defs>
</svg>
