<svg xmlns="http://www.w3.org/2000/svg" viewBox="0 0 72.26 70.63"><defs><style>.cls-1{fill:#fc5f6c;}.cls-2{opacity:0.75;}.cls-3{fill:#c64259;}.cls-4{fill:#fff;}.cls-5{fill:#85ace5;}.cls-6{fill:#ced6e0;}.cls-7{fill:#40608e;}.cls-8{fill:#5c80bc;}.cls-9{fill:#728293;}</style></defs><g id="Layer_2" data-name="Layer 2"><g id="Layer_1-2" data-name="Layer 1"><ellipse class="cls-1" cx="36.13" cy="35.28" rx="36.13" ry="35.28"/><g class="cls-2"><path class="cls-3" d="M49,47.51a35.71,35.71,0,0,1,9.81,16.74c-.3,1-22.58,14.61-43.46-1.61,0,0,4.1-14.92,8.52-15.32S49,47.51,49,47.51Z"/><path class="cls-3" d="M23.35,47a9.05,9.05,0,0,1-2.51-2.41c-1.83,7,20.53,10.91,29.55,3.86C41.86,51.64,27.26,49.47,23.35,47Z"/><path class="cls-3" d="M19.16,45.27a8.65,8.65,0,0,0,2.51,2.41c3.9,2.51,18.5,4.68,27,1.45a13.67,13.67,0,0,0,2.68-1.33,6.91,6.91,0,0,0,2.07-2.07c3.68-5.74-3.15-15.4-3.15-15.4S63.79,14.43,53,8.77c-4.14-2.15-7-.39-9,2.62l-.21.7c0-3.5-1.42-6.51-6.23-7-12.11-1.36-8.19,20.24-8.19,20.24s-7,1.92-7,7.94a8.57,8.57,0,0,0-3.54,3.41A8.13,8.13,0,0,0,19.16,45.27Zm16.66-6.06-.34.58a1,1,0,0,1-1.72,0l-.34-.58a.39.39,0,0,1,.33-.58h1.74A.38.38,0,0,1,35.82,39.21Zm4.8-5.12a2.07,2.07,0,1,1-1.68,2A1.88,1.88,0,0,1,40.62,34.09Zm-10.88,0a2.07,2.07,0,0,1,0,4.07,2.07,2.07,0,0,1,0-4.07Z"/><path class="cls-3" d="M35.49,38.63H33.75a.39.39,0,0,0-.33.58l.34.58a1,1,0,0,0,1.72,0l.34-.58A.38.38,0,0,0,35.49,38.63Z"/><path class="cls-3" d="M40.62,38.16a2.07,2.07,0,1,0-1.68-2A1.88,1.88,0,0,0,40.62,38.16Z"/><path class="cls-3" d="M29.74,38.16a2.07,2.07,0,0,0,0-4.07,2.07,2.07,0,0,0,0,4.07Z"/></g><path class="cls-4" d="M46.94,47.51a35.71,35.71,0,0,1,9.81,16.74c-.3,1-22.58,14.61-43.47-1.61,0,0,4.11-14.92,8.52-15.32S46.94,47.51,46.94,47.51Z"/><path class="cls-5" d="M21.25,47a9.05,9.05,0,0,1-2.51-2.41c-1.83,7,20.53,10.91,29.55,3.86C39.76,51.64,25.16,49.47,21.25,47Z"/><path class="cls-4" d="M17.05,45.27a8.82,8.82,0,0,0,2.52,2.41c3.9,2.51,18.5,4.68,27,1.45a13.67,13.67,0,0,0,2.68-1.33,6.91,6.91,0,0,0,2.07-2.07C55,40,48.19,30.33,48.19,30.33s13.5-15.9,2.65-21.56c-4.13-2.15-7-.39-9,2.62l-.21.7c0-3.5-1.42-6.51-6.23-7-12.11-1.36-8.19,20.24-8.19,20.24s-7,1.92-7,7.94a8.51,8.51,0,0,0-3.54,3.41A8.13,8.13,0,0,0,17.05,45.27Zm16.67-6.06-.34.58a1,1,0,0,1-1.72,0l-.34-.58a.39.39,0,0,1,.33-.58h1.74A.39.39,0,0,1,33.72,39.21Zm4.8-5.12a2.07,2.07,0,0,1,0,4.07,2.07,2.07,0,0,1,0-4.07Zm-10.88,0a2.07,2.07,0,0,1,0,4.07,2.07,2.07,0,0,1,0-4.07Z"/><path d="M33.39,38.63H31.65a.39.39,0,0,0-.33.58l.34.58a1,1,0,0,0,1.72,0l.34-.58A.39.39,0,0,0,33.39,38.63Z"/><path d="M38.52,38.16a2.07,2.07,0,0,0,0-4.07,2.07,2.07,0,0,0,0,4.07Z"/><path d="M27.64,38.16a2.07,2.07,0,0,0,0-4.07,2.07,2.07,0,0,0,0,4.07Z"/><path d="M27.12,40l-.32,0A4.4,4.4,0,1,1,31.51,36h0A4.41,4.41,0,0,1,27.12,40Zm0-8.3a3.9,3.9,0,1,0,.28,0Z"/><path d="M38.8,40.52h-.33a4.4,4.4,0,1,1,4.71-4.07h0A4.4,4.4,0,0,1,38.8,40.52Zm0-8.3a3.9,3.9,0,1,0,3.89,4.19h0a3.91,3.91,0,0,0-3.6-4.18Z"/><ellipse cx="32.52" cy="42.06" rx="1.34" ry="1.77"/><polygon points="34.64 36.52 31.26 36.37 31.28 35.87 34.66 36.02 34.64 36.52"/><path class="cls-6" d="M10.94,48.38l.61-1.25s9.25-.37,9.48,5S10.94,48.38,10.94,48.38Z"/><path class="cls-6" d="M35.66,53.59v-3S24.41,46.5,21,51.82C17.32,57.46,35.66,53.59,35.66,53.59Z"/><path class="cls-7" d="M20,51.35c-3.7-3.14-10.34-3-10.34-3L11.44,61A30.91,30.91,0,0,0,20,66.89Z"/><path class="cls-8" d="M20.4,67c4.86,3,14,4,16.55,3.6l-.82-18.79c-5.54-2.66-15.1.77-15.1.77V67.26Z"/><path class="cls-8" d="M19.69,51.05l.33.3C19.91,51.25,19.81,51.14,19.69,51.05Z"/><path class="cls-8" d="M20.58,51.94a4.42,4.42,0,0,0-.47-.5A5.39,5.39,0,0,1,20.58,51.94Z"/><path class="cls-5" d="M20,51.35l.09.09Z"/><path class="cls-5" d="M19.66,51h0l0,0Z"/><path class="cls-5" d="M20.4,67l-.63-.31h0Z"/><path class="cls-5" d="M20.58,51.94a5.11,5.11,0,0,1,.45.59A5.45,5.45,0,0,0,20.58,51.94Z"/><path class="cls-5" d="M22.06,52.23a4.09,4.09,0,0,0-1,.3,5.11,5.11,0,0,0-.45-.59,5.39,5.39,0,0,0-.47-.5L20,51.35l-.33-.3,0,0,.08,15.7a9.49,9.49,0,0,0,2.26,1Z"/><path class="cls-9" d="M22.05,51.17A5.25,5.25,0,0,1,23.88,50,8.93,8.93,0,0,1,26,49.5a12.09,12.09,0,0,1,2.16-.16,14,14,0,0,1,2.15.27v0c-.72,0-1.44,0-2.15,0a16.88,16.88,0,0,0-2.13.1,9.33,9.33,0,0,0-2.08.46,5.12,5.12,0,0,0-1.85,1Z"/><path class="cls-9" d="M23.62,51.17a18.47,18.47,0,0,1,5.46-1,18,18,0,0,1,5.52.55v0c-.92-.09-1.83-.21-2.75-.26s-1.84-.1-2.76-.11a19.76,19.76,0,0,0-5.45.81Z"/><path class="cls-9" d="M20.59,51.37a3.65,3.65,0,0,0-1-1.64A5.35,5.35,0,0,0,18,48.65,10.55,10.55,0,0,0,16.2,48c-.62-.17-1.26-.28-1.9-.41v0l1,0c.33,0,.65.1,1,.15a7.8,7.8,0,0,1,1.85.69,5.5,5.5,0,0,1,1.58,1.17,3.61,3.61,0,0,1,.92,1.72Z"/><path class="cls-9" d="M18.6,49.79a5.8,5.8,0,0,0-1.6-1,9.52,9.52,0,0,0-1.8-.53,17,17,0,0,0-1.87-.21c-.63,0-1.26-.06-1.89-.09v0a10,10,0,0,1,1.9-.13,9.36,9.36,0,0,1,1.9.27,9,9,0,0,1,1.81.61,5.46,5.46,0,0,1,1.57,1.07Z"/></g></g></svg>