<?xml version="1.0" encoding="utf-8"?>
<!-- Generator: Adobe Illustrator 26.2.1, SVG Export Plug-In . SVG Version: 6.00 Build 0)  -->
<svg version="1.1" id="Layer_1" xmlns="http://www.w3.org/2000/svg" xmlns:xlink="http://www.w3.org/1999/xlink" x="0px" y="0px"
	 viewBox="0 0 50 40" style="enable-background:new 0 0 50 40;" xml:space="preserve">
<style type="text/css">
	.st0{fill:#FFFFFF;}
</style>
<path class="st0" d="M46.3,12.3L26.6,6.2c-1.1-0.3-2.2-0.3-3.3,0L3.7,12.3c-1.7,0.5-1.7,2.7,0,3.2l3.4,1.1c-0.8,0.9-1.2,2.1-1.3,3.3
	c-0.7,0.4-1.2,1.1-1.2,1.9c0,0.8,0.4,1.4,1,1.8l-1.8,8.2c-0.2,0.7,0.4,1.4,1.1,1.4H9c0.7,0,1.3-0.7,1.1-1.4l-1.8-8.2
	c0.6-0.4,1-1.1,1-1.8c0-0.8-0.5-1.5-1.1-1.9c0.1-1.1,0.6-2,1.5-2.6l13.8,4.3c0.6,0.2,1.9,0.4,3.3,0l19.6-6.1
	C47.9,15.1,47.9,12.8,46.3,12.3z M27.3,23.8c-2,0.6-3.7,0.3-4.6,0l-10.2-3.2l-1,8.1c0,2.5,6,4.5,13.5,4.5c7.5,0,13.5-2,13.5-4.5
	l-1-8.1L27.3,23.8z"/>
</svg>
