<?xml version="1.0" encoding="utf-8"?>
<!-- Generator: Adobe Illustrator 26.2.1, SVG Export Plug-In . SVG Version: 6.00 Build 0)  -->
<svg version="1.1" id="Layer_1" xmlns="http://www.w3.org/2000/svg" xmlns:xlink="http://www.w3.org/1999/xlink" x="0px" y="0px"
	 viewBox="0 0 50 40" style="enable-background:new 0 0 50 40;" xml:space="preserve">
<style type="text/css">
	.st0{fill:#FFFFFF;}
</style>
<path class="st0" d="M44,20c0,1.3-1,2.4-2.1,2.4h-2.1l0,11.9c0,0.2,0,0.4,0,0.6V36c0,1.6-1.2,3-2.6,3h-1.1c-0.1,0-0.1-0.1-0.2,0
	c-0.1-0.1-0.2,0-0.3,0h-3.7c-1.5,0-2.6-1.3-2.6-3v-6.5c0-1.3-0.9-2.4-2.1-2.4h-4.2c-1.2,0-2.1,1.1-2.1,2.4V36c0,1.6-1.2,3-2.6,3
	h-3.7c-0.1,0-0.2,0-0.3,0c-0.1,0-0.2,0-0.2,0h-1.1c-1.5,0-2.6-1.3-2.6-3v-8.3c0-0.1,0-0.1,0-0.2v-5.2H8.1c-1.2,0-2.1-1-2.1-2.4
	c0-0.7,0.2-1.3,0.7-1.8L23.6,1.6C24,1.1,24.6,1,25,1s1,0.1,1.4,0.5l16.8,16.7C43.8,18.7,44.1,19.3,44,20z"/>
</svg>
