<?xml version="1.0" encoding="UTF-8"?><svg xmlns="http://www.w3.org/2000/svg" viewBox="0 0 70 50"><defs><style>.d{fill:#fc5f6c;}.e{fill:#efedff;}</style></defs><g id="a"/><g id="b"><g id="c"><g><path class="e" d="M0,4.83C12.72-3.3,32.8,3.98,53.52,.22c2.23-.49,4.59-.12,6.69,.73,2.1,.97,3.8,2.43,4.85,4.37,6.17,13.36,5.12,26.83,4.33,34.73-1.18,1.7-2.36,8.01-30.43,5.83-28.07-2.19-31.62,4.13-31.62,4.13L0,4.83Z"/><path class="d" d="M35.03,9.57c-1.97,0-3.94,.36-5.77,1.09-1.84,.73-3.41,1.82-4.72,3.16-1.31,1.46-2.36,3.04-3.15,4.86-.92,2.31-1.05,4.86-.39,7.29,.66,2.43,1.97,4.61,3.94,6.44l.26,.24,.26,.24c2.62,2.19,6.03,3.28,9.58,3.28s6.95-1.21,9.58-3.28l.39-.36,.26-.24c.66-.61,1.18-1.21,1.71-1.94,1.44-2.06,2.36-4.37,2.49-6.8s-.52-4.86-1.71-7.04c-1.31-2.19-3.15-3.89-5.38-5.22-2.23-.97-4.72-1.7-7.35-1.7Z"/><path d="M35.29,25.35c-.92,.12-1.97,0-2.75-.49-.39-.24-.66-.49-.26-.85,.13-.24,.39-.36,.66-.49,.26-.12,.52,0,.79,.12,.26,.12,.39,.24,.66,.24,.39,.12,.79,.12,1.18,0,.39-.12,.66-.24,.92-.49,.13-.12,.26-.24,.39-.24,.13-.12,.39-.12,.66-.12s.39,.12,.66,.24c.13,.12,.13,.36,.13,.61s-.13,.36-.39,.49c-.79,.49-1.71,.85-2.62,.97Z"/><path d="M27.42,24.26c0-.36-.26-.73,.26-1.09,.66-.36,1.31-.12,1.44,.49,.13,.36,.13,.73,.13,1.09,0,.49-.39,.73-.79,.73-.26,0-.39,0-.66-.12-.13-.12-.39-.24-.39-.49,.13-.12,.13-.36,0-.61Z"/><path d="M42.5,22.44v.97c0,.12-.13,.24-.13,.24q-.13,.12-.26,.12h-.39c-.26,0-.39,0-.66-.12-.26-.12-.26-.24-.39-.49-.13-.36-.13-.61-.13-.97,0-.49,.26-.85,.79-.85h.39c.13,0,.26,0,.26,.12,.13,0,.13,.12,.26,.24,0,.12,.13,.24,.13,.36v.49h.13v-.12Z"/></g></g></g></svg>