<svg width="70" height="50" viewBox="0 0 70 50" fill="none" xmlns="http://www.w3.org/2000/svg">
<path d="M0 4.83152C12.7249 -3.30366 32.7962 3.98158 53.5234 0.217536C55.7535 -0.268147 58.1149 0.0961227 60.2138 0.946067C62.3128 1.91743 64.0182 3.37447 65.0677 5.3172C71.2334 18.6735 70.1839 32.1512 69.3968 40.0435C68.2161 41.7434 67.0354 48.0573 38.9619 45.8717C10.8883 43.6861 7.34635 50 7.34635 50L0 4.83152Z" fill="#EFEDFF"/>
<path d="M35.0263 9.56641C33.0585 9.56641 31.0907 9.93068 29.2541 10.6592C27.4175 11.3877 25.8433 12.4805 24.5315 13.8161C23.2196 15.2732 22.1701 16.8516 21.383 18.673C20.4647 20.9799 20.3336 23.5298 20.9895 25.9582C21.6454 28.3866 22.9573 30.5722 24.925 32.3935L25.1874 32.6363L25.4498 32.8792C28.0735 35.0647 31.4843 36.1575 35.0263 36.1575C38.5682 36.1575 41.9791 34.9433 44.6028 32.8792L44.9963 32.5149L45.2587 32.2721C45.9146 31.665 46.4393 31.0579 46.9641 30.3293C48.4071 28.2652 49.3254 25.9582 49.4566 23.5298C49.5878 21.1014 48.9319 18.673 47.7512 16.4874C46.4393 14.3018 44.6027 12.6019 42.3726 11.2663C40.1425 10.2949 37.65 9.56641 35.0263 9.56641Z" fill="#FC5F6C"/>
<path d="M35.2887 25.3519C34.3704 25.4733 33.3209 25.3519 32.5338 24.8662C32.1402 24.6234 31.8778 24.3806 32.2714 24.0163C32.4026 23.7734 32.665 23.652 32.9273 23.5306C33.1897 23.4092 33.4521 23.5306 33.7144 23.652C33.9768 23.7734 34.108 23.8949 34.3704 23.8949C34.7639 24.0163 35.1575 24.0163 35.551 23.8949C35.9446 23.7734 36.2069 23.652 36.4693 23.4092C36.6005 23.2878 36.7317 23.1663 36.8629 23.1663C36.9941 23.0449 37.2564 23.0449 37.5188 23.0449C37.7812 23.0449 37.9124 23.1663 38.1747 23.2878C38.3059 23.4092 38.3059 23.652 38.3059 23.8949C38.3059 24.1377 38.1747 24.2591 37.9124 24.3805C37.1252 24.8662 36.207 25.2305 35.2887 25.3519Z" fill="black"/>
<path d="M27.4176 24.2591C27.4176 23.8948 27.1552 23.5305 27.6799 23.1663C28.3359 22.802 28.9918 23.0449 29.123 23.652C29.2542 24.0162 29.2542 24.3805 29.2542 24.7447C29.2542 25.2304 28.8606 25.4733 28.4671 25.4733C28.2047 25.4733 28.0735 25.4733 27.8111 25.3518C27.6799 25.2304 27.4176 25.109 27.4176 24.8662C27.5488 24.7447 27.5488 24.5019 27.4176 24.2591Z" fill="black"/>
<path d="M42.504 22.4375C42.504 22.6804 42.504 22.8018 42.504 23.0446C42.504 23.166 42.504 23.2875 42.504 23.4089C42.504 23.5303 42.3728 23.6517 42.3728 23.6517C42.2416 23.7732 42.2416 23.7731 42.1104 23.7731C41.9792 23.7731 41.848 23.7731 41.7168 23.7731C41.4545 23.7731 41.3233 23.7732 41.0609 23.6517C40.7986 23.5303 40.7986 23.4089 40.6674 23.166C40.5362 22.8018 40.5362 22.5589 40.5362 22.1947C40.5362 21.709 40.7986 21.3447 41.3233 21.3447C41.4545 21.3447 41.5857 21.3447 41.7168 21.3447C41.848 21.3447 41.9792 21.3447 41.9792 21.4662C42.1104 21.4662 42.1104 21.5876 42.2416 21.709C42.2416 21.8304 42.3728 21.9518 42.3728 22.0733C42.3728 22.1947 42.3728 22.4375 42.3728 22.5589H42.504V22.4375Z" fill="black"/>
</svg>
