<?xml version="1.0" encoding="UTF-8"?><svg xmlns="http://www.w3.org/2000/svg" viewBox="0 0 70 50"><defs><style>.d{fill:#fc5f6c;}.e{fill:#efedff;}.f{fill:#627bf9;}</style></defs><g id="a"/><g id="b"><g id="c"><g><path class="e" d="M0,4.85C12.67-3.2,32.85,4.06,53.64,.2c2.21-.45,4.67-.11,6.64,.79,1.97,.91,3.81,2.5,4.8,4.31,6.27,13.27,5.04,26.89,4.31,34.71-1.23,1.7-2.34,7.94-30.51,5.79-28.17-2.16-31.62,4.2-31.62,4.2L0,4.85Z"/><path class="d" d="M26.94,24.02c4.31,2.72,7.5-.79,9.84-1.7,1.35-.68,2.83-.79,4.31-.45,1.48,.34,2.71,1.25,3.44,2.38,.74,.79,1.11,1.7,1.35,2.72,.12,1.02,0,2.04-.49,2.95,1.97-2.38,2.71-5.45,2.34-8.39-.37-2.95-2.09-5.67-4.55-7.49-2.58-1.93-5.78-2.72-8.98-2.5-3.2,.23-6.27,1.59-8.37,3.86-.25,.34-3.08,6.01,1.11,8.62Z"/><path class="f" d="M44.53,24.25c-.86-1.13-2.09-1.93-3.44-2.27-1.48-.34-2.95-.23-4.31,.45-2.34,1.02-5.54,4.42-9.84,1.7-4.31-2.72-1.23-8.28-1.11-8.62-1.11,1.25-2.09,2.61-2.71,4.2-.74,2.04-.86,4.2-.37,6.35,.49,2.16,1.72,3.97,3.32,5.56l.25,.23,.25,.23c2.34,1.81,5.29,2.84,8.37,2.84s6.03-1.02,8.37-2.84l.37-.34,.12-.11c.49-.45,1.11-1.02,1.48-1.59,.49-.91,.62-1.93,.37-2.95,0-1.13-.37-2.04-1.11-2.84Z"/><path d="M35.31,25.27c-.98,.11-1.97,0-2.83-.57-.37-.23-.62-.45-.37-.91,.12-.23,.37-.34,.62-.45,.25-.11,.49,0,.74,.11,.25,.11,.37,.23,.62,.23,.37,.11,.74,.11,1.11,0,.37-.11,.74-.23,.98-.57,.12-.11,.25-.23,.37-.23,.25-.11,.37-.11,.62-.11s.49,.11,.62,.34c.12,.11,.12,.34,.12,.57s-.12,.34-.37,.45c-.49,.68-1.23,1.02-2.21,1.13Z"/><path d="M27.43,24.25c0-.34-.25-.79,.37-1.13,.62-.34,1.35-.23,1.48,.45,.12,.34,.12,.79,.12,1.13,0,.45-.37,.68-.86,.79-.25,0-.49,0-.62-.11-.12-.11-.37-.23-.37-.45s-.12-.45-.12-.68Z"/><path d="M42.44,22.43v.91c0,.11-.12,.23-.12,.23q-.12,.11-.25,.23c-.12,0-.25,.11-.37,0-.25,0-.49,0-.62-.11-.25-.11-.37-.34-.37-.45-.12-.34-.12-.68-.12-1.02,0-.45,.25-.79,.86-.91h.37c.12,0,.25,0,.37,.11q.12,.11,.25,.23c.12,.11,.12,.23,.12,.34v.57h-.12v-.11Z"/><path d="M9.6,11.54h-.25c-.12,0-.12-.11-.25-.11q-.12-.11-.12-.23v-.45c0-.11,.12-.11,.12-.23l6.4-6.24,.25-.23c.12,0,.25-.11,.25-.11h.37c.12,0,.25,.11,.25,.11q.12,.11,.12,.23c0,.11,.12,.23,.12,.34s0,.23-.12,.34c0,.11-.12,.11-.25,.23l-6.52,6.24-.25,.23q0-.11-.12-.11Z"/><path d="M12.3,14.04c-.25,0-.37-.11-.49-.23-.12-.11-.25-.34-.25-.45,0-.23,.12-.34,.25-.45l6.4-6.24c.12-.11,.37-.23,.49-.23,.25,0,.37,.11,.62,.23,.12,.11,.25,.34,.25,.45,0,.23-.12,.34-.25,.57l-6.4,6.35q-.12,.11-.25,.11c-.12-.11-.25-.11-.37-.11Z"/><path d="M14.89,16.19c-.25,0-.37-.11-.49-.23-.12-.11-.25-.34-.25-.45,0-.23,.12-.34,.25-.45l6.4-6.35,.25-.23c.12,0,.25-.11,.25-.11h.37c.12,0,.25,.11,.25,.11q.12,.11,.12,.23c0,.11,.12,.23,.12,.34s0,.23-.12,.34c0,.11-.12,.11-.25,.23l-6.4,6.24-.25,.23q-.12,.11-.25,.11Z"/><path d="M17.72,42.51c-.25,0-.37-.11-.49-.23l-7.01-5.56c-.12-.11-.25-.34-.25-.45,0-.23,.12-.34,.25-.45,.12-.11,.37-.23,.49-.23s.37,.11,.49,.23l7.01,5.56q.12,.11,.12,.23v.45c0,.11-.12,.11-.12,.23q-.12,.11-.25,.11c0,.11-.12,.23-.25,.11Z"/><path d="M15.5,36.27c-.25,0-.37-.11-.49-.23l-2.34-2.04c-.12-.11-.25-.34-.25-.45,0-.23,.12-.34,.25-.45q.12-.11,.25-.11h.49c.12,0,.12,.11,.25,.11l2.34,2.04c.12,.11,.25,.34,.25,.45,0,.23-.12,.34-.25,.45-.12,.11-.25,.23-.49,.23Z"/><path d="M20.3,40.24c-.25,0-.37-.11-.49-.23l-2.21-1.93c-.12-.11-.25-.34-.25-.45,0-.23,.12-.34,.25-.45q.12-.11,.25-.11h.49c.12,0,.12,.11,.25,.11l2.21,1.93c.12,.11,.25,.34,.25,.45,0,.23-.12,.34-.25,.45-.12,.11-.37,.23-.49,.23Z"/><path d="M22.88,37.63c-.25,0-.37,0-.49-.11l-7.26-5.79c-.12-.11-.25-.34-.25-.45s.12-.34,.25-.45l.25-.23c.12,0,.25-.11,.25-.11h.25c.12,0,.25,.11,.25,.11l7.26,5.79c.12,.11,.25,.34,.25,.45s-.12,.34-.25,.45l-.25,.23c0,.11-.12,.11-.25,.11Z"/><path d="M51.05,10.75c-.25,0-.37-.11-.49-.23l-2.46-2.04c-.12-.11-.25-.34-.25-.45,0-.23,.12-.34,.25-.45,.12-.11,.25-.23,.49-.23s.37,0,.49,.11l2.34,2.04q.12,.11,.12,.23v.45c0,.11-.12,.11-.12,.23,0,.23-.25,.34-.37,.34Z"/><path d="M55.85,14.72c-.25,0-.37-.11-.49-.23l-2.34-1.93c-.12-.11-.25-.34-.25-.45,0-.23,.12-.34,.25-.45q.12-.11,.25-.11h.49c.12,0,.12,.11,.25,.11l2.34,1.93c.12,.11,.25,.34,.25,.45,0,.23-.12,.34-.25,.45,0,.23-.25,.23-.49,.23Z"/><path d="M58.31,12h-.25c-.12,0-.12-.11-.25-.11l-6.89-5.56c-.12-.11-.25-.34-.25-.45,0-.23,.12-.34,.25-.45,.12-.11,.25-.23,.49-.23s.37,0,.49,.11l6.89,5.56c.12,.11,.25,.23,.25,.34v.45c0,.11-.12,.23-.25,.34h-.49Z"/><path d="M56.22,5.87h-.25c-.12,0-.12-.11-.25-.11l-2.46-2.04c-.12-.11-.25-.34-.25-.45s.12-.34,.25-.45q.12-.11,.25-.11h.49c.12,0,.12,.11,.25,.11l2.46,2.04q.12,.11,.12,.23v.45c0,.11-.12,.11-.12,.23q-.12,.11-.25,.11h-.25Z"/><path d="M61.02,9.62c-.12,0-.37,0-.49-.11l-2.21-1.7-.25-.23c0-.11-.12-.23-.12-.23v-.23c0-.11,.12-.23,.12-.23l.25-.23c.12,0,.25-.11,.25-.11h.25c.12,0,.25,.11,.25,.11l2.21,1.7c.12,.11,.25,.34,.25,.45,0,.23-.12,.34-.25,.45,.12,.23-.12,.23-.25,.34Z"/><path d="M54.5,32.3h-.25s-.12-.11-.25-.11c-.12-.11-.25-.34-.25-.45,0-.23,.12-.34,.25-.45l2.09-2.04q.12-.11,.25-.23c.12,0,.25-.11,.25-.11h.37c.12,0,.25,.11,.25,.11q.12,.11,.12,.23c0,.11,.12,.23,.12,.34s0,.23-.12,.34c0,.11-.12,.11-.25,.23l-2.09,2.04q-.12,.11-.25,.11h-.25Z"/><path d="M57.2,34.57h-.25c-.12,0-.12-.11-.25-.11q-.12-.11-.12-.23v-.45c0-.11,.12-.11,.12-.23l2.09-2.04,.25-.23c.12,0,.25-.11,.25-.11h.37c.12,0,.25,.11,.25,.11q.12,.11,.12,.23c0,.11,.12,.23,.12,.34s0,.23-.12,.34c0,.11-.12,.11-.25,.23l-2.21,2.04s-.25,.11-.37,.11Z"/><path d="M60.16,36.96h-.25c-.12,0-.12-.11-.25-.11q-.12-.11-.12-.23v-.45c0-.11,.12-.11,.12-.23l2.09-2.04c.12-.11,.37-.23,.49-.23,.25,0,.37,.11,.62,.23,.12,.11,.25,.34,.25,.45,0,.23-.12,.34-.25,.45l-2.09,2.04-.25,.23c-.12,.11-.37-.11-.37-.11Z"/><path d="M52.78,39h-.25c-.12,0-.12-.11-.25-.11q-.12-.11-.12-.23v-.45c0-.11,.12-.11,.12-.23l2.09-2.04c.12-.11,.37-.23,.49-.23s.37,.11,.49,.23q.12,.11,.12,.23v.45c0,.11-.12,.11-.12,.23l-2.09,2.04q-.12,.11-.25,.11h-.25Z"/><path d="M55.48,41.04h-.25c-.12,0-.12-.11-.25-.11q-.12-.11-.12-.23v-.45c0-.11,.12-.11,.12-.23l2.09-2.04c.12-.11,.37-.23,.49-.23,.25,0,.37,.11,.49,.23q.12,.11,.12,.23v.45c0,.11-.12,.11-.12,.23l-2.09,2.04q-.12,.11-.25,.11h-.25Z"/><path d="M49.95,36.84c-.25,0-.37-.11-.49-.23-.12-.11-.25-.34-.25-.45,0-.23,.12-.34,.25-.45l2.09-2.04c.12-.11,.37-.23,.49-.23,.25,0,.37,.11,.49,.23,.12,.11,.25,.34,.25,.45,0,.23-.12,.34-.25,.45l-2.09,2.04q-.12,.11-.25,.11c0,.11-.12,.11-.25,.11Z"/></g></g></g></svg>