<svg xmlns="http://www.w3.org/2000/svg" viewBox="0 0 72.26 76.76"><defs><style>.cls-1{fill:#fc5f6c;}.cls-2{opacity:0.75;}.cls-3{fill:#c64259;}.cls-4{fill:#fff;}.cls-5{fill:#85ace5;}.cls-6{fill:#e05353;}.cls-7{fill:#f4b571;}.cls-8{fill:#efedff;}.cls-9{fill:#627bf9;}</style></defs><g id="Layer_2" data-name="Layer 2"><g id="Layer_1-2" data-name="Layer 1"><g id="china_flag" data-name="china flag"><ellipse class="cls-1" cx="36.13" cy="41.26" rx="36.13" ry="35.35"/><g class="cls-2"><path class="cls-3" d="M49,53.36A51.35,51.35,0,0,1,57.6,71.11S36,85.4,15.15,68.51c0,0,4.34-14.93,8.76-15.34S49,53.36,49,53.36Z"/><path class="cls-3" d="M12.25,58.06c-.58-5.12,4.3-7.32,7.87-1.79,1.21,1.88,6,3.26,5.3,3.6s.09,3.65,1.45,2,1.73,1.3,1.5,1.65a44.75,44.75,0,0,1-4.22,5c-1.4,1.26-3.83,0-3.83,0A12.23,12.23,0,0,1,12.25,58.06Z"/><path class="cls-3" d="M23.35,52.86a9,9,0,0,1-2.51-2.4c-1.83,7,20.53,10.91,29.55,3.85C41.86,57.54,27.26,55.37,23.35,52.86Z"/><path class="cls-3" d="M19.16,51.18a8.79,8.79,0,0,0,2.51,2.41c3.9,2.51,18.5,4.68,27,1.45a13.67,13.67,0,0,0,2.68-1.33,6.91,6.91,0,0,0,2.07-2.07c3.68-5.75-3.15-15.4-3.15-15.4S63.79,20.34,53,14.68c-4.14-2.16-7-.39-9,2.61l-.21.7c0-3.49-1.42-6.5-6.23-7-12.11-1.37-8.19,20.23-8.19,20.23s-7,1.93-7,8a8.61,8.61,0,0,0-3.54,3.4A8.15,8.15,0,0,0,19.16,51.18Zm16.66-6.07-.34.59a1,1,0,0,1-1.72,0l-.34-.59a.38.38,0,0,1,.33-.57h1.74A.38.38,0,0,1,35.82,45.11ZM40.62,40a2.07,2.07,0,1,1-1.68,2A1.89,1.89,0,0,1,40.62,40ZM29.74,40a2.07,2.07,0,0,1,0,4.07,2.07,2.07,0,0,1,0-4.07Z"/><path class="cls-3" d="M35.49,44.54H33.75a.38.38,0,0,0-.33.57l.34.59a1,1,0,0,0,1.72,0l.34-.59A.38.38,0,0,0,35.49,44.54Z"/><path class="cls-3" d="M40.62,44.06a2.07,2.07,0,1,0-1.68-2A1.88,1.88,0,0,0,40.62,44.06Z"/><path class="cls-3" d="M29.74,44.06a2.07,2.07,0,0,0,0-4.07,2.07,2.07,0,0,0,0,4.07Z"/><path class="cls-3" d="M36.36,47.86a2.31,2.31,0,0,1-1.66-1,2.28,2.28,0,0,1-1.91.83c-1.3-.19-2-1.85-2.06-1.92a.31.31,0,0,1,.57-.25s.63,1.42,1.58,1.55c.5.07,1-.23,1.6-.9l.28-.33.23.36c.18.29.81,1,1.43,1s1.06-.62,1.53-1.67a.3.3,0,0,1,.41-.16.31.31,0,0,1,.15.41c-.57,1.3-1.27,2-2,2Z"/></g><path class="cls-4" d="M46.94,53.36A51.35,51.35,0,0,1,55.5,71.11S33.94,85.4,13.05,68.51c0,0,4.34-14.93,8.75-15.34S46.94,53.36,46.94,53.36Z"/><path class="cls-4" d="M10.15,58.06c-.58-5.12,4.3-7.32,7.87-1.79,1.21,1.88,6,3.26,5.3,3.6s.09,3.65,1.45,2,1.73,1.3,1.5,1.65a44.75,44.75,0,0,1-4.22,5c-1.4,1.26-3.84,0-3.84,0A12.22,12.22,0,0,1,10.15,58.06Z"/><path class="cls-5" d="M21.25,52.86a9,9,0,0,1-2.51-2.4c-1.83,7,20.53,10.91,29.55,3.85C39.76,57.54,25.16,55.37,21.25,52.86Z"/><path class="cls-4" d="M17.05,51.18a9,9,0,0,0,2.52,2.41c3.9,2.51,18.5,4.68,27,1.45a13.67,13.67,0,0,0,2.68-1.33,6.91,6.91,0,0,0,2.07-2.07c3.68-5.75-3.16-15.4-3.16-15.4s13.5-15.9,2.65-21.56c-4.13-2.16-7-.39-9,2.61l-.21.7c0-3.49-1.42-6.5-6.23-7-12.11-1.37-8.19,20.23-8.19,20.23s-7,1.93-7,8a8.55,8.55,0,0,0-3.54,3.4A8.15,8.15,0,0,0,17.05,51.18Zm16.67-6.07-.34.59a1,1,0,0,1-1.72,0l-.34-.59a.38.38,0,0,1,.33-.57h1.74A.38.38,0,0,1,33.72,45.11ZM38.52,40a2.07,2.07,0,0,1,0,4.07,2.07,2.07,0,0,1,0-4.07ZM27.64,40a2.07,2.07,0,0,1,0,4.07,2.07,2.07,0,0,1,0-4.07Z"/><path d="M33.39,44.54H31.65a.38.38,0,0,0-.33.57l.34.59a1,1,0,0,0,1.72,0l.34-.59A.38.38,0,0,0,33.39,44.54Z"/><path d="M38.52,44.06a2.07,2.07,0,0,0,0-4.07,2.07,2.07,0,0,0,0,4.07Z"/><path d="M27.64,44.06a2.07,2.07,0,0,0,0-4.07,2.07,2.07,0,0,0,0,4.07Z"/><path d="M34.26,47.86a2.31,2.31,0,0,1-1.66-1,2.28,2.28,0,0,1-1.91.83c-1.3-.19-2-1.85-2.06-1.92a.31.31,0,0,1,.57-.25s.62,1.42,1.58,1.55c.5.07,1-.23,1.6-.9l.28-.33.22.36c.19.29.82,1,1.44,1s1-.62,1.52-1.67a.31.31,0,0,1,.41-.16.31.31,0,0,1,.16.41c-.58,1.3-1.27,2-2,2Z"/><path d="M30.68,47.55s1.84,2.36,3.67,0a7.81,7.81,0,0,0-1.73-1.14Z"/><path class="cls-5" d="M18.22,63.14a8.72,8.72,0,0,0,5.86,6c6.23,1.86,5.62-1,5.62-1Z"/><g class="cls-2"><rect class="cls-6" x="11.46" y="2.77" width="2.29" height="68.82" transform="matrix(0.99, -0.15, 0.15, 0.99, -5.39, 2.29)"/></g><rect class="cls-7" x="10.96" y="2.77" width="2.29" height="68.82" transform="matrix(0.99, -0.15, 0.15, 0.99, -5.39, 2.21)"/><g class="cls-2"><path class="cls-6" d="M8.62,5c7.24-5,18.74-.5,30.54-2.87a6,6,0,0,1,6.56,3.17c3.55,8.23,2.89,16.61,2.47,21.45-.67,1.08-1.33,4.94-17.38,3.58s-18,2.57-18,2.57Z"/></g><path class="cls-8" d="M8.12,3c7.24-5,18.74-.5,30.54-2.87a6,6,0,0,1,6.56,3.17c3.55,8.23,2.89,16.61,2.47,21.45-.67,1.08-1.33,4.94-17.38,3.58s-18,2.57-18,2.57Z"/><path class="cls-1" d="M23.47,14.88c2.46,1.65,4.3-.48,5.62-1.08A3.38,3.38,0,0,1,33.51,15,3.37,3.37,0,0,1,34,18.51a7.18,7.18,0,0,0-11.17-9C22.75,9.77,21.09,13.27,23.47,14.88Z"/><path class="cls-9" d="M33.51,15a3.38,3.38,0,0,0-4.42-1.15c-1.32.6-3.16,2.73-5.62,1.08s-.72-5.11-.62-5.33l0,0a9.12,9.12,0,0,0-1.55,2.59A7.15,7.15,0,0,0,23,19.54a1.07,1.07,0,0,0,.16.14l.15.14a7.31,7.31,0,0,0,9.57,0l.2-.18.1-.1a7.7,7.7,0,0,0,.86-1A3.37,3.37,0,0,0,33.51,15Z"/><path d="M28.26,15.66a2.22,2.22,0,0,1-1.58-.33c-.19-.14-.37-.27-.18-.53a.58.58,0,0,1,.77-.22,2,2,0,0,0,.36.16,1.16,1.16,0,0,0,1.21-.31.64.64,0,0,1,.2-.16.56.56,0,0,1,.72.09.47.47,0,0,1-.12.65,2.6,2.6,0,0,1-1.32.64Z"/><path d="M23.79,15c0-.2-.16-.48.18-.69s.78-.11.86.3a4.18,4.18,0,0,1,.09.71c0,.28-.19.45-.48.48a.55.55,0,0,1-.59-.37A3.17,3.17,0,0,1,23.79,15Z"/><path d="M32.35,13.86a2.15,2.15,0,0,1,0,.34.46.46,0,0,1-.48.51.5.5,0,0,1-.58-.39,6,6,0,0,1-.09-.61c0-.31.13-.51.47-.56a.46.46,0,0,1,.59.39c0,.11,0,.21,0,.32Z"/><path class="cls-4" d="M26,59c-.58,0-10.35-7.91-10.33.45,0,5.27,12.17,10.79,14.61,9.76s1.09-9.7,1.09-9.7Z"/><path d="M13.59,7.18a.42.42,0,0,1-.3-.12.43.43,0,0,1,0-.62l3.67-3.89a.44.44,0,1,1,.64.6L13.91,7A.41.41,0,0,1,13.59,7.18Z"/><path d="M15.17,8.72a.47.47,0,0,1-.31-.12.45.45,0,0,1,0-.62l3.67-3.89a.44.44,0,0,1,.65.6l-3.67,3.9A.45.45,0,0,1,15.17,8.72Z"/><path d="M16.64,10a.47.47,0,0,1-.31-.12.44.44,0,0,1,0-.62L20,5.35a.44.44,0,1,1,.64.6L17,9.84A.43.43,0,0,1,16.64,10Z"/><path d="M18.24,26.35a.42.42,0,0,1-.29-.11l-4-3.46a.45.45,0,0,1,0-.63.44.44,0,0,1,.62,0l4,3.47a.43.43,0,0,1,0,.62A.45.45,0,0,1,18.24,26.35Z"/><path d="M17,22.44a.47.47,0,0,1-.31-.12l-1.31-1.24a.44.44,0,0,1,0-.62.43.43,0,0,1,.62,0l1.31,1.23a.45.45,0,0,1,0,.63A.47.47,0,0,1,17,22.44Z"/><path d="M19.69,24.9a.47.47,0,0,1-.31-.12l-1.25-1.2a.45.45,0,0,1,0-.63.44.44,0,0,1,.63,0L20,24.14a.45.45,0,0,1,0,.63A.44.44,0,0,1,19.69,24.9Z"/><path d="M21.19,23.28a.45.45,0,0,1-.29-.1l-4.14-3.56a.44.44,0,0,1,0-.62.43.43,0,0,1,.62-.05l4.14,3.56a.44.44,0,0,1,0,.62A.43.43,0,0,1,21.19,23.28Z"/><path d="M37.21,6.67a.46.46,0,0,1-.3-.11L35.54,5.32a.45.45,0,0,1,.6-.66L37.5,5.9a.44.44,0,0,1,0,.63A.43.43,0,0,1,37.21,6.67Z"/><path d="M40,9.13a.5.5,0,0,1-.3-.11l-1.31-1.2a.45.45,0,0,1,0-.63.44.44,0,0,1,.63,0l1.31,1.19a.45.45,0,0,1,0,.63A.47.47,0,0,1,40,9.13Z"/><path d="M41.39,7.45a.39.39,0,0,1-.29-.11L37.18,3.93a.45.45,0,0,1,.59-.67l3.91,3.42a.44.44,0,0,1-.29.77Z"/><path d="M40.19,3.67a.42.42,0,0,1-.3-.12l-1.4-1.29a.45.45,0,0,1,0-.63.44.44,0,0,1,.63,0l1.4,1.29a.44.44,0,0,1,0,.63A.43.43,0,0,1,40.19,3.67Z"/><path d="M42.91,5.93a.42.42,0,0,1-.28-.1L41.37,4.76a.44.44,0,1,1,.57-.67L43.2,5.16a.44.44,0,0,1,0,.62A.45.45,0,0,1,42.91,5.93Z"/><path d="M39.17,20a.39.39,0,0,1-.3-.13.44.44,0,0,1,0-.62L40.06,18a.44.44,0,1,1,.64.6l-1.21,1.28A.43.43,0,0,1,39.17,20Z"/><path d="M40.72,21.39a.42.42,0,0,1-.3-.12.43.43,0,0,1,0-.62l1.21-1.27a.44.44,0,1,1,.64.6L41,21.26A.44.44,0,0,1,40.72,21.39Z"/><path d="M42.4,22.91a.42.42,0,0,1-.3-.12.44.44,0,0,1,0-.63l1.21-1.27a.44.44,0,1,1,.64.61l-1.21,1.27A.45.45,0,0,1,42.4,22.91Z"/><path d="M38.22,24.12a.42.42,0,0,1-.3-.12.43.43,0,0,1,0-.62l1.21-1.28a.44.44,0,0,1,.62,0,.43.43,0,0,1,0,.62L38.54,24A.42.42,0,0,1,38.22,24.12Z"/><path d="M39.78,25.43a.42.42,0,0,1-.3-.12.43.43,0,0,1,0-.62l1.21-1.28a.44.44,0,0,1,.62,0,.43.43,0,0,1,0,.62L40.1,25.3A.42.42,0,0,1,39.78,25.43Z"/><path d="M36.61,22.79a.47.47,0,0,1-.31-.12.44.44,0,0,1,0-.62l1.21-1.28a.45.45,0,0,1,.63,0,.44.44,0,0,1,0,.62l-1.2,1.27A.43.43,0,0,1,36.61,22.79Z"/></g></g></g></svg>