<svg width="227" height="207" viewBox="0 0 227 207" fill="none" xmlns="http://www.w3.org/2000/svg">
<g clip-path="url(#clip0_342_1597)">
<path d="M122.44 166.44C152.026 166.44 176.01 144.86 176.01 118.24C176.01 91.6199 152.026 70.04 122.44 70.04C92.8541 70.04 68.87 91.6199 68.87 118.24C68.87 144.86 92.8541 166.44 122.44 166.44Z" fill="#F05F6D"/>
<path d="M160.29 122C160.29 122 159.38 156.37 189.91 144.37C176.01 173.64 141.2 160.47 143.41 160.14L160.29 122Z" fill="#F05F6D"/>
<path d="M93.39 17.29C91.05 24.1 66.21 96.18 52 65.53C48.91 59 66.39 15.6 68.74 8.79C69.8672 5.52121 72.2467 2.83406 75.3551 1.3197C78.4635 -0.194653 82.0462 -0.412171 85.315 0.714999C88.5838 1.84217 91.2709 4.2217 92.7853 7.33011C94.2997 10.4385 94.5172 14.0212 93.39 17.29Z" fill="#5C80BC"/>
<path d="M93 88.85C93 97.8408 89.4284 106.463 83.0709 112.821C76.7134 119.178 68.0908 122.75 59.1 122.75C40.38 122.75 21.73 116.41 21.73 97.69C21.73 78.97 40.41 55 59.13 55C68.107 55.0079 76.7143 58.5762 83.0639 64.922C89.4134 71.2678 92.9867 79.873 93 88.85Z" fill="#F05F6D"/>
<path d="M125.78 33.2C121.52 39 76.36 100.44 71.86 66.93C70.86 59.79 100.5 23.56 104.77 17.76C105.784 16.3811 107.059 15.2154 108.524 14.3295C109.988 13.4435 111.612 12.8547 113.304 12.5965C114.996 12.3384 116.722 12.416 118.384 12.8249C120.046 13.2339 121.611 13.9662 122.99 14.98C124.369 15.9938 125.535 17.2693 126.421 18.7336C127.306 20.1979 127.895 21.8224 128.153 23.5142C128.412 25.2061 128.334 26.9323 127.925 28.5942C127.516 30.2561 126.784 31.8211 125.77 33.2H125.78Z" fill="#F05F6D"/>
<path d="M2.52 205.48H0V182.08H5.44C6.97714 181.968 8.49944 182.444 9.7 183.41C10.1955 183.887 10.5824 184.466 10.8343 185.106C11.0863 185.746 11.1973 186.433 11.16 187.12V193.24C11.2093 193.934 11.1059 194.63 10.8571 195.28C10.6083 195.929 10.2202 196.517 9.72 197C8.51043 197.963 6.98198 198.435 5.44 198.32H2.52V205.48ZM8.64 193.24V187.12C8.66236 186.728 8.59979 186.335 8.45654 185.969C8.3133 185.603 8.09276 185.273 7.81 185C7.14641 184.453 6.29816 184.181 5.44 184.24H2.52V196.12H5.44C7.57333 196.12 8.64 195.16 8.64 193.24Z" fill="#F05F6D"/>
<path d="M19.44 205.48H16.92V182.08H18L19 184.74C19.7733 182.613 21 181.547 22.68 181.54C25.5333 181.54 26.96 183.1 26.96 186.22V188.56H24.59V186.08C24.59 184.49 23.93 183.7 22.59 183.7C22.1426 183.734 21.7103 183.876 21.3304 184.115C20.9506 184.354 20.6346 184.682 20.41 185.07C19.6638 186.265 19.3139 187.665 19.41 189.07L19.44 205.48Z" fill="#F05F6D"/>
<path d="M43 186.58V201C43.0405 201.697 42.9241 202.393 42.6593 203.039C42.3945 203.685 41.988 204.262 41.47 204.73C40.1508 205.677 38.539 206.127 36.92 206C35.2838 206.115 33.6593 205.651 32.33 204.69C31.8127 204.23 31.4049 203.659 31.1367 203.021C30.8685 202.382 30.7466 201.692 30.78 201V186.6C30.7395 185.903 30.856 185.207 31.1208 184.561C31.3856 183.915 31.792 183.338 32.31 182.87C33.6293 181.904 35.2494 181.44 36.88 181.56C38.5162 181.445 40.1407 181.909 41.47 182.87C41.9865 183.334 42.392 183.909 42.6569 184.551C42.9217 185.193 43.0389 185.887 43 186.58ZM40.5 201V186.6C40.5 184.68 39.3 183.72 36.9 183.72C34.5 183.72 33.3 184.68 33.3 186.6V201C33.3 202.92 34.5 203.88 36.9 203.88C39.3 203.88 40.5 202.92 40.5 201Z" fill="#F05F6D"/>
<path d="M52.2 205.48H49.68V182.08H50.76L51.66 184.42C52.1144 183.544 52.8026 182.812 53.6481 182.303C54.4936 181.795 55.4635 181.531 56.45 181.54C59.9767 181.54 61.74 183.207 61.74 186.54V205.44H59.22V186.54C59.2671 185.786 59.0555 185.038 58.62 184.42C58.3408 184.135 57.9998 183.919 57.6236 183.787C57.2473 183.655 56.8458 183.612 56.45 183.66C55.3559 183.676 54.31 184.113 53.53 184.88C53.1552 185.163 52.8434 185.52 52.6144 185.93C52.3854 186.34 52.2443 186.793 52.2 187.26V205.48Z" fill="#F05F6D"/>
<path d="M68.22 201V182.1H70.74V201C70.6947 201.753 70.9024 202.499 71.33 203.12C71.6112 203.405 71.9539 203.621 72.3318 203.753C72.7097 203.885 73.1127 203.928 73.51 203.88C74.6062 203.865 75.6534 203.424 76.43 202.65C76.8036 202.368 77.1148 202.013 77.3437 201.605C77.5726 201.197 77.7144 200.746 77.76 200.28V182.08H80.28V205.48H79.2L78.26 203.17C77.7656 204.011 77.0805 204.723 76.26 205.25C75.4438 205.757 74.501 206.024 73.54 206.02C69.9933 206.007 68.22 204.333 68.22 201Z" fill="#F05F6D"/>
<path d="M90 205.48H87.48V182.08H88.56L89.46 184.42C89.9145 183.544 90.6026 182.812 91.4481 182.303C92.2936 181.795 93.2635 181.531 94.25 181.54C97.7833 181.54 99.5467 183.207 99.54 186.54V205.44H97V186.54C97.0472 185.786 96.8355 185.038 96.4 184.42C96.1208 184.135 95.7799 183.919 95.4036 183.787C95.0273 183.655 94.6258 183.612 94.23 183.66C93.1359 183.676 92.09 184.113 91.31 184.88C90.9341 185.169 90.6233 185.534 90.3976 185.951C90.1719 186.368 90.0364 186.827 90 187.3V205.48Z" fill="#F05F6D"/>
<path d="M115.2 201V199H117.72V201C117.763 201.692 117.652 202.385 117.396 203.03C117.14 203.675 116.746 204.255 116.24 204.73C114.973 205.694 113.397 206.16 111.81 206.04C110.214 206.152 108.631 205.687 107.35 204.73C106.836 204.26 106.434 203.681 106.173 203.036C105.911 202.391 105.798 201.695 105.84 201V186.6C105.798 185.909 105.908 185.217 106.162 184.572C106.416 183.928 106.808 183.347 107.31 182.87C108.578 181.908 110.153 181.442 111.74 181.56C113.339 181.446 114.925 181.911 116.21 182.87C116.722 183.342 117.122 183.921 117.383 184.566C117.644 185.211 117.759 185.905 117.72 186.6V190H115.2V186.58C115.2 184.66 114.06 183.7 111.78 183.7C109.5 183.7 108.36 184.66 108.36 186.58V201C108.36 202.92 109.5 203.88 111.78 203.88C114.06 203.88 115.2 202.92 115.2 201Z" fill="#F05F6D"/>
<path d="M126.54 205.48H124V182.08H126.52L126.54 205.48Z" fill="#F05F6D"/>
<path d="M133.56 194.68V192.52H144.36V194.68H133.56Z" fill="#F05F6D"/>
<path d="M154.51 182.08H158.29L163.58 205.48H161.06L159.84 200.08H153L151.78 205.48H149.26L154.51 182.08ZM156.38 184.89L153.43 197.89H159.33L156.38 184.89Z" fill="#F05F6D"/>
<path d="M180.07 201C180.07 204.333 178.04 206 173.98 206C169.92 206 167.893 204.333 167.9 201V197.94H170.42V201.14C170.404 201.52 170.476 201.9 170.633 202.247C170.789 202.594 171.024 202.9 171.32 203.14C172.129 203.612 173.049 203.86 173.985 203.86C174.921 203.86 175.841 203.612 176.65 203.14C176.949 202.903 177.187 202.598 177.344 202.25C177.501 201.902 177.571 201.521 177.55 201.14C177.576 200.463 177.484 199.786 177.28 199.14C177.029 198.545 176.654 198.009 176.18 197.57L169.84 191.38C169.187 190.765 168.667 190.023 168.31 189.2C168.014 188.339 167.875 187.431 167.9 186.52C167.859 185.827 167.972 185.134 168.229 184.489C168.487 183.844 168.883 183.264 169.39 182.79C170.69 181.824 172.295 181.359 173.91 181.48C177.783 181.48 179.717 183.147 179.71 186.48V189.54H177.19V186.33C177.209 185.954 177.143 185.578 176.996 185.232C176.848 184.885 176.624 184.577 176.34 184.33C175.578 183.859 174.701 183.61 173.805 183.61C172.909 183.61 172.032 183.859 171.27 184.33C170.984 184.576 170.759 184.884 170.611 185.231C170.464 185.577 170.398 185.954 170.42 186.33C170.393 187.006 170.477 187.682 170.67 188.33C170.916 188.916 171.3 189.434 171.79 189.84L178.23 196.03C178.847 196.672 179.335 197.425 179.67 198.25C179.971 199.134 180.107 200.067 180.07 201Z" fill="#F05F6D"/>
<path d="M189.07 205.48H186.55V182.08H189.07V205.48Z" fill="#F05F6D"/>
<path d="M207.43 205.48H206.35L205.41 203.17C204.926 204.018 204.239 204.733 203.41 205.25C202.602 205.759 201.665 206.026 200.71 206.02C197.263 206.02 195.537 204.353 195.53 201.02V197.42C195.53 194.087 197.257 192.42 200.71 192.42H204.89V186.51C204.908 186.136 204.843 185.763 204.7 185.417C204.556 185.071 204.338 184.761 204.06 184.51C203.357 183.982 202.487 183.726 201.61 183.79C199.48 183.79 198.41 184.7 198.41 186.52V188.65H195.89V186.65C195.847 185.963 195.951 185.275 196.196 184.631C196.441 183.988 196.821 183.404 197.31 182.92C198.528 181.959 200.063 181.491 201.61 181.61C203.169 181.496 204.715 181.963 205.95 182.92C206.449 183.399 206.837 183.981 207.09 184.625C207.342 185.269 207.451 185.96 207.41 186.65L207.43 205.48ZM204.91 194.48H200.73C200.347 194.436 199.96 194.48 199.597 194.61C199.235 194.74 198.907 194.952 198.64 195.23C198.225 195.86 198.026 196.607 198.07 197.36V201C198.024 201.75 198.224 202.494 198.64 203.12C198.905 203.401 199.232 203.617 199.595 203.749C199.958 203.881 200.346 203.926 200.73 203.88C201.782 203.864 202.788 203.445 203.54 202.71C204.281 202.145 204.773 201.312 204.91 200.39V194.48Z" fill="#F05F6D"/>
<path d="M216.79 205.48H214.27V182.08H215.35L216.25 184.42C216.704 183.544 217.393 182.812 218.238 182.303C219.084 181.795 220.053 181.531 221.04 181.54C224.56 181.54 226.33 183.22 226.33 186.54V205.44H223.81V186.54C223.857 185.786 223.646 185.038 223.21 184.42C222.931 184.135 222.59 183.919 222.214 183.787C221.837 183.655 221.436 183.612 221.04 183.66C219.946 183.676 218.9 184.113 218.12 184.88C217.745 185.163 217.433 185.52 217.204 185.93C216.975 186.34 216.834 186.793 216.79 187.26V205.48Z" fill="#F05F6D"/>
</g>
<defs>
<clipPath id="clip0_342_1597">
<rect width="226.33" height="206.02" fill="white"/>
</clipPath>
</defs>
</svg>
