<?xml version="1.0" encoding="utf-8"?>
<!-- Generator: Adobe Illustrator 26.2.1, SVG Export Plug-In . SVG Version: 6.00 Build 0)  -->
<svg version="1.1" id="Layer_1" xmlns="http://www.w3.org/2000/svg" xmlns:xlink="http://www.w3.org/1999/xlink" x="0px" y="0px"
	 viewBox="0 0 50 40" style="enable-background:new 0 0 50 40;" xml:space="preserve">
<style type="text/css">
	.st0{fill:#FFFFFF;}
	.st1{fill:none;stroke:#FFFFFF;stroke-width:2;stroke-linecap:round;stroke-linejoin:round;}
</style>
<path class="st0" d="M29.5,8.8V2c0-1.2-1-2.2-2.2-2.2h-4.5c-1.2,0-2.2,1-2.2,2.2v6.8c0,1.2,1,2.2,2.2,2.2h4.5
	C28.5,11,29.5,10,29.5,8.8z M25,2c1.2,0,2.2,1,2.2,2.2s-1,2.2-2.2,2.2s-2.2-1-2.2-2.2S23.8,2,25,2z M43,31.2v-18
	c0-2.5-2-4.5-4.5-4.5h-6.8v0.7c0,2.1-1.7,3.8-3.8,3.8h-6c-2.1,0-3.8-1.7-3.8-3.8V8.8h-6.8C9,8.8,7,10.8,7,13.2v18
	c0,2.5,2,4.5,4.5,4.5h27C41,35.8,43,33.7,43,31.2z M40.8,17.8v13.5H9.2V17.8H40.8z"/>
<path class="st1" d="M32.5,24.1h1.9 M20.6,25.2h2.5 M30,26.2v-4.4l-1.9,3.8l-1.9-3.8v4.4 M35,21.9h-2.5v4.4H35V21.9z M23.8,26.2
	l-1.9-4.4L20,26.2H23.8z M14.4,26.2v-4.4l3.1,4.4v-4.4L14.4,26.2z"/>
</svg>
