<svg width="36" height="36" viewBox="0 0 36 36" fill="none" xmlns="http://www.w3.org/2000/svg">
<path d="M25.5 24.3129H27.375M13.625 25.4529H16.125M23 26.5004V22.1254L21.125 25.8754L19.25 22.1254V26.5004M28 22.1254H25.5V26.5004H28V22.1254ZM16.75 26.5004L14.875 22.1254L13 26.5004H16.75ZM7.375 26.5004V22.1254L10.5 26.5004V22.1254L7.375 26.5004Z" stroke="#FC5F6C" stroke-width="2" stroke-linecap="round" stroke-linejoin="round"/>
<path d="M22.5 9V2.25C22.5 1.0125 21.4875 0 20.25 0H15.75C14.5125 0 13.5 1.0125 13.5 2.25V9C13.5 10.2375 14.5125 11.25 15.75 11.25H20.25C21.4875 11.25 22.5 10.2375 22.5 9ZM18 2.25C19.2375 2.25 20.25 3.2625 20.25 4.5C20.25 5.7375 19.2375 6.75 18 6.75C16.7625 6.75 15.75 5.7375 15.75 4.5C15.75 3.2625 16.7625 2.25 18 2.25ZM36 31.5V13.5C36 11.025 33.975 9 31.5 9H24.75V9.7425C24.75 11.8125 23.0625 13.5 20.9925 13.5H15.0075C12.9375 13.5 11.25 11.8125 11.25 9.7425V9H4.5C2.025 9 0 11.025 0 13.5V31.5C0 33.975 2.025 36 4.5 36H31.5C33.975 36 36 33.975 36 31.5ZM33.75 18V31.5H2.25V18H33.75Z" fill="#FC5F6C"/>
</svg>
