<?xml version="1.0" encoding="UTF-8"?><svg xmlns="http://www.w3.org/2000/svg" viewBox="0 0 30.14 31.63"><defs><style>.d{fill:#fff;}</style></defs><g id="a"/><g id="b"><g id="c"><g><path class="d" d="M29.84,20.62c0,.2,0,.3-.1,.5v.1c-.6,1.8-1.6,3.4-2.8,4.8l-.1,.1c-.1,.2-.3,.3-.6,.4-.2,.1-.5,.1-.7,0l-2.9-1c-1,.9-2.2,1.5-3.5,2l-.6,3c0,.2-.2,.4-.3,.6-.2,.2-.4,.3-.6,.3h-.1c-.9,.2-1.9,.2-2.8,.2h0c.9,0,1.9-.1,2.8-.2h.1c.2,0,.4-.1,.6-.3s.3-.4,.3-.6l.6-3c1.3-.5,2.4-1.2,3.5-2l2.9,1c.2,.1,.4,.1,.7,0,.2-.1,.4-.2,.6-.4l.1-.1c1.2-1.4,2.2-3.1,2.8-4.8v-.1c.1-.2,.1-.4,.1-.5h0Z"/><path class="d" d="M21.14,15.52c0-1.1-.3-2.1-.7-2.9-1-1.9-3.1-3.2-5.4-3.2-3.4,0-6.2,2.8-6.2,6.2,0,2.4,1.3,4.4,3.2,5.4,.9,.5,1.9,.7,2.9,.7,3.4,0,6.2-2.8,6.2-6.2Zm-10.1,0c0-1.1,.4-2,1.2-2.8,.7-.7,1.7-1.2,2.8-1.2s2,.4,2.8,1.2c.4,.4,.7,.8,.9,1.3,.2,.5,.3,1,.3,1.5,0,1.1-.4,2-1.2,2.8-.4,.4-.8,.7-1.3,.9-.5,.2-1,.3-1.5,.3-1.1,0-2-.4-2.8-1.2-.4-.4-.7-.8-.9-1.3-.2-.5-.3-1-.3-1.5h0Z"/><path class="d" d="M17.84,31.32c.2,0,.4-.1,.6-.3,.2-.2,.3-.4,.3-.6l.6-3c1.3-.5,2.5-1.2,3.5-2l2.9,1c.2,.1,.4,.1,.7,0,.2-.1,.4-.2,.6-.4l.1-.1c1.2-1.4,2.2-3.1,2.8-4.8v-.1c.1-.2,.1-.3,.1-.5,0-.3-.2-.5-.4-.7l-2.3-2h0c.1-.7,.2-1.3,.2-2,0-.6,0-1.2-.1-1.8v-.2h0l2.3-2c.2-.2,.4-.5,.4-.8,0-.1,0-.3-.1-.4v-.1c-.6-1.8-1.6-3.4-2.8-4.8l-.1-.1c-.1-.2-.3-.3-.6-.4h-.9l-2.9,1c-1.1-.9-2.2-1.5-3.5-2h0l-.6-3v-.1l-.3-.6c-.2-.2-.4-.3-.6-.3h-.1C15.84-.08,13.84-.08,12.04,.23h-.1c-.2,0-.4,.1-.6,.3s-.2,.5-.2,.7l-.6,3c-1.3,.5-2.4,1.2-3.5,2l-2.8-1h-.7c-.2,.1-.4,.2-.6,.4v.1C1.74,7.13,.74,8.83,.14,10.53v.1c-.1,.2-.1,.4,0,.6,0,.2,.2,.4,.3,.6H.44l2.3,2h0c-.1,.7-.2,1.3-.2,2s.1,1.3,.2,2L.44,19.83c-.2,.1-.3,.3-.4,.6s0,.5,0,.7v.1c.6,1.8,1.6,3.4,2.8,4.8l.1,.1c.2,.2,.4,.3,.7,.4h.6l2.9-1h0c1,.9,2.2,1.5,3.5,2l.6,3c0,.2,.2,.4,.3,.6,.1,.2,.4,.3,.6,.3h.1c.9,.2,1.9,.2,2.8,.2h0c.8,0,1.8-.1,2.8-.3h0Zm-1.4-2.3c-1,.1-2,.1-3,0l-.6-3.4-1.4-.6c-1-.4-1.9-.9-2.8-1.6l-1.1-.9-3.3,1.2c-.6-.8-1.1-1.7-1.5-2.6l2.7-2.3-.2-1.4c-.1-.5-.1-1.1-.1-1.6s0-1.1,.1-1.6l.2-1.4-2.7-2.3c.4-.9,.9-1.8,1.5-2.6l3.3,1.2,1.2-.9c.8-.7,1.7-1.2,2.7-1.6l1.3-.5,.7-3.4c1-.1,2-.1,3,0l.6,3.4,1.3,.5c1,.4,1.9,.9,2.8,1.6l1.1,.9,3.3-1.2c.6,.8,1.1,1.7,1.5,2.6l-2.6,2.3,.2,1.4c.1,.5,.1,1.1,.1,1.6s0,1.1-.1,1.6l-.2,1.5,2.6,2.2c-.4,.9-.9,1.8-1.5,2.6l-3.3-1.2-1.1,.9c-.8,.7-1.8,1.2-2.8,1.6l-1.3,.5-.6,3.5h0Z"/></g></g></g></svg>