<?xml version="1.0" encoding="UTF-8"?><svg xmlns="http://www.w3.org/2000/svg" viewBox="0 0 205.6 238.14"><defs><style>.d{fill:#fff;}.e{fill:#c64259;isolation:isolate;}.e,.f{opacity:.75;}</style></defs><g id="a"/><g id="b"><g id="c"><g><g class="f"><path class="e" d="M103.5,175.1h-9.03c-.35,0-.7,.1-1,.27-.3,.18-.56,.43-.73,.73-.18,.3-.27,.65-.27,1,0,.35,.09,.7,.26,1l1.75,3.06c.5,.72,1.18,1.31,1.96,1.72,.78,.41,1.65,.62,2.53,.62s1.75-.21,2.53-.62c.78-.41,1.45-1,1.96-1.72l1.8-3.06c.17-.31,.26-.65,.26-1,0-.35-.1-.69-.28-1-.18-.3-.43-.55-.73-.73-.3-.18-.65-.27-1-.27Z"/><path class="e" d="M130.21,172.64c2.22,.46,4.52,.23,6.6-.67,2.08-.9,3.82-2.42,5-4.36,1.18-1.93,1.72-4.18,1.56-6.44-.16-2.26-1.02-4.41-2.45-6.15-1.44-1.75-3.38-3.01-5.57-3.61-2.18-.6-4.5-.51-6.63,.26-2.13,.77-3.97,2.18-5.26,4.04-1.29,1.86-1.98,4.07-1.96,6.33-.23,2.55,.55,5.09,2.18,7.07,1.63,1.98,3.97,3.25,6.52,3.52Z"/><path class="e" d="M73.56,172.64c2.34-.61,4.42-1.98,5.9-3.89,1.48-1.91,2.28-4.26,2.28-6.68s-.8-4.76-2.28-6.68c-1.48-1.91-3.55-3.28-5.9-3.89-2.34,.61-4.42,1.98-5.9,3.89-1.48,1.91-2.28,4.26-2.28,6.68s.8,4.76,2.28,6.68c1.48,1.91,3.55,3.28,5.9,3.89Z"/><path class="e" d="M108.04,192.41c-1.72-.17-3.39-.7-4.89-1.55-1.5-.86-2.8-2.02-3.82-3.42-1.18,1.47-2.71,2.63-4.45,3.39-1.74,.75-3.63,1.07-5.51,.93-6.46-.98-10.51-9.78-10.67-9.78-.09-.19-.14-.4-.15-.61,0-.21,.03-.42,.11-.62,.08-.2,.19-.38,.34-.53,.15-.15,.33-.28,.52-.36,.19-.09,.4-.14,.62-.15,.21,0,.43,.03,.63,.1,.2,.08,.38,.19,.53,.34,.15,.15,.28,.33,.36,.52,0,0,3.28,7.37,8.21,8.08,2.63,.38,5.47-1.2,8.38-4.7l1.42-1.69,1.2,1.86c.93,1.53,4.1,5.46,7.44,5.13,3.34-.33,5.47-3.17,7.99-8.68,.08-.2,.2-.37,.36-.52,.15-.15,.34-.26,.54-.34,.2-.08,.41-.11,.62-.1,.21,0,.42,.06,.62,.15,.39,.18,.69,.5,.84,.9,.15,.4,.14,.84-.02,1.23-3.01,6.77-6.62,10.32-10.95,10.6l-.27-.16Z"/></g><path class="d" d="M7.44,209.62c3.49,5.01,7.94,9.27,13.08,12.56,20.36,13.05,96.44,24.31,140.89,7.48,4.88-1.76,9.54-4.07,13.9-6.88,4.39-2.81,8.13-6.54,10.95-10.92,19.16-29.88-16.42-80.02-16.42-80.02,0,0,70.28-82.7,13.79-112.14-21.51-11.2-36.45-2.02-46.74,13.6l-1.09,3.66c0-18.19-7.39-33.87-32.46-36.65C40.12-6.63,60.48,105.51,60.48,105.51c0,0-36.4,10-36.4,41.35-7.75,3.93-14.15,10.07-18.39,17.64C1.68,171.42-.28,179.33,.03,187.31c.31,7.98,2.88,15.72,7.41,22.31Zm86.86-31.52l-1.81,3.06c-.5,.72-1.18,1.31-1.96,1.72-.78,.41-1.65,.62-2.53,.62s-1.75-.21-2.53-.62c-.78-.41-1.45-1-1.96-1.72l-1.75-3.06c-.17-.31-.26-.65-.26-1,0-.35,.1-.69,.28-1,.18-.3,.43-.55,.73-.73,.3-.18,.65-.27,1-.27h9.03c.35,0,.7,.1,1,.27,.3,.18,.56,.43,.73,.73,.18,.3,.27,.65,.27,1,0,.35-.08,.7-.26,1Z"/><path d="M92.55,175.1h-9.03c-.35,0-.7,.1-1,.27-.3,.18-.56,.43-.73,.73-.18,.3-.27,.65-.28,1,0,.35,.08,.7,.26,1l1.75,3.06c.51,.72,1.18,1.31,1.96,1.72,.78,.41,1.65,.62,2.53,.62s1.75-.21,2.53-.62c.78-.41,1.45-1,1.96-1.72l1.81-3.06c.17-.31,.26-.65,.26-1,0-.35-.1-.7-.27-1-.18-.3-.43-.56-.73-.73s-.65-.27-1-.27Z"/><path d="M117.36,172.89c1.83,.46,3.73,.23,5.44-.67,1.71-.89,3.15-2.4,4.12-4.32,.97-1.92,1.42-4.15,1.29-6.39-.13-2.24-.84-4.37-2.02-6.1-1.18-1.73-2.79-2.99-4.59-3.58-1.8-.6-3.71-.5-5.47,.26-1.76,.76-3.27,2.16-4.34,4.01-1.07,1.84-1.63,4.03-1.61,6.28-.19,2.53,.46,5.05,1.8,7.02,1.34,1.97,3.27,3.22,5.38,3.49Z"/><path d="M63.12,170.48c1.83,.46,3.73,.23,5.44-.67,1.71-.89,3.15-2.4,4.12-4.32,.97-1.92,1.42-4.15,1.29-6.39-.13-2.24-.84-4.37-2.02-6.1-1.18-1.73-2.79-2.99-4.59-3.58-1.8-.6-3.71-.5-5.47,.26-1.76,.76-3.27,2.16-4.34,4.01-1.07,1.84-1.63,4.03-1.61,6.28-.19,2.53,.46,5.05,1.8,7.02,1.34,1.97,3.27,3.22,5.38,3.49Z"/><path d="M97.09,192.41c-1.72-.17-3.39-.7-4.89-1.55-1.5-.86-2.8-2.02-3.82-3.42-1.19,1.47-2.71,2.63-4.45,3.39-1.74,.75-3.63,1.07-5.51,.93-6.46-.98-10.51-9.78-10.67-9.78-.09-.19-.14-.4-.15-.61,0-.21,.03-.42,.1-.62,.08-.2,.19-.38,.34-.53,.15-.15,.33-.28,.52-.36,.19-.09,.4-.14,.62-.15,.21,0,.43,.03,.62,.1,.2,.08,.38,.19,.53,.34,.15,.15,.28,.33,.36,.52,0,0,3.28,7.37,8.21,8.08,2.63,.38,5.47-1.2,8.38-4.7l1.42-1.69,1.2,1.86c.93,1.53,4.1,5.46,7.44,5.13,3.34-.33,5.47-3.17,7.99-8.68,.08-.2,.21-.37,.36-.52,.15-.15,.34-.26,.54-.34,.2-.08,.41-.11,.62-.1,.21,0,.42,.06,.62,.15,.39,.18,.69,.5,.84,.9,.15,.4,.14,.84-.02,1.23-3.01,6.77-6.62,10.32-10.95,10.6l-.27-.16Z"/></g></g></g></svg>