<?xml version="1.0" encoding="UTF-8"?><svg xmlns="http://www.w3.org/2000/svg" viewBox="0 0 25.19 26.42"><defs><style>.d{fill:#fff;}</style></defs><g id="a"/><g id="b"><g id="c"><g><path class="d" d="M24.94,17.23c0,.17,0,.25-.08,.42v.08c-.5,1.5-1.34,2.84-2.34,4.01l-.08,.08c-.08,.17-.25,.25-.5,.33-.17,.08-.42,.08-.58,0l-2.42-.84c-.84,.75-1.84,1.25-2.92,1.67l-.5,2.51c0,.17-.17,.33-.25,.5-.17,.17-.33,.25-.5,.25h-.08c-.75,.17-1.59,.17-2.34,.17h0c.75,0,1.59-.08,2.34-.17h.08c.17,0,.33-.08,.5-.25s.25-.33,.25-.5l.5-2.51c1.09-.42,2.01-1,2.92-1.67l2.42,.84c.17,.08,.33,.08,.58,0,.17-.08,.33-.17,.5-.33l.08-.08c1-1.17,1.84-2.59,2.34-4.01v-.08c.08-.17,.08-.33,.08-.42h0Z"/><path class="d" d="M17.67,12.97c0-.92-.25-1.75-.58-2.42-.84-1.59-2.59-2.67-4.51-2.67-2.84,0-5.18,2.34-5.18,5.18,0,2.01,1.09,3.68,2.67,4.51,.75,.42,1.59,.58,2.42,.58,2.84,0,5.18-2.34,5.18-5.18Zm-8.44,0c0-.92,.33-1.67,1-2.34,.58-.58,1.42-1,2.34-1s1.67,.33,2.34,1c.33,.33,.58,.67,.75,1.09,.17,.42,.25,.84,.25,1.25,0,.92-.33,1.67-1,2.34-.33,.33-.67,.58-1.09,.75-.42,.17-.84,.25-1.25,.25-.92,0-1.67-.33-2.34-1-.33-.33-.58-.67-.75-1.09-.17-.42-.25-.84-.25-1.25h0Z"/><path class="d" d="M14.91,26.17c.17,0,.33-.08,.5-.25,.17-.17,.25-.33,.25-.5l.5-2.51c1.09-.42,2.09-1,2.92-1.67l2.42,.84c.17,.08,.33,.08,.58,0,.17-.08,.33-.17,.5-.33l.08-.08c1-1.17,1.84-2.59,2.34-4.01v-.08c.08-.17,.08-.25,.08-.42,0-.25-.17-.42-.33-.58l-1.92-1.67h0c.08-.58,.17-1.09,.17-1.67,0-.5,0-1-.08-1.5v-.17h0l1.92-1.67c.17-.17,.33-.42,.33-.67,0-.08,0-.25-.08-.33v-.08c-.5-1.5-1.34-2.84-2.34-4.01l-.08-.08c-.08-.17-.25-.25-.5-.33h-.75l-2.42,.84c-.92-.75-1.84-1.25-2.92-1.67h0l-.5-2.51v-.08l-.25-.5c-.17-.17-.33-.25-.5-.25h-.08C13.24-.06,11.57-.06,10.06,.19h-.08c-.17,0-.33,.08-.5,.25s-.17,.42-.17,.58l-.5,2.51c-1.09,.42-2.01,1-2.92,1.67l-2.34-.84h-.58c-.17,.08-.33,.17-.5,.33v.08C1.46,5.95,.62,7.37,.12,8.79v.08c-.08,.17-.08,.33,0,.5,0,.17,.17,.33,.25,.5H.37l1.92,1.67h0c-.08,.58-.17,1.09-.17,1.67s.08,1.09,.17,1.67l-1.92,1.67c-.17,.08-.25,.25-.33,.5s0,.42,0,.58v.08c.5,1.5,1.34,2.84,2.34,4.01l.08,.08c.17,.17,.33,.25,.58,.33h.5l2.42-.84h0c.84,.75,1.84,1.25,2.92,1.67l.5,2.51c0,.17,.17,.33,.25,.5,.08,.17,.33,.25,.5,.25h.08c.75,.17,1.59,.17,2.34,.17h0c.67,0,1.5-.08,2.34-.25h0Zm-1.17-1.92c-.84,.08-1.67,.08-2.51,0l-.5-2.84-1.17-.5c-.84-.33-1.59-.75-2.34-1.34l-.92-.75-2.76,1c-.5-.67-.92-1.42-1.25-2.17l2.26-1.92-.17-1.17c-.08-.42-.08-.92-.08-1.34s0-.92,.08-1.34l.17-1.17-2.26-1.92c.33-.75,.75-1.5,1.25-2.17l2.76,1,1-.75c.67-.58,1.42-1,2.26-1.34l1.09-.42,.58-2.84c.84-.08,1.67-.08,2.51,0l.5,2.84,1.09,.42c.84,.33,1.59,.75,2.34,1.34l.92,.75,2.76-1c.5,.67,.92,1.42,1.25,2.17l-2.17,1.92,.17,1.17c.08,.42,.08,.92,.08,1.34s0,.92-.08,1.34l-.17,1.25,2.17,1.84c-.33,.75-.75,1.5-1.25,2.17l-2.76-1-.92,.75c-.67,.58-1.5,1-2.34,1.34l-1.09,.42-.5,2.92h0Z"/></g></g></g></svg>