<svg width="36" height="36" viewBox="0 0 36 36" fill="none" xmlns="http://www.w3.org/2000/svg">
<path d="M30.2098 20.0285L30.2168 20.032C30.3258 19.3676 30.3785 18.6891 30.3785 18.0176C30.3785 17.4164 30.3328 16.8117 30.2485 16.2211C30.3328 16.8082 30.375 17.4023 30.375 17.9965C30.375 18.6785 30.3188 19.3605 30.2098 20.0285ZM3.48049 13.9957C3.46292 13.9816 3.44885 13.9676 3.43127 13.95C3.45588 13.9746 3.48049 13.9992 3.50862 14.0238L5.81135 15.9891V15.9855L3.48049 13.9957ZM22.3453 6.40195H22.3489L21.8039 3.45586C21.7969 3.4207 21.7899 3.38906 21.7793 3.35742C21.7828 3.375 21.7899 3.39609 21.7934 3.41367L22.3453 6.40195ZM24.2438 25.6148L25.3477 24.7078L28.6102 25.8645C29.2078 25.0594 29.7106 24.1945 30.1078 23.277L27.4817 21.0305L27.7137 19.6207C27.8016 19.0898 27.8473 18.5449 27.8473 18C27.8473 17.4551 27.8016 16.9102 27.7137 16.3793L27.4852 14.9766L30.1114 12.7301C29.7106 11.816 29.2114 10.9477 28.6137 10.1426L25.3512 11.2992L24.2473 10.3922C23.4071 9.70312 22.4684 9.16172 21.4594 8.78203L20.1199 8.2793L19.4906 4.86914C18.4977 4.75664 17.4953 4.75664 16.5024 4.86914L15.8731 8.28633L14.5406 8.78906C13.5387 9.16875 12.6071 9.71016 11.7739 10.3957L10.6699 11.3062L7.38635 10.1391C6.7887 10.9441 6.28596 11.809 5.8887 12.7266L8.54299 14.9941L8.31448 16.4004C8.22659 16.9242 8.1844 17.4621 8.1844 18C8.1844 18.5344 8.2301 19.0758 8.31448 19.5996L8.54299 21.0059L5.8887 23.2734C6.28948 24.1875 6.7887 25.0559 7.38635 25.8609L10.6699 24.6937L11.7739 25.6043C12.6071 26.2898 13.5387 26.8312 14.5406 27.2109L15.8696 27.7207L16.4989 31.1379C17.4903 31.2504 18.4992 31.2504 19.4871 31.1379L20.1164 27.7277L21.4559 27.225C22.4684 26.8453 23.4035 26.3039 24.2438 25.6148ZM18.0176 23.8465C16.9453 23.8465 15.9364 23.5723 15.0539 23.0906C13.1239 22.043 11.8125 20.0004 11.8125 17.6484C11.8125 14.2312 14.5828 11.4609 18 11.4609C20.352 11.4609 22.3946 12.7723 23.4422 14.7023C23.9239 15.5812 24.1981 16.5902 24.1981 17.666C24.1981 21.0797 21.4313 23.8465 18.0176 23.8465ZM7.2844 28.575C7.09104 28.6418 6.89065 28.6559 6.70081 28.6172C6.9012 28.6594 7.11213 28.6523 7.31604 28.582L10.1778 27.5625C10.1742 27.559 10.1672 27.5555 10.1637 27.552L7.2844 28.575ZM32.5125 13.9957L30.2098 15.9645C30.2098 15.9715 30.2133 15.982 30.2133 15.9891L32.5125 14.0238C32.7621 13.8094 32.9028 13.5 32.9063 13.1801C32.8957 13.4895 32.7551 13.7883 32.5125 13.9957Z" fill="#E7E7E7"/>
<path d="M32.8992 22.7324C32.9168 22.8977 32.8992 23.0664 32.8394 23.2281L32.8078 23.3195C32.1723 25.0906 31.2231 26.7328 30.0058 28.1676L29.9426 28.2414C29.7951 28.4157 29.598 28.541 29.3776 28.6007C29.1572 28.6604 28.9239 28.6515 28.7086 28.5754L25.8504 27.5594C24.8018 28.4232 23.6174 29.1075 22.3453 29.5844L21.7933 32.5727C21.7517 32.7975 21.6426 33.0044 21.4806 33.1658C21.3186 33.3271 21.1113 33.4354 20.8863 33.4762L20.7914 33.4938C19.8726 33.6598 18.9407 33.7434 18.007 33.7434H18.0176C18.9562 33.7434 19.8949 33.659 20.809 33.4938L20.9039 33.4762C21.1289 33.4354 21.3362 33.3271 21.4982 33.1658C21.6602 33.0044 21.7693 32.7975 21.8109 32.5727L22.3629 29.5879C23.6355 29.1098 24.8098 28.4313 25.8644 27.5664L28.7191 28.5824C28.9344 28.6586 29.1678 28.6674 29.3882 28.6077C29.6086 28.5481 29.8056 28.4228 29.9531 28.2484L30.0164 28.1746C31.2398 26.7297 32.1785 25.102 32.8148 23.3336L32.8465 23.2422C32.9027 23.077 32.9203 22.9012 32.8992 22.7324Z" fill="#E7E7E7"/>
<path d="M24.1875 17.6484C24.1875 16.5832 23.9168 15.5777 23.4422 14.7023C22.3945 12.7723 20.352 11.4609 18 11.4609C14.5828 11.4609 11.8125 14.2313 11.8125 17.6484C11.8125 20.0004 13.1238 22.043 15.0539 23.0906C15.9293 23.5652 16.9313 23.8359 18 23.8359C21.4172 23.8359 24.1875 21.0656 24.1875 17.6484ZM14.0625 17.6484C14.0625 16.5973 14.4738 15.6094 15.2156 14.8641C15.9609 14.1187 16.9488 13.7109 18 13.7109C19.0512 13.7109 20.0391 14.1187 20.7844 14.8641C21.1506 15.2293 21.441 15.6633 21.6389 16.1411C21.8368 16.619 21.9383 17.1312 21.9375 17.6484C21.9375 18.6996 21.5262 19.6875 20.7844 20.4328C20.4192 20.7991 19.9852 21.0895 19.5073 21.2874C19.0295 21.4853 18.5172 21.5867 18 21.5859C16.9488 21.5859 15.9609 21.1746 15.2156 20.4328C14.8494 20.0676 14.559 19.6336 14.3611 19.1558C14.1632 18.6779 14.0617 18.1656 14.0625 17.6484Z" fill="#FF3333"/>
<path d="M20.8863 33.4762C21.1114 33.4354 21.3186 33.3271 21.4806 33.1657C21.6427 33.0044 21.7517 32.7975 21.7934 32.5727L22.3453 29.5844C23.6175 29.1075 24.8019 28.4232 25.8504 27.5594L28.7086 28.5754C28.9239 28.6515 29.1572 28.6604 29.3777 28.6007C29.5981 28.541 29.7951 28.4157 29.9426 28.2414L30.0059 28.1676C31.2293 26.7227 32.1715 25.0914 32.8078 23.3195L32.8395 23.2281C32.8992 23.0664 32.9168 22.8977 32.8992 22.7324C32.8676 22.4547 32.734 22.191 32.5125 21.9977L30.2168 20.0324L30.2098 20.0289C30.3188 19.3609 30.375 18.6789 30.375 17.9969C30.375 17.4027 30.3328 16.8051 30.2485 16.2215C30.2379 16.1441 30.2238 16.0668 30.2133 15.9895C30.2133 15.9824 30.2098 15.9719 30.2098 15.9648L32.5125 13.9961C32.7551 13.7887 32.8957 13.4898 32.9063 13.1805C32.9098 13.0398 32.8887 12.8957 32.8395 12.7586L32.8078 12.6672C32.1739 10.8954 31.2246 9.25294 30.0059 7.81914L29.9426 7.74531C29.7947 7.57147 29.5977 7.44651 29.3774 7.38689C29.1571 7.32726 28.924 7.33579 28.7086 7.41133L25.8504 8.42734C24.7957 7.5625 23.6215 6.88047 22.3488 6.40234H22.3453L21.7934 3.41406C21.7899 3.39648 21.7863 3.37539 21.7793 3.35781C21.7286 3.14526 21.6171 2.95202 21.4586 2.80161C21.3001 2.65119 21.1013 2.55008 20.8863 2.51055L20.7914 2.49297C18.9598 2.1625 17.0332 2.1625 15.2016 2.49297L15.1067 2.51055C14.8816 2.55132 14.6744 2.65959 14.5124 2.82097C14.3503 2.98235 14.2413 3.18921 14.1996 3.41406L13.6442 6.41641C12.3817 6.89463 11.206 7.5763 10.1637 8.43437L7.28439 7.41133C7.06912 7.33519 6.83577 7.32636 6.61535 7.38601C6.39494 7.44567 6.1979 7.57099 6.05041 7.74531L5.98713 7.81914C4.76983 9.25395 3.82072 10.8961 3.18518 12.6672L3.15353 12.7586C3.08027 12.9629 3.06751 13.184 3.11677 13.3954C3.16603 13.6068 3.27523 13.7995 3.43127 13.9504C3.44885 13.9645 3.46291 13.982 3.48049 13.9961L5.81135 15.9859V15.9895C5.70236 16.6504 5.64963 17.3219 5.64963 17.9934C5.64963 18.6684 5.70236 19.3434 5.81135 20.0008L3.48049 21.9906C3.3068 22.1393 3.18249 22.3373 3.12409 22.5584C3.06568 22.7795 3.07596 23.0131 3.15353 23.2281L3.18518 23.3195C3.8215 25.0914 4.76369 26.7262 5.98713 28.1676L6.05041 28.2414C6.22268 28.4418 6.45119 28.5719 6.7008 28.6176C6.89064 28.6527 7.09103 28.6422 7.28439 28.5754L10.1637 27.5523C10.1672 27.5559 10.1742 27.5594 10.1778 27.5629C11.2219 28.4172 12.3856 29.0957 13.6442 29.5703L14.1996 32.5727C14.2413 32.7975 14.3503 33.0044 14.5124 33.1657C14.6744 33.3271 14.8816 33.4354 15.1067 33.4762L15.2016 33.4937C16.1192 33.659 17.0578 33.7434 17.9965 33.7434H18.007C18.9422 33.7434 19.8809 33.659 20.7914 33.4937L20.8863 33.4762ZM19.4871 31.1383C18.4942 31.2508 17.4918 31.2508 16.4988 31.1383L15.8695 27.7211L14.5406 27.2113C13.5387 26.8316 12.607 26.2902 11.7738 25.6047L10.6699 24.6941L7.38635 25.8613C6.78869 25.0562 6.28947 24.1879 5.88869 23.2738L8.54299 21.0062L8.31447 19.6C8.2301 19.0762 8.18439 18.5348 8.18439 18.0004C8.18439 17.4625 8.22658 16.9246 8.31447 16.4008L8.54299 14.9945L5.88869 12.727C6.28596 11.8094 6.78869 10.9445 7.38635 10.1395L10.6699 11.3066L11.7738 10.3961C12.607 9.71055 13.5387 9.16914 14.5406 8.78945L15.8731 8.28672L16.5024 4.86953C17.4903 4.75703 18.4992 4.75703 19.4906 4.86953L20.1199 8.27969L21.4594 8.78242C22.4684 9.16211 23.407 9.70352 24.2473 10.3926L25.3512 11.2996L28.6137 10.143C29.2113 10.948 29.7106 11.8164 30.1113 12.7305L27.4852 14.977L27.7137 16.3797C27.8016 16.9105 27.8473 17.4555 27.8473 18.0004C27.8473 18.5453 27.8016 19.0902 27.7137 19.6211L27.4817 21.0309L30.1078 23.2773C29.7097 24.1945 29.2072 25.0628 28.6102 25.8648L25.3477 24.7082L24.2438 25.6152C23.4035 26.3043 22.4684 26.8457 21.4559 27.2254L20.1164 27.7281L19.4871 31.1383Z" fill="#FF3333"/>
</svg>
