<svg width="70" height="50" viewBox="0 0 70 50" fill="none" xmlns="http://www.w3.org/2000/svg">
<path d="M0 4.85112C12.6711 -3.20308 32.8465 4.05705 53.637 0.200113C55.8513 -0.253644 58.3117 0.0866703 60.2801 0.994185C62.2484 1.9017 64.0937 3.48986 65.0779 5.30489C71.3519 18.5773 70.1217 32.19 69.3836 40.0173C68.1534 41.7189 67.0462 47.9581 38.8745 45.8027C10.7028 43.6474 7.25824 50 7.25824 50L0 4.85112Z" fill="#EFEDFF"/>
<path d="M26.9415 24.0228C31.2473 26.7454 34.4458 23.2288 36.7832 22.3212C38.1364 21.6406 39.6127 21.5272 41.0889 21.8675C42.5652 22.2078 43.7953 23.1153 44.5335 24.2497C45.2716 25.0438 45.6407 25.9513 45.8867 26.9722C46.0097 27.9932 45.8867 29.0142 45.3946 29.9217C47.363 27.5394 48.1011 24.4766 47.732 21.5272C47.3629 18.5777 45.6406 15.8552 43.1802 14.0402C40.5968 12.1117 37.3983 11.3176 34.1998 11.5445C31.0012 11.7714 27.9257 13.1326 25.8343 15.4014C25.5883 15.7417 22.7589 21.4137 26.9415 24.0228Z" fill="#FC5F6C"/>
<path d="M44.5335 24.2505C43.6723 23.1161 42.4421 22.322 41.0889 21.9817C39.6126 21.6413 38.1364 21.7548 36.7832 22.4354C34.4458 23.4564 31.2472 26.8596 26.9415 24.137C22.6358 21.4145 25.7113 15.8559 25.8343 15.5156C24.7271 16.7635 23.743 18.1247 23.1279 19.7129C22.3898 21.7548 22.2667 23.9101 22.7588 26.0655C23.2509 28.2208 24.4811 30.0359 26.0804 31.624C26.2034 31.7375 26.2034 31.7374 26.3264 31.8509L26.5724 32.0778C28.9098 33.8928 31.8624 34.9137 34.9379 34.9137C38.0134 34.9137 40.9659 33.8928 43.3032 32.0778L43.6723 31.7375L43.7953 31.624C44.2874 31.1703 44.9025 30.6031 45.2716 30.0359C45.7637 29.1284 45.8867 28.1074 45.6406 27.0864C45.6406 25.952 45.2716 25.0445 44.5335 24.2505Z" fill="#627BF9"/>
<path d="M35.307 25.2691C34.3228 25.3825 33.3387 25.2691 32.4775 24.7019C32.1085 24.475 31.8624 24.2482 32.1084 23.7944C32.2315 23.5675 32.4775 23.4541 32.7235 23.3406C32.9696 23.2272 33.2156 23.3406 33.4617 23.4541C33.7077 23.5675 33.8307 23.681 34.0768 23.681C34.4458 23.7944 34.8149 23.7944 35.1839 23.681C35.553 23.5675 35.9221 23.4541 36.1681 23.1138C36.2912 23.0003 36.4142 22.8869 36.5372 22.8869C36.7832 22.7734 36.9062 22.7734 37.1523 22.7734C37.3983 22.7734 37.6444 22.8869 37.7674 23.1138C37.8904 23.2272 37.8904 23.4541 37.8904 23.681C37.8904 23.9078 37.7674 24.0213 37.5213 24.1347C37.0292 24.8153 36.2911 25.1557 35.307 25.2691Z" fill="black"/>
<path d="M27.4336 24.2489C27.4336 23.9086 27.1876 23.4549 27.8027 23.1145C28.4178 22.7742 29.1559 22.8877 29.2789 23.5683C29.4019 23.9086 29.402 24.3624 29.402 24.7027C29.402 25.1564 29.0329 25.3833 28.5408 25.4968C28.2948 25.4968 28.0487 25.4968 27.9257 25.3833C27.8027 25.2699 27.5566 25.1565 27.5566 24.9296C27.5566 24.7027 27.4336 24.4758 27.4336 24.2489Z" fill="black"/>
<path d="M42.442 22.4342C42.442 22.6611 42.442 22.7745 42.442 23.0014C42.442 23.1148 42.442 23.2283 42.442 23.3417C42.442 23.4552 42.3191 23.5686 42.3191 23.5686C42.196 23.682 42.196 23.682 42.073 23.7955C41.95 23.7955 41.827 23.9089 41.704 23.7955C41.4579 23.7955 41.2119 23.7955 41.0889 23.682C40.8428 23.5686 40.7198 23.3417 40.7198 23.2283C40.5967 22.888 40.5967 22.5476 40.5967 22.2073C40.5967 21.7536 40.8428 21.4132 41.4579 21.2998C41.5809 21.2998 41.7039 21.2998 41.8269 21.2998C41.95 21.2998 42.073 21.2998 42.196 21.4133C42.3191 21.5267 42.319 21.5267 42.442 21.6401C42.5651 21.7536 42.5651 21.867 42.5651 21.9804C42.5651 22.2073 42.5651 22.3208 42.5651 22.5476H42.442V22.4342Z" fill="black"/>
<path d="M9.59563 11.5448C9.47261 11.5448 9.34958 11.5448 9.34958 11.5448C9.22656 11.5448 9.22658 11.4313 9.10356 11.4313C8.98054 11.3179 8.98053 11.3179 8.98053 11.2045C8.98053 11.091 8.98053 10.9776 8.98053 10.9776V10.7507C8.98053 10.6373 9.10356 10.6372 9.10356 10.5238L15.5006 4.28464C15.6236 4.1712 15.6236 4.1712 15.7467 4.05776C15.8697 4.05776 15.9927 3.94434 15.9927 3.94434C16.1157 3.94434 16.2387 3.94434 16.3618 3.94434C16.4848 3.94434 16.6078 4.05776 16.6078 4.05776C16.7308 4.1712 16.7308 4.1712 16.7308 4.28464C16.7308 4.39808 16.8538 4.51152 16.8538 4.62496C16.8538 4.7384 16.8538 4.85184 16.7308 4.96528C16.7308 5.07872 16.6078 5.07872 16.4848 5.19216L9.96468 11.4313C9.84166 11.5448 9.84168 11.5448 9.71866 11.6582C9.71866 11.5448 9.71865 11.5448 9.59563 11.5448Z" fill="black"/>
<path d="M12.3021 14.0409C12.0561 14.0409 11.9331 13.9274 11.81 13.814C11.687 13.7006 11.564 13.4737 11.564 13.3602C11.564 13.1333 11.687 13.0199 11.81 12.9065L18.2071 6.66731C18.3301 6.55387 18.5762 6.44043 18.6992 6.44043C18.9452 6.44043 19.0683 6.55387 19.3143 6.66731C19.4373 6.78074 19.5604 7.00762 19.5604 7.12106C19.5604 7.34793 19.4373 7.46137 19.3143 7.68825L12.9172 14.0409C12.7942 14.1543 12.7942 14.1543 12.6712 14.1543C12.5482 14.0409 12.4251 14.0409 12.3021 14.0409Z" fill="black"/>
<path d="M14.8855 16.1945C14.6394 16.1945 14.5164 16.0811 14.3934 15.9676C14.2704 15.8542 14.1473 15.6273 14.1473 15.5139C14.1473 15.287 14.2704 15.1735 14.3934 15.0601L20.7905 8.70751C20.9135 8.59407 20.9135 8.59407 21.0365 8.48063C21.1595 8.48063 21.2826 8.36719 21.2826 8.36719C21.4056 8.36719 21.5286 8.36719 21.6516 8.36719C21.7746 8.36719 21.8977 8.48063 21.8977 8.48063C22.0207 8.59407 22.0207 8.59407 22.0207 8.70751C22.0207 8.82095 22.1437 8.93439 22.1437 9.04783C22.1437 9.16127 22.1437 9.2747 22.0207 9.38814C22.0207 9.50157 21.8976 9.50159 21.7746 9.61503L15.3775 15.8542C15.2545 15.9676 15.2545 15.9676 15.1315 16.0811C15.0085 16.1945 15.0085 16.1945 14.8855 16.1945Z" fill="black"/>
<path d="M17.715 42.5126C17.4689 42.5126 17.3459 42.3991 17.2229 42.2857L10.2107 36.7272C10.0877 36.6137 9.96466 36.3869 9.96466 36.2734C9.96466 36.0465 10.0877 35.9331 10.2107 35.8196C10.3337 35.7062 10.5798 35.5928 10.7028 35.5928C10.8258 35.5928 11.0718 35.7062 11.1949 35.8196L18.2071 41.3782C18.3301 41.4916 18.3301 41.4916 18.3301 41.6051C18.3301 41.7185 18.3301 41.8319 18.3301 41.8319C18.3301 41.9454 18.3301 42.0588 18.3301 42.0588C18.3301 42.1723 18.2071 42.1723 18.2071 42.2857C18.084 42.3991 18.084 42.3991 17.961 42.3991C17.961 42.5126 17.838 42.626 17.715 42.5126Z" fill="black"/>
<path d="M15.5006 36.2732C15.2545 36.2732 15.1315 36.1597 15.0085 36.0463L12.6711 34.0044C12.5481 33.8909 12.425 33.664 12.425 33.5506C12.425 33.3237 12.5481 33.2103 12.6711 33.0968C12.7941 32.9834 12.7941 32.9834 12.9171 32.9834C13.0401 32.9834 13.1632 32.9834 13.1632 32.9834C13.2862 32.9834 13.4092 32.9834 13.4092 32.9834C13.5323 32.9834 13.5322 33.0968 13.6553 33.0968L15.9926 35.1388C16.1157 35.2522 16.2387 35.4791 16.2387 35.5925C16.2387 35.8194 16.1157 35.9328 15.9926 36.0463C15.8696 36.1597 15.7466 36.2732 15.5006 36.2732Z" fill="black"/>
<path d="M20.2984 40.2447C20.0523 40.2447 19.9293 40.1312 19.8063 40.0178L17.5919 38.0893C17.4689 37.9759 17.3459 37.749 17.3459 37.6356C17.3459 37.4087 17.4689 37.2952 17.5919 37.1818C17.715 37.0683 17.7149 37.0684 17.838 37.0684C17.961 37.0684 18.084 37.0684 18.084 37.0684C18.207 37.0684 18.3301 37.0684 18.3301 37.0684C18.4531 37.0684 18.4531 37.1818 18.5761 37.1818L20.7905 39.1103C20.9135 39.2237 21.0365 39.4506 21.0365 39.564C21.0365 39.7909 20.9135 39.9043 20.7905 40.0178C20.6675 40.1312 20.4214 40.2447 20.2984 40.2447Z" fill="black"/>
<path d="M22.8818 37.635C22.6357 37.635 22.5127 37.635 22.3897 37.5215L15.1315 31.7361C15.0085 31.6227 14.8854 31.3958 14.8854 31.2824C14.8854 31.1689 15.0085 30.942 15.1315 30.8286C15.2545 30.7152 15.2545 30.7152 15.3775 30.6017C15.5005 30.6017 15.6236 30.4883 15.6236 30.4883C15.7466 30.4883 15.8696 30.4883 15.8696 30.4883C15.9926 30.4883 16.1156 30.6017 16.1156 30.6017L23.3738 36.3871C23.4969 36.5006 23.6199 36.7275 23.6199 36.8409C23.6199 36.9543 23.4969 37.1812 23.3738 37.2946C23.2508 37.4081 23.2508 37.4081 23.1278 37.5215C23.1278 37.635 23.0048 37.635 22.8818 37.635Z" fill="black"/>
<path d="M51.0535 10.7508C50.8075 10.7508 50.6845 10.6374 50.5615 10.5239L48.1011 8.48205C47.978 8.36861 47.855 8.14172 47.855 8.02828C47.855 7.8014 47.978 7.68797 48.1011 7.57453C48.2241 7.46109 48.3471 7.34766 48.5931 7.34766C48.8392 7.34766 48.9622 7.34765 49.0852 7.46109L51.4226 9.503C51.5457 9.61644 51.5457 9.61643 51.5457 9.72987C51.5457 9.84331 51.5457 9.95675 51.5457 9.95675V10.1836C51.5457 10.2971 51.4226 10.2971 51.4226 10.4105C51.4226 10.6374 51.1766 10.7508 51.0535 10.7508Z" fill="black"/>
<path d="M55.8513 14.7203C55.6053 14.7203 55.4822 14.6068 55.3592 14.4934L53.0218 12.5649C52.8988 12.4515 52.7758 12.2246 52.7758 12.1111C52.7758 11.8843 52.8988 11.7708 53.0218 11.6574C53.1449 11.5439 53.1449 11.5439 53.2679 11.5439C53.3909 11.5439 53.5139 11.5439 53.5139 11.5439C53.6369 11.5439 53.76 11.5439 53.76 11.5439C53.883 11.5439 53.883 11.6574 54.006 11.6574L56.3434 13.5859C56.4664 13.6993 56.5894 13.9262 56.5894 14.0396C56.5894 14.2665 56.4664 14.3799 56.3434 14.4934C56.3434 14.7202 56.0974 14.7203 55.8513 14.7203Z" fill="black"/>
<path d="M58.3117 11.9968C58.1887 11.9968 58.0657 11.9968 58.0657 11.9968C57.9427 11.9968 57.9426 11.8834 57.8196 11.8834L50.9305 6.32482C50.8075 6.21138 50.6844 5.98451 50.6844 5.87107C50.6844 5.64419 50.8075 5.53074 50.9305 5.41731C51.0535 5.30387 51.1765 5.19043 51.4226 5.19043C51.6686 5.19043 51.7916 5.19044 51.9147 5.30388L58.8038 10.8624C58.9268 10.9758 59.0498 11.0893 59.0498 11.2027C59.0498 11.3162 59.0498 11.543 59.0498 11.6565C59.0498 11.7699 58.9268 11.8834 58.8038 11.9968C58.6808 11.9968 58.4348 11.9968 58.3117 11.9968Z" fill="black"/>
<path d="M56.2204 5.87162C56.0974 5.87162 55.9743 5.87162 55.9743 5.87162C55.8513 5.87162 55.8513 5.75817 55.7283 5.75817L53.2679 3.71626C53.1449 3.60282 53.0219 3.37595 53.0219 3.26251C53.0219 3.14907 53.1449 2.9222 53.2679 2.80876C53.3909 2.69532 53.3909 2.69531 53.5139 2.69531C53.6369 2.69531 53.76 2.69531 53.76 2.69531C53.883 2.69531 54.006 2.69531 54.006 2.69531C54.1291 2.69531 54.129 2.80876 54.2521 2.80876L56.7125 4.85065C56.8355 4.96409 56.8355 4.96411 56.8355 5.07755C56.8355 5.19099 56.8355 5.30442 56.8355 5.30442C56.8355 5.41786 56.8355 5.5313 56.8355 5.5313C56.8355 5.64474 56.7125 5.64473 56.7125 5.75817C56.5894 5.87161 56.5895 5.87162 56.4664 5.87162C56.4664 5.87162 56.3434 5.87162 56.2204 5.87162Z" fill="black"/>
<path d="M61.0182 9.61561C60.8951 9.61561 60.6491 9.6156 60.5261 9.50217L58.3117 7.80057C58.1887 7.68714 58.1887 7.68714 58.0657 7.5737C58.0657 7.46026 57.9427 7.34682 57.9427 7.34682C57.9427 7.23338 57.9427 7.11993 57.9427 7.11993C57.9427 7.00649 58.0657 6.89306 58.0657 6.89306C58.0657 6.89306 58.1887 6.77962 58.3117 6.66618C58.4348 6.66618 58.5578 6.55273 58.5578 6.55273C58.6808 6.55273 58.8038 6.55273 58.8038 6.55273C58.9268 6.55273 59.0498 6.66618 59.0498 6.66618L61.2642 8.36777C61.3872 8.48121 61.5102 8.70808 61.5102 8.82152C61.5102 9.0484 61.3872 9.16185 61.2642 9.27529C61.3872 9.50217 61.1412 9.50217 61.0182 9.61561Z" fill="black"/>
<path d="M54.4981 32.3036C54.3751 32.3036 54.252 32.3036 54.252 32.3036C54.252 32.3036 54.129 32.1901 54.006 32.1901C53.883 32.0767 53.7599 31.8498 53.7599 31.7364C53.7599 31.5095 53.883 31.396 54.006 31.2826L56.0973 29.2407C56.2204 29.1273 56.2204 29.1273 56.3434 29.0138C56.4664 29.0138 56.5894 28.9004 56.5894 28.9004C56.7124 28.9004 56.8355 28.9004 56.9585 28.9004C57.0815 28.9004 57.2045 29.0138 57.2045 29.0138C57.3275 29.1273 57.3275 29.1273 57.3275 29.2407C57.3275 29.3541 57.4506 29.4676 57.4506 29.581C57.4506 29.6945 57.4506 29.8079 57.3275 29.9213C57.3275 30.0348 57.2045 30.0348 57.0815 30.1482L54.9902 32.1901C54.8671 32.3036 54.8671 32.3036 54.7441 32.3036C54.6211 32.3036 54.4981 32.3036 54.4981 32.3036Z" fill="black"/>
<path d="M57.2045 34.5721C57.0815 34.5721 56.9585 34.5721 56.9585 34.5721C56.8355 34.5721 56.8355 34.4587 56.7125 34.4587C56.5895 34.3452 56.5894 34.3452 56.5894 34.2318C56.5894 34.1184 56.5894 34.0049 56.5894 34.0049C56.5894 33.8915 56.5894 33.778 56.5894 33.778C56.5894 33.6646 56.7125 33.6646 56.7125 33.5512L58.8038 31.5092C58.9269 31.3958 58.9268 31.3958 59.0499 31.2824C59.1729 31.2824 59.2959 31.1689 59.2959 31.1689C59.4189 31.1689 59.5419 31.1689 59.665 31.1689C59.788 31.1689 59.911 31.2824 59.911 31.2824C60.034 31.3958 60.034 31.3958 60.034 31.5092C60.034 31.6227 60.1571 31.7361 60.1571 31.8496C60.1571 31.963 60.1571 32.0765 60.034 32.1899C60.034 32.3033 59.911 32.3033 59.788 32.4168L57.5736 34.4587C57.5736 34.4587 57.3276 34.5721 57.2045 34.5721Z" fill="black"/>
<path d="M60.1571 36.9558C60.034 36.9558 59.911 36.9558 59.911 36.9558C59.788 36.9558 59.788 36.8423 59.665 36.8423C59.5419 36.7289 59.542 36.7289 59.542 36.6154C59.542 36.502 59.542 36.3886 59.542 36.3886V36.1617C59.542 36.0482 59.665 36.0482 59.665 35.9348L61.7563 33.8929C61.8793 33.7795 62.1254 33.666 62.2484 33.666C62.4944 33.666 62.6175 33.7795 62.8635 33.8929C62.9865 34.0063 63.1095 34.2332 63.1095 34.3466C63.1095 34.5735 62.9865 34.687 62.8635 34.8004L60.7722 36.8423C60.6491 36.9558 60.6491 36.9558 60.5261 37.0692C60.4031 37.1826 60.1571 36.9558 60.1571 36.9558Z" fill="black"/>
<path d="M52.7758 38.9968C52.6528 38.9968 52.5298 38.9968 52.5298 38.9968C52.4068 38.9968 52.4067 38.8833 52.2837 38.8833C52.1607 38.7699 52.1607 38.7699 52.1607 38.6564C52.1607 38.543 52.1607 38.4296 52.1607 38.4296C52.1607 38.3161 52.1607 38.2027 52.1607 38.2027C52.1607 38.0893 52.2837 38.0893 52.2837 37.9758L54.3751 35.9339C54.4981 35.8205 54.7441 35.707 54.8672 35.707C54.9902 35.707 55.2362 35.8205 55.3592 35.9339C55.4823 36.0473 55.4823 36.0473 55.4823 36.1608C55.4823 36.2742 55.4823 36.3877 55.4823 36.3877C55.4823 36.5011 55.4823 36.6145 55.4823 36.6145C55.4823 36.728 55.3592 36.728 55.3592 36.8414L53.2679 38.8833C53.1449 38.9968 53.1449 38.9968 53.0219 38.9968C53.0219 38.9968 52.8989 38.9968 52.7758 38.9968Z" fill="black"/>
<path d="M55.4823 41.0388C55.3592 41.0388 55.2362 41.0388 55.2362 41.0388C55.1132 41.0388 55.1132 40.9253 54.9902 40.9253C54.8672 40.8119 54.8672 40.8119 54.8672 40.6985C54.8672 40.585 54.8672 40.4716 54.8672 40.4716V40.2447C54.8672 40.1313 54.9902 40.1313 54.9902 40.0178L57.0815 37.9759C57.2046 37.8625 57.4506 37.749 57.5736 37.749C57.8197 37.749 57.9427 37.8625 58.0657 37.9759C58.1887 38.0894 58.1887 38.0894 58.1887 38.2028C58.1887 38.3162 58.1887 38.4297 58.1887 38.4297V38.6565C58.1887 38.77 58.0657 38.77 58.0657 38.8834L55.9743 40.9253C55.8513 41.0388 55.8513 41.0388 55.7283 41.0388C55.7283 41.0388 55.6053 41.0388 55.4823 41.0388Z" fill="black"/>
<path d="M49.9463 36.8407C49.7003 36.8407 49.5773 36.7272 49.4542 36.6138C49.3312 36.5003 49.2082 36.2735 49.2082 36.16C49.2082 35.9332 49.3312 35.8197 49.4542 35.7063L51.5456 33.6644C51.6686 33.5509 51.9147 33.4375 52.0377 33.4375C52.2837 33.4375 52.4067 33.5509 52.5298 33.6644C52.6528 33.7778 52.7758 34.0047 52.7758 34.1181C52.7758 34.345 52.6528 34.4585 52.5298 34.5719L50.4384 36.6138C50.3154 36.7272 50.3154 36.7272 50.1924 36.7272C50.1924 36.8407 50.0693 36.8407 49.9463 36.8407Z" fill="black"/>
</svg>
