<?xml version="1.0" encoding="utf-8"?>
<!-- Generator: Adobe Illustrator 26.2.1, SVG Export Plug-In . SVG Version: 6.00 Build 0)  -->
<svg version="1.1" id="Layer_1" xmlns="http://www.w3.org/2000/svg" xmlns:xlink="http://www.w3.org/1999/xlink" x="0px" y="0px"
	 viewBox="0 0 50 40" style="enable-background:new 0 0 50 40;" xml:space="preserve">
<style type="text/css">
	.st0{fill:#FFFFFF;}
</style>
<path class="st0" d="M42.8,18.6c0.4-0.3,0.7-0.7,0.9-1.2c0.2-0.5,0.2-1,0-1.5c-0.2-0.5-0.5-0.9-0.9-1.2c-0.4-0.3-0.9-0.5-1.4-0.5
	l-10-0.4c0,0-0.1,0-0.1-0.1c0,0-0.1-0.1-0.1-0.1l-3.5-9.3c-0.2-0.5-0.5-0.9-0.9-1.2c-0.4-0.3-0.9-0.4-1.4-0.4s-1,0.2-1.4,0.4
	S23.2,3.8,23,4.3l-3.4,9.4c0,0,0,0.1-0.1,0.1c0,0-0.1,0-0.1,0.1l-10,0.4c-0.5,0-1,0.2-1.4,0.5c-0.4,0.3-0.7,0.7-0.9,1.2
	c-0.2,0.5-0.2,1,0,1.5c0.2,0.5,0.5,0.9,0.9,1.2l7.8,6.2c0,0,0.1,0.1,0.1,0.1c0,0,0,0.1,0,0.1l-2.7,9.6c-0.1,0.5-0.1,1,0,1.5
	c0.2,0.5,0.5,0.9,0.9,1.2s0.9,0.5,1.4,0.5c0.5,0,1-0.1,1.4-0.4l8.3-5.6c0,0,0.1,0,0.1,0c0,0,0.1,0,0.1,0l8.3,5.6
	c0.4,0.3,0.9,0.5,1.4,0.5c0.5,0,1-0.2,1.4-0.5c0.4-0.3,0.7-0.7,0.9-1.2c0.2-0.5,0.2-1,0-1.5l-2.7-9.6c0,0,0-0.1,0-0.1
	c0,0,0-0.1,0.1-0.1L42.8,18.6z"/>
</svg>
