<svg width="27" height="19" viewBox="0 0 27 19" fill="none" xmlns="http://www.w3.org/2000/svg">
<path d="M11.9021 0.681755C7.88274 0.681755 5.33596 3.5605 4.3571 6.82425L4.22716 7.26175H1.40752C1.12034 7.26175 0.844922 7.37699 0.641856 7.58211C0.438789 7.78722 0.324707 8.06542 0.324707 8.3555C0.324707 9.85394 0.736176 11.2605 1.45516 12.3214C1.70854 12.6933 2.00956 13.0368 2.3539 13.3233L1.70638 14.9093C1.55841 15.2728 1.50137 15.6675 1.54028 16.0586C1.5792 16.4497 1.71289 16.8251 1.92952 17.1516C2.14616 17.4781 2.43908 17.7457 2.7824 17.9307C3.12572 18.1157 3.50887 18.2124 3.89799 18.2124H6.2217C7.13993 18.2124 7.97586 17.6786 8.36567 16.8386L9.02402 15.4277C10.9981 15.6852 12.9968 15.6852 14.9708 15.4277L15.627 16.8386C16.0168 17.6786 16.8549 18.2146 17.771 18.2146H20.073C20.4629 18.2155 20.847 18.1191 21.1911 17.934C21.5352 17.7489 21.8287 17.4808 22.0455 17.1535C22.2624 16.8263 22.3959 16.45 22.4341 16.0581C22.4723 15.6662 22.4141 15.2708 22.2647 14.9071L21.8272 13.8352H23.917C25.2532 13.8352 26.3252 12.6889 26.3252 11.3589V10.0027C26.3252 7.94644 24.7356 6.17457 22.6653 6.17457H19.4948C18.3384 3.14488 15.6119 0.683943 11.9021 0.683943V0.681755ZM21.0931 11.6477L20.1553 8.36425H22.6653C23.4384 8.36425 24.1596 9.05113 24.1596 10.0049V11.3611C24.1584 11.4408 24.1266 11.517 24.0708 11.5733C24.0101 11.6346 23.9517 11.6499 23.917 11.6499H21.0931V11.6477ZM17.1798 15.0296C18.02 14.8349 18.8538 14.5921 19.6767 14.3033L20.2636 15.7405C20.2765 15.7718 20.2814 15.8058 20.2782 15.8394C20.2749 15.8731 20.2634 15.9055 20.2447 15.9336C20.2261 15.9618 20.2009 15.9848 20.1713 16.0007C20.1417 16.0166 20.1087 16.0249 20.0752 16.0249H17.7753C17.7363 16.0253 17.6981 16.0143 17.665 15.9934C17.632 15.9725 17.6057 15.9424 17.5891 15.9068L17.1798 15.0296ZM4.30079 14.2989C5.13023 14.5921 5.97049 14.8349 6.81942 15.0318L6.40795 15.9068C6.39183 15.9425 6.36593 15.9728 6.33331 15.9941C6.3007 16.0154 6.26272 16.0268 6.22387 16.0271H3.89799C3.86448 16.0271 3.83147 16.0188 3.80189 16.0029C3.77231 15.987 3.74709 15.9639 3.72845 15.9358C3.70981 15.9077 3.69833 15.8753 3.69504 15.8416C3.69175 15.808 3.69674 15.774 3.70958 15.7427L4.29863 14.2989H4.30079ZM3.57314 9.44925L3.13569 10.9149C2.87289 10.4615 2.68972 9.96568 2.59428 9.44925H3.57314Z" fill="#5C80BC"/>
</svg>
