<svg width="45" height="28" viewBox="0 0 45 28" fill="none" xmlns="http://www.w3.org/2000/svg">
<path d="M43.7581 6.3309L24.1451 0.24858C23.0763 -0.0828601 21.9232 -0.0828601 20.8551 0.24858L1.24137 6.3309C-0.413791 6.84403 -0.413791 9.0534 1.24137 9.56653L4.66068 10.6269C3.91045 11.563 3.44919 12.7049 3.40349 13.9555C2.72638 14.3472 2.24966 15.0541 2.24966 15.898C2.24966 16.663 2.64903 17.3068 3.22419 17.7184L1.42911 25.8717C1.27301 26.5807 1.80739 27.2535 2.52669 27.2535H6.47194C7.19194 27.2535 7.72632 26.5807 7.57023 25.8717L5.77514 17.7184C6.3503 17.3068 6.74968 16.663 6.74968 15.898C6.74968 15.0768 6.29475 14.3898 5.64858 13.9909C5.70201 12.9249 6.24202 11.9824 7.10335 11.3848L20.8544 15.6496C21.4915 15.8469 22.7135 16.0931 24.1444 15.6496L43.7581 9.56724C45.414 9.0534 45.414 6.84474 43.7581 6.3309ZM24.8053 17.8206C22.7993 18.4423 21.09 18.0988 20.1935 17.8206L9.99672 14.6588L8.99968 22.7113C8.99968 25.2202 15.0438 27.2535 22.4997 27.2535C29.9557 27.2535 35.9998 25.2202 35.9998 22.7113L35.0028 14.6581L24.8053 17.8206Z" fill="#FC5F6C"/>
</svg>
