<svg width="37" height="37" viewBox="0 0 37 37" fill="none" xmlns="http://www.w3.org/2000/svg">
<path d="M23 9.25V2.5C23 1.2625 21.9875 0.25 20.75 0.25H16.25C15.0125 0.25 14 1.2625 14 2.5V9.25C14 10.4875 15.0125 11.5 16.25 11.5H20.75C21.9875 11.5 23 10.4875 23 9.25ZM18.5 2.5C19.7375 2.5 20.75 3.5125 20.75 4.75C20.75 5.9875 19.7375 7 18.5 7C17.2625 7 16.25 5.9875 16.25 4.75C16.25 3.5125 17.2625 2.5 18.5 2.5ZM36.5 31.75V13.75C36.5 11.275 34.475 9.25 32 9.25H25.25V9.9925C25.25 12.0625 23.5625 13.75 21.4925 13.75H15.5075C13.4375 13.75 11.75 12.0625 11.75 9.9925V9.25H5C2.525 9.25 0.5 11.275 0.5 13.75V31.75C0.5 34.225 2.525 36.25 5 36.25H32C34.475 36.25 36.5 34.225 36.5 31.75ZM34.25 18.25V31.75H2.75V18.25H34.25Z" fill="#FC5F6C"/>
</svg>
