<?xml version="1.0" encoding="UTF-8"?><svg xmlns="http://www.w3.org/2000/svg" viewBox="0 0 70 50"><defs><style>.d{fill:#ffce71;}.e{fill:#ff6969;}</style></defs><g id="a"/><g id="b"><g id="c"><g><path class="e" d="M0,4.86C12.67-3.21,32.85,4.07,53.64,.2c2.21-.45,4.67-.11,6.64,.8,2.09,.91,3.81,2.5,4.8,4.32,6.27,13.3,5.04,26.83,4.31,34.68-1.23,1.71-2.34,7.96-30.51,5.8-28.17-2.16-31.62,4.21-31.62,4.21L0,4.86Z"/><path class="d" d="M36.17,11.68l3.69,5c.12,.23,.37,.34,.62,.57,.25,.11,.49,.23,.86,.23l7.01,.23c.37,0,.62,.11,.86,.23,.25,.11,.49,.34,.62,.68,.12,.23,.25,.57,.12,.91,0,.34-.25,.57-.37,.8l-4.55,4.66c-.25,.23-.37,.45-.37,.68-.12,.23-.12,.45,0,.8l1.72,5.8c.12,.34,.12,.57,0,.91-.12,.34-.25,.57-.62,.8-.25,.23-.62,.34-.86,.34-.37,0-.62,0-.98-.11l-6.4-2.16c-.25-.11-.62-.11-.86-.11s-.62,.11-.86,.23l-5.78,3.3c-.25,.23-.62,.34-.86,.34-.37,0-.62,0-.98-.23-.25-.11-.49-.34-.74-.68-.12-.23-.25-.57-.25-.91l.49-5.91c0-.23,0-.45-.12-.68-.12-.23-.25-.45-.49-.57l-5.41-3.64c-.25-.23-.49-.45-.62-.68-.12-.23-.12-.57,0-.91,.12-.34,.25-.57,.49-.8,.25-.23,.49-.34,.86-.34l6.77-1.48c.25,0,.49-.11,.74-.34,.25-.11,.37-.34,.49-.57l2.46-5.57c.12-.23,.37-.57,.62-.68,.25-.23,.62-.34,.86-.34,.37,0,.62,0,.98,.11,.37-.34,.74-.23,.86,.11Z"/><path d="M36.41,24.99c-.98,.11-1.97-.11-2.71-.57-.37-.23-.62-.45-.25-.8,.12-.23,.37-.34,.62-.45,.25-.11,.49,0,.74,.11,.25,.11,.37,.23,.62,.23,.37,.11,.74,.11,1.11,.11,.37-.11,.74-.23,.98-.45,.12-.11,.25-.23,.37-.23,.25-.11,.49-.11,.62-.11,.25,0,.49,.11,.62,.34,0,.11,.12,.23,.12,.23v.34c0,.11-.12,.23-.12,.23l-.25,.23c-.62,.34-1.48,.68-2.46,.8Z"/><path d="M28.66,23.62c0-.34-.25-.8,.37-1.14,.62-.34,1.35-.11,1.48,.57,.12,.34,.12,.8,.12,1.14,0,.11,0,.23-.12,.34,0,.11-.12,.23-.25,.23q-.12,.11-.25,.11h-.37c-.25,0-.49,0-.62-.11-.12-.11-.37-.23-.37-.45v-.68Z"/><path d="M43.67,22.26v.91c0,.11-.12,.23-.12,.23l-.25,.23c-.12,0-.25,.11-.37,0-.25,0-.49,0-.62-.11-.25-.11-.37-.34-.37-.57,0-.34-.12-.68-.12-1.02v-.34c0-.11,.12-.23,.25-.34,.12-.11,.25-.11,.37-.23h.74c.12,0,.25,.11,.37,.11l.25,.23c0,.11,.12,.23,.12,.34-.25,.23-.25,.45-.25,.57Z"/></g></g></g></svg>