<svg xmlns="http://www.w3.org/2000/svg" viewBox="0 0 72.26 76.76"><defs><style>.cls-1{fill:#fc5f6c;}.cls-2{opacity:0.75;}.cls-3{fill:#c64259;}.cls-4{fill:#fff;}.cls-5{fill:#85ace5;}.cls-6{fill:#e05353;}.cls-7{fill:#f4b571;}.cls-8{fill:#ff6969;}.cls-9{fill:#ffce71;}</style></defs><g id="Layer_2" data-name="Layer 2"><g id="Layer_1-2" data-name="Layer 1"><g id="china_flag" data-name="china flag"><ellipse class="cls-1" cx="36.13" cy="41.26" rx="36.13" ry="35.35"/><g class="cls-2"><path class="cls-3" d="M49,53.36A51.35,51.35,0,0,1,57.6,71.11S36,85.4,15.15,68.51c0,0,4.34-14.93,8.76-15.34S49,53.36,49,53.36Z"/><path class="cls-3" d="M12.25,58.06c-.58-5.12,4.3-7.32,7.87-1.79,1.21,1.88,6,3.26,5.3,3.6s.09,3.65,1.45,2,1.73,1.3,1.5,1.65a44.75,44.75,0,0,1-4.22,5c-1.4,1.26-3.83,0-3.83,0A12.23,12.23,0,0,1,12.25,58.06Z"/><path class="cls-3" d="M23.35,52.86a9,9,0,0,1-2.51-2.4c-1.83,7,20.53,10.91,29.55,3.85C41.86,57.54,27.26,55.37,23.35,52.86Z"/><path class="cls-3" d="M19.16,51.18a8.79,8.79,0,0,0,2.51,2.41c3.9,2.51,18.5,4.68,27,1.45a13.67,13.67,0,0,0,2.68-1.33,6.91,6.91,0,0,0,2.07-2.07c3.68-5.75-3.15-15.4-3.15-15.4S63.79,20.34,53,14.68c-4.14-2.16-7-.39-9,2.61l-.21.7c0-3.49-1.42-6.5-6.23-7-12.11-1.37-8.19,20.23-8.19,20.23s-7,1.93-7,8a8.61,8.61,0,0,0-3.54,3.4A8.15,8.15,0,0,0,19.16,51.18Zm16.66-6.07-.34.59a1,1,0,0,1-1.72,0l-.34-.59a.38.38,0,0,1,.33-.57h1.74A.38.38,0,0,1,35.82,45.11ZM40.62,40a2.07,2.07,0,1,1-1.68,2A1.89,1.89,0,0,1,40.62,40ZM29.74,40a2.07,2.07,0,0,1,0,4.07,2.07,2.07,0,0,1,0-4.07Z"/><path class="cls-3" d="M35.49,44.54H33.75a.38.38,0,0,0-.33.57l.34.59a1,1,0,0,0,1.72,0l.34-.59A.38.38,0,0,0,35.49,44.54Z"/><path class="cls-3" d="M40.62,44.06a2.07,2.07,0,1,0-1.68-2A1.88,1.88,0,0,0,40.62,44.06Z"/><path class="cls-3" d="M29.74,44.06a2.07,2.07,0,0,0,0-4.07,2.07,2.07,0,0,0,0,4.07Z"/><path class="cls-3" d="M36.36,47.86a2.31,2.31,0,0,1-1.66-1,2.28,2.28,0,0,1-1.91.83c-1.3-.19-2-1.85-2.06-1.92a.31.31,0,0,1,.57-.25s.63,1.42,1.58,1.55c.5.07,1-.23,1.6-.9l.28-.33.23.36c.18.29.81,1,1.43,1s1.06-.62,1.53-1.67a.3.3,0,0,1,.41-.16.31.31,0,0,1,.15.41c-.57,1.3-1.27,2-2,2Z"/></g><path class="cls-4" d="M46.94,53.36A51.35,51.35,0,0,1,55.5,71.11S33.94,85.4,13.05,68.51c0,0,4.34-14.93,8.75-15.34S46.94,53.36,46.94,53.36Z"/><path class="cls-4" d="M10.15,58.06c-.58-5.12,4.3-7.32,7.87-1.79,1.21,1.88,6,3.26,5.3,3.6s.09,3.65,1.45,2,1.73,1.3,1.5,1.65a44.75,44.75,0,0,1-4.22,5c-1.4,1.26-3.84,0-3.84,0A12.22,12.22,0,0,1,10.15,58.06Z"/><path class="cls-5" d="M21.25,52.86a9,9,0,0,1-2.51-2.4c-1.83,7,20.53,10.91,29.55,3.85C39.76,57.54,25.16,55.37,21.25,52.86Z"/><path class="cls-4" d="M17.05,51.18a9,9,0,0,0,2.52,2.41c3.9,2.51,18.5,4.68,27,1.45a13.67,13.67,0,0,0,2.68-1.33,6.91,6.91,0,0,0,2.07-2.07c3.68-5.75-3.16-15.4-3.16-15.4s13.5-15.9,2.65-21.56c-4.13-2.16-7-.39-9,2.61l-.21.7c0-3.49-1.42-6.5-6.23-7-12.11-1.37-8.19,20.23-8.19,20.23s-7,1.93-7,8a8.55,8.55,0,0,0-3.54,3.4A8.15,8.15,0,0,0,17.05,51.18Zm16.67-6.07-.34.59a1,1,0,0,1-1.72,0l-.34-.59a.38.38,0,0,1,.33-.57h1.74A.38.38,0,0,1,33.72,45.11ZM38.52,40a2.07,2.07,0,0,1,0,4.07,2.07,2.07,0,0,1,0-4.07ZM27.64,40a2.07,2.07,0,0,1,0,4.07,2.07,2.07,0,0,1,0-4.07Z"/><path d="M33.39,44.54H31.65a.38.38,0,0,0-.33.57l.34.59a1,1,0,0,0,1.72,0l.34-.59A.38.38,0,0,0,33.39,44.54Z"/><path d="M38.52,44.06a2.07,2.07,0,0,0,0-4.07,2.07,2.07,0,0,0,0,4.07Z"/><path d="M27.64,44.06a2.07,2.07,0,0,0,0-4.07,2.07,2.07,0,0,0,0,4.07Z"/><path d="M34.26,47.86a2.31,2.31,0,0,1-1.66-1,2.28,2.28,0,0,1-1.91.83c-1.3-.19-2-1.85-2.06-1.92a.31.31,0,0,1,.57-.25s.62,1.42,1.58,1.55c.5.07,1-.23,1.6-.9l.28-.33.22.36c.19.29.82,1,1.44,1s1-.62,1.52-1.67a.31.31,0,0,1,.41-.16.31.31,0,0,1,.16.41c-.58,1.3-1.27,2-2,2Z"/><path d="M30.68,47.55s1.84,2.36,3.67,0a7.81,7.81,0,0,0-1.73-1.14Z"/><path class="cls-5" d="M18.22,63.14a8.72,8.72,0,0,0,5.86,6c6.23,1.86,5.62-1,5.62-1Z"/><g class="cls-2"><rect class="cls-6" x="11.46" y="2.77" width="2.29" height="68.82" transform="translate(-5.39 2.29) rotate(-8.55)"/></g><rect class="cls-7" x="10.96" y="2.77" width="2.29" height="68.82" transform="translate(-5.39 2.21) rotate(-8.55)"/><g class="cls-2"><path class="cls-6" d="M8.62,5c7.24-5,18.74-.5,30.54-2.87a6,6,0,0,1,6.56,3.17c3.55,8.23,2.89,16.61,2.47,21.45-.67,1.08-1.33,4.94-17.38,3.58s-18,2.57-18,2.57Z"/></g><path class="cls-8" d="M8.12,3c7.24-5,18.74-.5,30.54-2.87a6,6,0,0,1,6.56,3.17c3.55,8.23,2.89,16.61,2.47,21.45-.67,1.08-1.33,4.94-17.38,3.58s-18,2.57-18,2.57Z"/><path class="cls-9" d="M28.73,7.15l2.09,3.12a1,1,0,0,0,.82.44l4,.14a.93.93,0,0,1,.73,1.55l-2.59,2.85a.92.92,0,0,0-.22.86l1,3.55a1,1,0,0,1-1.4,1.15L29.5,19.45a1.12,1.12,0,0,0-1,.1L25.19,21.6a1,1,0,0,1-1.59-.85l.31-3.68a.9.9,0,0,0-.38-.81L20.43,14a.93.93,0,0,1,.41-1.67l3.88-.92a1,1,0,0,0,.73-.59l1.43-3.46A1.08,1.08,0,0,1,28.73,7.15Z"/><path d="M28.86,15.37A2.16,2.16,0,0,1,27.29,15c-.18-.14-.36-.28-.17-.52a.58.58,0,0,1,.78-.2,2.32,2.32,0,0,0,.36.16,1.13,1.13,0,0,0,1.21-.27.8.8,0,0,1,.21-.15.56.56,0,0,1,.72.11.47.47,0,0,1-.14.65,2.63,2.63,0,0,1-1.34.59Z"/><path d="M24.41,14.58c0-.2-.14-.48.21-.68s.78-.09.85.32a4.25,4.25,0,0,1,.06.71.46.46,0,0,1-.5.46.53.53,0,0,1-.57-.38C24.44,14.89,24.43,14.77,24.41,14.58Z"/><path d="M33,13.7c0,.11,0,.23,0,.34a.47.47,0,0,1-.49.5.51.51,0,0,1-.57-.41c0-.2-.05-.41-.07-.61A.48.48,0,0,1,32.4,13a.44.44,0,0,1,.57.41c0,.11,0,.21,0,.32Z"/><path class="cls-4" d="M26,59c-.58,0-10.35-7.91-10.33.45,0,5.27,12.17,10.79,14.61,9.76s1.09-9.7,1.09-9.7Z"/></g></g></g></svg>