<svg width="70" height="50" viewBox="0 0 70 50" fill="none" xmlns="http://www.w3.org/2000/svg">
<path d="M0 4.86216C12.6711 -3.21035 32.8465 4.06627 53.637 0.200564C55.8513 -0.254225 58.3117 0.086881 60.2801 0.99646C62.3714 1.90604 64.0937 3.49779 65.0779 5.31694C71.3519 18.6195 70.1217 32.1495 69.3836 39.9946C68.1534 41.7001 67.0462 47.9534 38.8745 45.7932C10.7028 43.6329 7.25822 50 7.25822 50L0 4.86216Z" fill="#FF6969"/>
<path d="M36.1681 11.6839L39.8587 16.6866C39.9817 16.914 40.2278 17.0277 40.4738 17.2551C40.7198 17.3688 40.9659 17.4825 41.3349 17.4825L48.3471 17.7099C48.7162 17.7099 48.9622 17.8236 49.2082 17.9373C49.4543 18.051 49.7003 18.2784 49.8233 18.6195C49.9464 18.8468 50.0694 19.1879 49.9464 19.529C49.9464 19.8701 49.7003 20.0975 49.5773 20.3249L45.0255 24.9865C44.7795 25.2139 44.6565 25.4413 44.6565 25.6687C44.5335 25.8961 44.5335 26.1235 44.6565 26.4646L46.3788 32.2631C46.5018 32.6042 46.5018 32.8316 46.3788 33.1727C46.2557 33.5138 46.1327 33.7412 45.7637 33.9686C45.5176 34.196 45.1486 34.3097 44.9025 34.3097C44.5335 34.3097 44.2874 34.3097 43.9184 34.196L37.5213 32.0357C37.2752 31.922 36.9062 31.922 36.6601 31.922C36.4141 31.922 36.045 32.0357 35.799 32.1494L30.017 35.4466C29.771 35.674 29.4019 35.7877 29.1559 35.7877C28.7868 35.7877 28.5408 35.7877 28.1717 35.5603C27.9257 35.4467 27.6796 35.2192 27.4336 34.8782C27.3106 34.6508 27.1876 34.3097 27.1876 33.9686L27.6796 28.0563C27.6796 27.8289 27.6797 27.6015 27.5566 27.3741C27.4336 27.1467 27.3106 26.9194 27.0645 26.8057L21.6516 23.1673C21.4056 22.94 21.1596 22.7125 21.0365 22.4852C20.9135 22.2578 20.9135 21.9167 21.0365 21.5756C21.1596 21.2345 21.2826 21.0071 21.5286 20.7797C21.7747 20.5523 22.0207 20.4386 22.3898 20.4386L29.1559 18.9605C29.4019 18.9605 29.648 18.8468 29.894 18.6195C30.1401 18.5058 30.2631 18.2784 30.3861 18.051L32.8465 12.4798C32.9695 12.2524 33.2156 11.9113 33.4616 11.7976C33.7076 11.5702 34.0767 11.4565 34.3228 11.4565C34.6918 11.4565 34.9379 11.4565 35.3069 11.5702C35.676 11.2291 36.0451 11.3428 36.1681 11.6839Z" fill="#FFCE71"/>
<path d="M36.4141 24.9864C35.43 25.1001 34.4458 24.8727 33.7077 24.4179C33.3386 24.1905 33.0926 23.9631 33.4616 23.622C33.5846 23.3947 33.8307 23.281 34.0767 23.1673C34.3228 23.0536 34.5688 23.1673 34.8148 23.281C35.0609 23.3947 35.1839 23.5083 35.4299 23.5083C35.799 23.622 36.1681 23.622 36.5371 23.622C36.9062 23.5084 37.2753 23.3947 37.5213 23.1673C37.6443 23.0536 37.7673 22.9399 37.8904 22.9399C38.1364 22.8262 38.3824 22.8262 38.5055 22.8262C38.7515 22.8262 38.9975 22.9399 39.1206 23.1673C39.1206 23.281 39.2436 23.3947 39.2436 23.3947C39.2436 23.5084 39.2436 23.6221 39.2436 23.7358C39.2436 23.8495 39.1206 23.9631 39.1206 23.9631C39.1206 23.9631 38.9976 24.0768 38.8745 24.1905C38.2594 24.5316 37.3983 24.8727 36.4141 24.9864Z" fill="black"/>
<path d="M28.6638 23.6228C28.6638 23.2817 28.4177 22.8269 29.0328 22.4858C29.6479 22.1447 30.3861 22.3721 30.5091 23.0543C30.6321 23.3954 30.6321 23.8502 30.6321 24.1913C30.6321 24.305 30.6321 24.4187 30.5091 24.5324C30.5091 24.6461 30.3861 24.7598 30.263 24.7598C30.14 24.8735 30.14 24.8735 30.017 24.8735C29.894 24.8735 29.771 24.8735 29.6479 24.8735C29.4019 24.8735 29.1559 24.8735 29.0328 24.7598C28.9098 24.6461 28.6638 24.5324 28.6638 24.305C28.6638 24.1913 28.6638 23.9639 28.6638 23.6228Z" fill="black"/>
<path d="M43.6723 22.2585C43.6723 22.4859 43.6723 22.5996 43.6723 22.827C43.6723 22.9407 43.6723 23.0544 43.6723 23.1681C43.6723 23.2818 43.5493 23.3955 43.5493 23.3955C43.4263 23.5092 43.4263 23.5092 43.3033 23.6229C43.1802 23.6229 43.0572 23.7366 42.9342 23.6229C42.6882 23.6229 42.4421 23.6228 42.3191 23.5092C42.0731 23.3955 41.9501 23.1681 41.9501 22.9407C41.9501 22.5996 41.827 22.2585 41.827 21.9174C41.827 21.8037 41.827 21.69 41.827 21.5763C41.827 21.4626 41.95 21.3489 42.0731 21.2352C42.1961 21.1215 42.3191 21.1215 42.4421 21.0078C42.5651 21.0078 42.6882 21.0078 42.8112 21.0078C42.9342 21.0078 43.0572 21.0078 43.1803 21.0078C43.3033 21.0078 43.4263 21.1215 43.5493 21.1215C43.6723 21.2352 43.6723 21.2352 43.7954 21.3489C43.7954 21.4626 43.9184 21.5763 43.9184 21.69C43.6723 21.9174 43.6723 22.1448 43.6723 22.2585Z" fill="black"/>
</svg>
