<svg width="25" height="23" viewBox="0 0 25 23" fill="none" xmlns="http://www.w3.org/2000/svg">
<path d="M20.2552 22.5375C21.7375 21.0594 22.913 19.3029 23.7142 17.369C24.5154 15.4352 24.9265 13.362 24.924 11.2688C24.9265 9.17547 24.5154 7.10233 23.7142 5.16845C22.913 3.23458 21.7375 1.47812 20.2552 0L18.9277 1.32563C20.2356 2.62986 21.2728 4.1797 21.9797 5.88608C22.6867 7.59246 23.0494 9.42173 23.0471 11.2688C23.0471 15.1519 21.4721 18.6675 18.9277 21.2119L20.2552 22.5375Z" fill="#5C80BC"/>
<path d="M17.602 19.8864C18.7354 18.756 19.6342 17.4127 20.2469 15.9339C20.8596 14.455 21.1739 12.8696 21.172 11.2689C21.1739 9.66811 20.8596 8.08275 20.2469 6.60388C19.6342 5.12501 18.7354 3.78178 17.602 2.65137L16.2764 3.97699C17.2354 4.93352 17.996 6.07012 18.5143 7.32151C19.0327 8.57289 19.2987 9.91437 19.297 11.2689C19.2992 12.6236 19.0336 13.9653 18.5156 15.217C17.9975 16.4687 17.2372 17.6057 16.2782 18.5626L17.602 19.8864Z" fill="#5C80BC"/>
<path d="M14.9506 17.2347C15.7353 16.4521 16.3575 15.5221 16.7816 14.4982C17.2057 13.4743 17.4233 12.3767 17.4219 11.2685C17.4233 10.1603 17.2057 9.06265 16.7816 8.03876C16.3575 7.01487 15.7353 6.08488 14.9506 5.30225L13.625 6.62787C14.2353 7.23663 14.7192 7.95999 15.0491 8.75638C15.3789 9.55278 15.5481 10.4065 15.5469 11.2685C15.548 12.1305 15.3787 12.9842 15.0489 13.7805C14.7191 14.5769 14.2352 15.3003 13.625 15.9091L14.9506 17.2347ZM11.2194 2.92475C11.3782 3.00126 11.5122 3.12102 11.6061 3.27026C11.7 3.4195 11.7498 3.59219 11.75 3.7685V18.7685C11.7497 18.9449 11.6997 19.1177 11.6057 19.2669C11.5117 19.4162 11.3774 19.5359 11.2184 19.6122C11.0594 19.6886 10.882 19.7186 10.7067 19.6987C10.5315 19.6788 10.3653 19.6098 10.2275 19.4997L5.79687 15.956H1.4375C1.18886 15.956 0.950403 15.8572 0.774587 15.6814C0.598772 15.5056 0.5 15.2671 0.5 15.0185V7.5185C0.5 7.26986 0.598772 7.0314 0.774587 6.85558C0.950403 6.67977 1.18886 6.581 1.4375 6.581H5.79687L10.2275 3.03725C10.3654 2.92697 10.5317 2.85791 10.7072 2.838C10.8827 2.8181 11.0602 2.84817 11.2194 2.92475Z" fill="#5C80BC"/>
</svg>
