<svg width="12" height="18" viewBox="0 0 12 18" fill="none" xmlns="http://www.w3.org/2000/svg">
<path d="M10.7194 0.924746C10.8782 1.00126 11.0122 1.12102 11.1061 1.27026C11.2 1.4195 11.2498 1.59219 11.25 1.7685V16.7685C11.2497 16.9449 11.1997 17.1177 11.1057 17.2669C11.0117 17.4162 10.8774 17.5359 10.7184 17.6122C10.5594 17.6886 10.382 17.7186 10.2067 17.6987C10.0315 17.6788 9.86535 17.6098 9.7275 17.4997L5.29687 13.956H0.9375C0.68886 13.956 0.450403 13.8572 0.274588 13.6814C0.0987722 13.5056 0 13.2671 0 13.0185V5.5185C0 5.26986 0.0987722 5.0314 0.274588 4.85558C0.450403 4.67977 0.68886 4.581 0.9375 4.581H5.29687L9.7275 1.03725C9.86545 0.926973 10.0317 0.857908 10.2072 0.838004C10.3827 0.818101 10.5602 0.848169 10.7194 0.924746Z" fill="#5C80BC"/>
</svg>
