<svg width="349" height="322" viewBox="0 0 349 322" fill="none" xmlns="http://www.w3.org/2000/svg">
<g clip-path="url(#clip0_21_170)">
<path d="M31.0171 145.939L36.058 154.059" stroke="white" stroke-width="0.78" stroke-miterlimit="10" stroke-linecap="round"/>
<path d="M20.209 156.645L29.2008 162.27" stroke="white" stroke-width="0.78" stroke-miterlimit="10" stroke-linecap="round"/>
<path d="M46.1851 144.941L45.7764 153.56" stroke="white" stroke-width="0.78" stroke-miterlimit="10" stroke-linecap="round"/>
<path d="M166.666 0C74.6138 0 0 70.4517 0 157.325C0.0209922 187.65 9.23562 217.257 26.4304 242.249V242.249L27.6566 243.972L29.3369 246.331C124.704 378.116 349.091 292.966 349.091 292.966C301.543 287.114 287.828 276.544 285.512 267.88C300.636 253.687 312.704 236.564 320.981 217.556C329.257 198.548 333.568 178.054 333.65 157.325C333.378 70.4517 258.855 0 166.666 0Z" fill="#FC5F6C"/>
<g opacity="0.75">
<path opacity="0.75" d="M248.592 254.316C246.503 257.673 114.986 281.807 102.543 254.316C98.8126 248.858 96.6976 242.46 96.4405 235.857C96.1835 229.253 97.7948 222.711 101.09 216.98C93.1879 195.114 79.246 165.718 62.534 171.933C39.5096 180.507 62.534 213.986 86.2851 290.562C86.2851 290.562 152.407 340.101 272.797 314.787C286.375 308.481 257.72 262.799 248.592 254.316Z" fill="#C64259"/>
<path opacity="0.75" d="M111.717 264.749C107.447 262.018 103.759 258.473 100.863 254.316C113.533 281.807 186.194 292.966 228.61 270.964C191.734 284.937 128.61 275.592 111.717 264.749Z" fill="#C64259"/>
<path opacity="0.75" d="M100.863 254.316C103.759 258.473 107.447 262.018 111.716 264.749C128.61 275.592 191.734 284.937 228.61 270.964C232.659 269.501 236.529 267.584 240.145 265.249C243.79 262.912 246.888 259.817 249.227 256.176C265.122 231.361 235.603 189.716 235.603 189.716C235.603 189.716 293.914 121.034 247.047 96.5818C229.2 87.282 216.802 94.9033 208.265 107.878L207.356 110.917C207.356 95.8106 201.226 82.7909 180.426 80.4773C127.974 74.716 144.868 167.85 144.868 167.85C144.868 167.85 114.668 176.152 114.668 202.191C108.239 205.455 102.927 210.555 99.4094 216.844C96.0868 222.59 94.4601 229.159 94.7173 235.79C94.9745 242.42 97.105 248.843 100.863 254.316V254.316ZM172.933 228.14L171.435 230.68C171.016 231.279 170.459 231.769 169.811 232.106C169.162 232.444 168.442 232.62 167.711 232.62C166.98 232.62 166.259 232.444 165.611 232.106C164.962 231.769 164.405 231.279 163.987 230.68L162.534 228.14C162.392 227.886 162.319 227.599 162.321 227.308C162.324 227.016 162.403 226.731 162.549 226.479C162.696 226.228 162.905 226.018 163.158 225.872C163.41 225.726 163.695 225.648 163.987 225.645H171.48C171.771 225.648 172.057 225.726 172.309 225.872C172.561 226.018 172.771 226.228 172.918 226.479C173.064 226.731 173.143 227.016 173.145 227.308C173.148 227.599 173.075 227.886 172.933 228.14V228.14ZM193.642 206.047C195.483 205.662 197.399 205.858 199.125 206.608C200.85 207.357 202.3 208.623 203.274 210.232C204.248 211.84 204.698 213.711 204.561 215.585C204.425 217.46 203.709 219.246 202.513 220.697C201.316 222.148 199.698 223.191 197.883 223.684C196.067 224.176 194.143 224.093 192.376 223.446C190.609 222.799 189.088 221.62 188.021 220.072C186.954 218.523 186.395 216.682 186.421 214.803C186.243 212.691 186.898 210.593 188.247 208.957C189.596 207.321 191.532 206.277 193.642 206.047V206.047ZM146.639 206.047C148.583 206.555 150.303 207.692 151.531 209.28C152.759 210.868 153.425 212.819 153.425 214.825C153.425 216.832 152.759 218.782 151.531 220.371C150.303 221.959 148.583 223.096 146.639 223.604C144.695 223.096 142.975 221.959 141.747 220.371C140.519 218.782 139.853 216.832 139.853 214.825C139.853 212.819 140.519 210.868 141.747 209.28C142.975 207.692 144.695 206.555 146.639 206.047Z" fill="#C64259"/>
<path opacity="0.75" d="M171.48 225.645H163.987C163.695 225.648 163.409 225.726 163.157 225.872C162.905 226.018 162.696 226.228 162.549 226.479C162.403 226.731 162.324 227.016 162.321 227.308C162.319 227.599 162.392 227.886 162.534 228.14L163.987 230.68C164.405 231.279 164.962 231.769 165.611 232.106C166.259 232.444 166.979 232.62 167.711 232.62C168.442 232.62 169.162 232.444 169.811 232.106C170.459 231.769 171.016 231.279 171.435 230.68L172.933 228.14C173.075 227.886 173.148 227.599 173.145 227.308C173.143 227.016 173.064 226.731 172.917 226.479C172.771 226.228 172.561 226.018 172.309 225.872C172.057 225.726 171.771 225.648 171.48 225.645V225.645Z" fill="#C64259"/>
<path opacity="0.75" d="M193.642 223.604C195.481 223.988 197.395 223.794 199.12 223.046C200.844 222.298 202.293 221.035 203.268 219.429C204.243 217.824 204.696 215.956 204.563 214.083C204.431 212.21 203.719 210.424 202.528 208.972C201.336 207.52 199.723 206.472 197.911 205.975C196.098 205.477 194.176 205.553 192.409 206.193C190.641 206.833 189.116 208.005 188.044 209.547C186.972 211.089 186.404 212.925 186.421 214.803C186.23 216.922 186.88 219.032 188.23 220.678C189.58 222.324 191.524 223.374 193.642 223.604V223.604Z" fill="#C64259"/>
<path opacity="0.75" d="M146.639 223.604C148.583 223.096 150.303 221.959 151.531 220.371C152.759 218.782 153.425 216.832 153.425 214.825C153.425 212.819 152.759 210.868 151.531 209.28C150.303 207.692 148.583 206.555 146.639 206.047C144.695 206.555 142.975 207.692 141.747 209.28C140.519 210.868 139.853 212.819 139.853 214.825C139.853 216.832 140.519 218.782 141.747 220.371C142.975 221.959 144.695 223.096 146.639 223.604Z" fill="#C64259"/>
<path opacity="0.75" d="M175.25 240.026C173.822 239.887 172.44 239.448 171.195 238.736C169.95 238.025 168.871 237.057 168.029 235.897C167.046 237.12 165.779 238.085 164.339 238.709C162.899 239.334 161.329 239.599 159.764 239.481C154.405 238.665 151.044 231.361 150.908 231.361C150.833 231.201 150.791 231.027 150.785 230.85C150.779 230.673 150.808 230.497 150.872 230.332C150.936 230.166 151.032 230.016 151.155 229.889C151.278 229.761 151.426 229.66 151.589 229.592C151.75 229.517 151.924 229.475 152.101 229.469C152.278 229.463 152.454 229.492 152.62 229.556C152.785 229.619 152.936 229.715 153.063 229.838C153.19 229.962 153.292 230.109 153.36 230.272C153.36 230.272 156.085 236.396 160.172 236.986C162.352 237.304 164.714 235.988 167.121 233.085L168.301 231.678L169.3 233.221C170.072 234.491 172.706 237.757 175.477 237.485C178.247 237.213 180.018 234.854 182.107 230.272C182.176 230.109 182.277 229.962 182.404 229.838C182.531 229.715 182.682 229.619 182.848 229.556C183.013 229.492 183.189 229.463 183.366 229.469C183.544 229.475 183.718 229.517 183.878 229.592C184.2 229.74 184.45 230.008 184.578 230.338C184.705 230.669 184.698 231.035 184.559 231.361C182.061 236.986 179.064 239.935 175.477 240.162L175.25 240.026Z" fill="#C64259"/>
</g>
<path d="M239.509 254.316C237.42 257.673 105.904 281.807 93.4605 254.316C89.7301 248.858 87.615 242.46 87.358 235.857C87.101 229.253 88.7123 222.711 92.0073 216.98C84.1054 195.114 70.1635 165.718 53.4515 171.933C30.427 180.507 53.4515 213.986 77.2026 290.562C77.2026 290.562 143.324 340.101 263.714 314.787C277.293 308.481 248.637 262.799 239.509 254.316Z" fill="white"/>
<path d="M102.634 264.749C98.3641 262.018 94.6758 258.473 91.7798 254.316C104.45 281.807 177.111 292.966 219.527 270.964C182.651 284.937 119.527 275.592 102.634 264.749Z" fill="#85ACE5"/>
<path d="M91.7801 254.316C94.676 258.473 98.3643 262.018 102.634 264.749C119.527 275.592 182.652 284.937 219.527 270.964C223.576 269.501 227.446 267.584 231.062 265.248C234.708 262.912 237.806 259.817 240.145 256.176C256.039 231.361 226.521 189.716 226.521 189.716C226.521 189.716 284.831 121.034 237.965 96.5818C220.118 87.282 207.72 94.9033 199.182 107.878L198.274 110.917C198.274 95.8106 192.143 82.7909 171.344 80.4773C118.892 74.716 135.785 167.85 135.785 167.85C135.785 167.85 105.586 176.152 105.586 202.191C99.1563 205.454 93.8445 210.555 90.3268 216.844C87.0043 222.59 85.3776 229.159 85.6348 235.79C85.8919 242.42 88.0225 248.843 91.7801 254.316ZM163.851 228.14L162.352 230.68C161.934 231.279 161.376 231.769 160.728 232.106C160.08 232.444 159.359 232.62 158.628 232.62C157.897 232.62 157.177 232.444 156.528 232.106C155.88 231.769 155.323 231.279 154.904 230.68L153.451 228.14C153.309 227.886 153.236 227.599 153.239 227.308C153.242 227.016 153.32 226.731 153.467 226.479C153.613 226.228 153.823 226.018 154.075 225.872C154.327 225.726 154.613 225.648 154.904 225.645H162.397C162.689 225.648 162.975 225.726 163.227 225.872C163.479 226.018 163.688 226.228 163.835 226.479C163.982 226.731 164.06 227.016 164.063 227.308C164.066 227.599 163.993 227.886 163.851 228.14Z" fill="white"/>
<path d="M162.397 225.645H154.904C154.613 225.648 154.327 225.726 154.075 225.872C153.823 226.018 153.613 226.228 153.467 226.479C153.32 226.731 153.242 227.016 153.239 227.308C153.236 227.599 153.309 227.886 153.451 228.14L154.904 230.68C155.323 231.279 155.88 231.769 156.528 232.106C157.177 232.444 157.897 232.62 158.628 232.62C159.359 232.62 160.08 232.444 160.728 232.106C161.376 231.769 161.934 231.279 162.352 230.68L163.851 228.14C163.992 227.886 164.066 227.599 164.063 227.308C164.06 227.016 163.982 226.731 163.835 226.479C163.688 226.228 163.479 226.018 163.227 225.872C162.975 225.726 162.689 225.648 162.397 225.645V225.645Z" fill="black"/>
<path d="M184.559 223.603C186.399 223.988 188.313 223.794 190.037 223.046C191.761 222.298 193.211 221.035 194.186 219.429C195.161 217.824 195.613 215.956 195.481 214.083C195.348 212.21 194.637 210.424 193.445 208.972C192.254 207.52 190.641 206.472 188.828 205.975C187.016 205.477 185.093 205.553 183.326 206.193C181.559 206.833 180.034 208.004 178.961 209.547C177.889 211.089 177.322 212.925 177.338 214.803C177.147 216.922 177.797 219.032 179.148 220.678C180.498 222.324 182.441 223.374 184.559 223.603V223.603Z" fill="black"/>
<path d="M136.183 222.257C138.023 222.642 139.937 222.447 141.661 221.699C143.385 220.952 144.835 219.688 145.81 218.083C146.785 216.477 147.237 214.609 147.105 212.736C146.972 210.863 146.261 209.077 145.069 207.625C143.878 206.173 142.265 205.126 140.452 204.628C138.64 204.13 136.717 204.207 134.95 204.846C133.183 205.486 131.658 206.658 130.585 208.2C129.513 209.742 128.946 211.578 128.962 213.456C128.772 215.576 129.421 217.685 130.772 219.331C132.122 220.977 134.065 222.028 136.183 222.257V222.257Z" fill="black"/>
<path d="M166.167 240.026C164.739 239.887 163.357 239.448 162.112 238.736C160.867 238.025 159.788 237.057 158.946 235.897C157.963 237.12 156.696 238.085 155.256 238.709C153.816 239.334 152.246 239.599 150.681 239.481C145.322 238.665 141.961 231.361 141.825 231.361C141.75 231.201 141.708 231.027 141.702 230.85C141.696 230.673 141.725 230.497 141.789 230.332C141.853 230.166 141.949 230.016 142.072 229.889C142.195 229.761 142.343 229.66 142.506 229.592C142.667 229.517 142.841 229.475 143.018 229.469C143.195 229.463 143.371 229.492 143.537 229.556C143.702 229.619 143.853 229.715 143.98 229.838C144.107 229.962 144.209 230.109 144.277 230.272C144.277 230.272 147.002 236.396 151.089 236.986C153.269 237.304 155.631 235.988 158.038 233.085L159.218 231.678L160.217 233.221C160.989 234.491 163.623 237.757 166.394 237.485C169.164 237.213 170.935 234.854 173.024 230.272C173.093 230.109 173.194 229.962 173.321 229.838C173.448 229.715 173.599 229.619 173.765 229.556C173.93 229.492 174.106 229.463 174.283 229.469C174.461 229.475 174.635 229.517 174.795 229.592C175.117 229.74 175.367 230.008 175.495 230.338C175.622 230.669 175.615 231.035 175.476 231.361C172.978 236.986 169.981 239.935 166.394 240.162L166.167 240.026Z" fill="black"/>
<path d="M46.7754 162.225C46.4727 162.221 46.176 162.14 45.9136 161.989C45.6513 161.838 45.432 161.623 45.2768 161.363L40.2359 153.288C40.1139 153.086 40.0335 152.862 39.9995 152.629C39.9654 152.395 39.9784 152.158 40.0376 151.929C40.0969 151.701 40.2012 151.487 40.3444 151.3C40.4876 151.112 40.6669 150.955 40.8717 150.838C41.2774 150.6 41.7596 150.529 42.217 150.639C42.6744 150.749 43.0713 151.032 43.324 151.428L48.3195 159.503C48.4434 159.702 48.5264 159.924 48.5638 160.155C48.6012 160.387 48.5922 160.623 48.5372 160.851C48.4823 161.079 48.3826 161.294 48.2438 161.483C48.1051 161.672 47.9301 161.832 47.7291 161.953C47.4471 162.14 47.1139 162.235 46.7754 162.225V162.225Z" fill="white"/>
<path d="M39.9181 170.481C39.5817 170.476 39.2527 170.382 38.9644 170.209L29.8818 164.584C29.6807 164.463 29.5057 164.303 29.367 164.114C29.2283 163.925 29.1285 163.71 29.0736 163.482C29.0187 163.254 29.0096 163.018 29.047 162.786C29.0844 162.555 29.1675 162.333 29.2914 162.134C29.5446 161.725 29.9499 161.434 30.4182 161.323C30.8864 161.213 31.3795 161.292 31.7891 161.544L40.8718 167.17C41.261 167.429 41.5349 167.829 41.6365 168.285C41.738 168.742 41.6593 169.219 41.4167 169.619C41.2615 169.879 41.0422 170.095 40.7799 170.245C40.5175 170.396 40.2208 170.478 39.9181 170.481V170.481Z" fill="white"/>
<path d="M56.4937 161.726C56.2631 161.72 56.036 161.668 55.8258 161.573C55.6156 161.478 55.4266 161.342 55.2699 161.173C55.1132 161.004 54.9921 160.805 54.9137 160.588C54.8353 160.372 54.8012 160.141 54.8135 159.911L55.2222 151.247C55.1812 150.994 55.1958 150.735 55.2648 150.488C55.3338 150.241 55.4557 150.012 55.622 149.817C55.7882 149.622 55.9949 149.465 56.2278 149.358C56.4606 149.251 56.7141 149.195 56.9706 149.195C57.2271 149.195 57.4805 149.251 57.7134 149.358C57.9462 149.465 58.1529 149.622 58.3192 149.817C58.4855 150.012 58.6073 150.241 58.6764 150.488C58.7454 150.735 58.7599 150.994 58.719 151.247L58.3557 159.866C58.3688 160.114 58.3296 160.361 58.2406 160.593C58.1517 160.824 58.015 161.035 57.8394 161.21C57.6638 161.385 57.4533 161.522 57.2215 161.611C56.9896 161.7 56.7417 161.739 56.4937 161.726V161.726Z" fill="white"/>
</g>
<defs>
<clipPath id="clip0_21_170">
<rect width="349" height="322" fill="white"/>
</clipPath>
</defs>
</svg>
